<svg height="512pt" viewBox="-35 0 512 512" width="512pt" xmlns="http://www.w3.org/2000/svg"><path d="m17.65625 0h406.066406c9.753906 0 17.65625 7.90625 17.65625 17.65625v476.6875c0 9.75-7.902344 17.65625-17.65625 17.65625h-406.066406c-9.75 0-17.65625-7.90625-17.65625-17.65625v-476.6875c0-9.75 7.90625-17.65625 17.65625-17.65625zm0 0" fill="#5e4c73"/><path d="m26.484375 17.65625h388.414063c4.875 0 8.824218 3.949219 8.824218 8.828125v459.03125c0 4.878906-3.949218 8.828125-8.824218 8.828125h-388.414063c-4.878906 0-8.828125-3.949219-8.828125-8.828125v-459.03125c0-4.878906 3.949219-8.828125 8.828125-8.828125zm0 0" fill="#7d6599"/><path d="m79.449219 406.070312c-4.875 0-8.828125-3.953124-8.828125-8.828124v-123.585938c0-4.875 3.953125-8.828125 8.828125-8.828125s8.828125 3.953125 8.828125 8.828125v123.585938c0 4.875-3.953125 8.828124-8.828125 8.828124zm0 0" fill="#35495e"/><path d="m361.929688 406.070312c-4.875 0-8.828126-3.953124-8.828126-8.828124v-123.585938c0-4.875 3.953126-8.828125 8.828126-8.828125s8.828124 3.953125 8.828124 8.828125v123.585938c0 4.875-3.953124 8.828124-8.828124 8.828124zm0 0" fill="#35495e"/><path d="m100.8125 0-17.65625 17.65625h-25.070312l17.65625-17.65625zm0 0" fill="#877498"/><path d="m83.15625 17.65625-32.75 32.75c-3.480469 3.414062-9.054688 3.414062-12.535156 0-3.441406-3.46875-3.441406-9.066406 0-12.535156l20.214844-20.214844zm0 0" fill="#b49aca"/><path d="m162.605469 0-17.65625 17.65625h-25.070313l17.65625-17.65625zm0 0" fill="#877498"/><path d="m144.949219 17.65625-85.714844 85.714844c-3.480469 3.414062-9.054687 3.414062-12.535156 0-3.445313-3.46875-3.445313-9.066406 0-12.535156l73.179687-73.179688zm0 0" fill="#b49aca"/><path d="m176.550781 317.792969c-3.570312 0-6.785156-2.152344-8.152343-5.449219-1.367188-3.296875-.613282-7.09375 1.914062-9.621094l48.550781-48.550781c3.460938-3.34375 8.96875-3.296875 12.375.109375 3.402344 3.402344 3.453125 8.910156.105469 12.375l-48.550781 48.550781c-1.65625 1.65625-3.898438 2.585938-6.242188 2.585938zm0 0" fill="#b49aca"/><path d="m176.550781 379.585938c-3.570312 0-6.785156-2.152344-8.152343-5.449219-1.367188-3.296875-.613282-7.09375 1.914062-9.621094l105.929688-105.929687c3.464843-3.34375 8.96875-3.296876 12.375.109374 3.402343 3.402344 3.453124 8.910157.105468 12.375l-105.929687 105.929688c-1.65625 1.65625-3.898438 2.585938-6.242188 2.585938zm0 0" fill="#b49aca"/><path d="m114.757812 238.34375c0 19.503906-15.808593 35.3125-35.308593 35.3125-19.503907 0-35.3125-15.808594-35.3125-35.3125 0-19.5 15.808593-35.308594 35.3125-35.308594 19.5 0 35.308593 15.808594 35.308593 35.308594zm0 0" fill="#3d324c"/><path d="m397.242188 238.34375c0 19.503906-15.808594 35.3125-35.3125 35.3125-19.5 0-35.308594-15.808594-35.308594-35.3125 0-19.5 15.808594-35.308594 35.308594-35.308594 19.503906 0 35.3125 15.808594 35.3125 35.308594zm0 0" fill="#3d324c"/><path d="m114.757812 432.550781c0 19.503907-15.808593 35.3125-35.308593 35.3125-19.503907 0-35.3125-15.808593-35.3125-35.3125 0-19.5 15.808593-35.308593 35.3125-35.308593 19.5 0 35.308593 15.808593 35.308593 35.308593zm0 0" fill="#3d324c"/><path d="m397.242188 432.550781c0 19.503907-15.808594 35.3125-35.3125 35.3125-19.5 0-35.308594-15.808593-35.308594-35.3125 0-19.5 15.808594-35.308593 35.308594-35.308593 19.503906 0 35.3125 15.808593 35.3125 35.308593zm0 0" fill="#3d324c"/><path d="m105.929688 35.308594h229.519531c9.75 0 17.652343 7.90625 17.652343 17.65625v97.105468c0 9.75-7.902343 17.652344-17.652343 17.652344h-229.519531c-9.75 0-17.652344-7.902344-17.652344-17.652344v-97.105468c0-9.75 7.902344-17.65625 17.652344-17.65625zm0 0" fill="#5e4c73"/><path d="m344.277344 52.964844v97.105468c0 4.875-3.953125 8.828126-8.828125 8.828126h-229.519531c-4.875 0-8.828126-3.953126-8.828126-8.828126v-97.105468c0-4.875 3.953126-8.828125 8.828126-8.828125h229.519531c4.875 0 8.828125 3.953125 8.828125 8.828125zm0 0" fill="#35495e"/><g fill="#3f5c6c"><path d="m194.207031 97.101562c-4.875 0-8.828125-3.949218-8.828125-8.824218v-8.828125c0-4.875 3.953125-8.828125 8.828125-8.828125s8.828125 3.953125 8.828125 8.828125v8.828125c0 4.875-3.953125 8.824218-8.828125 8.824218zm0 0"/><path d="m194.207031 132.414062c-4.875 0-8.828125-3.953124-8.828125-8.828124v-8.828126c0-4.875 3.953125-8.828124 8.828125-8.828124s8.828125 3.953124 8.828125 8.828124v8.828126c0 4.875-3.953125 8.828124-8.828125 8.828124zm0 0"/><path d="m238.34375 97.101562c-4.875 0-8.828125-3.949218-8.828125-8.824218v-8.828125c0-4.875 3.953125-8.828125 8.828125-8.828125s8.828125 3.953125 8.828125 8.828125v8.828125c0 4.875-3.953125 8.824218-8.828125 8.824218zm0 0"/><path d="m238.34375 132.414062c-4.875 0-8.828125-3.953124-8.828125-8.828124v-8.828126c0-4.875 3.953125-8.828124 8.828125-8.828124s8.828125 3.953124 8.828125 8.828124v8.828126c0 4.875-3.953125 8.828124-8.828125 8.828124zm0 0"/><path d="m220.691406 70.621094h-8.828125c-4.875 0-8.828125-3.953125-8.828125-8.828125s3.953125-8.828125 8.828125-8.828125h8.828125c4.875 0 8.824219 3.953125 8.824219 8.828125s-3.949219 8.828125-8.824219 8.828125zm0 0"/><path d="m220.691406 150.070312h-8.828125c-4.875 0-8.828125-3.953124-8.828125-8.828124s3.953125-8.828126 8.828125-8.828126h8.828125c4.875 0 8.824219 3.953126 8.824219 8.828126s-3.949219 8.828124-8.824219 8.828124zm0 0"/><path d="m273.65625 97.101562c-4.875 0-8.828125-3.949218-8.828125-8.824218v-8.828125c0-4.875 3.953125-8.828125 8.828125-8.828125s8.828125 3.953125 8.828125 8.828125v8.828125c0 4.875-3.953125 8.824218-8.828125 8.824218zm0 0"/><path d="m273.65625 132.414062c-4.875 0-8.828125-3.953124-8.828125-8.828124v-8.828126c0-4.875 3.953125-8.828124 8.828125-8.828124s8.828125 3.953124 8.828125 8.828124v8.828126c0 4.875-3.953125 8.828124-8.828125 8.828124zm0 0"/><path d="m317.792969 97.101562c-4.875 0-8.828125-3.949218-8.828125-8.824218v-8.828125c0-4.875 3.953125-8.828125 8.828125-8.828125s8.828125 3.953125 8.828125 8.828125v8.828125c0 4.875-3.953125 8.824218-8.828125 8.824218zm0 0"/><path d="m317.792969 132.414062c-4.875 0-8.828125-3.953124-8.828125-8.828124v-8.828126c0-4.875 3.953125-8.828124 8.828125-8.828124s8.828125 3.953124 8.828125 8.828124v8.828126c0 4.875-3.953125 8.828124-8.828125 8.828124zm0 0"/><path d="m300.136719 70.621094h-8.828125c-4.875 0-8.824219-3.953125-8.824219-8.828125s3.949219-8.828125 8.824219-8.828125h8.828125c4.875 0 8.828125 3.953125 8.828125 8.828125s-3.953125 8.828125-8.828125 8.828125zm0 0"/><path d="m300.136719 150.070312h-8.828125c-4.875 0-8.824219-3.953124-8.824219-8.828124s3.949219-8.828126 8.824219-8.828126h8.828125c4.875 0 8.828125 3.953126 8.828125 8.828126s-3.953125 8.828124-8.828125 8.828124zm0 0"/></g></svg>