<svg height="512pt" viewBox="-93 0 512 512" width="512pt" xmlns="http://www.w3.org/2000/svg"><path d="m114.757812 97.101562v-75.527343c-.972656-10.800781 6.878907-20.390625 17.65625-21.574219h88.277344c10.777344 1.183594 18.625 10.773438 17.652344 21.574219v75.527343" fill="#2c3e50"/><path d="m238.34375 423.722656v68.664063c.511719 10.28125-7.375 19.042969-17.652344 19.613281h-88.277344c-10.277343-.570312-18.167968-9.332031-17.65625-19.613281v-68.664063" fill="#2c3e50"/><g fill="#2c2f38"><path d="m185.378906 52.964844h-17.65625c-4.875 0-8.824218-3.953125-8.824218-8.828125s3.949218-8.828125 8.824218-8.828125h17.65625c4.875 0 8.828125 3.953125 8.828125 8.828125s-3.953125 8.828125-8.828125 8.828125zm0 0"/><path d="m185.378906 476.691406h-17.65625c-4.875 0-8.824218-3.953125-8.824218-8.828125s3.949218-8.828125 8.824218-8.828125h17.65625c4.875 0 8.828125 3.953125 8.828125 8.828125s-3.953125 8.828125-8.828125 8.828125zm0 0"/><path d="m279.746094 159.515625-9.003906-27.101563-10.011719-35.972656c-2.796875-10.050781-11.953125-17.003906-22.386719-16.992187h-123.585938c-10.425781 0-19.574218 6.949219-22.367187 16.992187l-10.027344 35.972656-9.007812 27.101563"/><path d="m73.355469 352.484375 9.007812 27.101563 10.007813 35.972656c2.796875 10.050781 11.953125 17.003906 22.386718 16.992187h123.585938c10.425781 0 19.574219-6.949219 22.371094-16.992187l10.027344-35.972656 9.003906-27.101563"/></g><path d="m176.550781 114.757812c-67.804687-.015624-126.054687 48.15625-138.769531 114.757813-1.628906 8.734375-2.457031 17.601563-2.472656 26.484375.011718 8.796875.839844 17.574219 2.472656 26.21875v.265625c8.167969 42.90625 35.746094 79.609375 74.683594 99.398437-2.234375-4.425781-4.238282-8.964843-6.003906-13.597656-.792969-2.117187-1.589844-4.324218-2.296876-6.53125-.648437-1.792968-1.210937-3.621094-1.675781-5.472656-1.242187-4.082031-2.214843-8.238281-2.914062-12.445312-.320313-1.339844-.554688-2.695313-.707031-4.0625-.351563-2.03125-.617188-4.058594-.792969-6.089844-.265625-1.855469-.441407-3.707032-.53125-5.652344-.324219-3.402344-.46875-6.820312-.441407-10.238281 0-2.382813.089844-4.765625.179688-7.148438.085938-1.503906.175781-2.914062.261719-4.328125.089843-1.410156.265625-3 .441406-4.5.179687-1.238281.265625-2.382812.441406-3.621094 0-.175781.089844-.351562.089844-.527343.351563-2.121094.617187-4.238281 1.058594-6.359375.441406-2.46875.972656-4.941406 1.589843-7.414063.089844-.265625.089844-.441406.175782-.707031 0-.085938.089844-.261719.089844-.351562.070312-.105469.101562-.230469.085937-.351563.621094-2.472656 1.414063-4.945313 2.207031-7.417969.265625-1.144531.707032-2.292968 1.0625-3.351562.085938-.355469.261719-.707032.351563-1.0625.65625-1.980469 1.425781-3.925782 2.296875-5.824219.085937-.355469.261718-.707031.351562-.972656.410156-1.15625.910156-2.277344 1.5-3.351563 0-.089844.089844-.179687.089844-.265625.175781-.441406.351562-.796875.527344-1.238281.882812-1.851562 1.765625-3.707031 2.648437-5.472656.175781-.265625.265625-.617188.441407-.882813.355468-.617187.617187-1.148437.972656-1.765625.492187-1.035156 1.050781-2.039062 1.675781-3v-.175781c.53125-.972656 1.148437-1.941406 1.765625-2.914063.292969-.550781.617188-1.078124.972656-1.589843.441406-.707031.96875-1.410157 1.410156-2.207031.796876-1.234376 1.679688-2.472657 2.5625-3.796876 1.144532-1.675781 2.382813-3.351562 3.617188-5.03125 1.238281-1.675781 2.5625-3.265624 3.972656-4.855468.441406-.617188.972656-1.144532 1.414063-1.765625.195312-.183594.375-.390625.527343-.617188l.355469-.351562c1.851563-2.207031 3.882813-4.324219 6-6.445313 1.414063-1.410156 2.914063-2.914062 4.503907-4.324218 3.089843-2.824219 6.265624-5.472657 9.535156-8.035157 1.324218-1.058593 2.648437-2.027343 3.972656-3 .3125-.175781.609375-.382812.882812-.617187 1.765626-1.148438 3.527344-2.382813 5.382813-3.53125 1.855469-1.148438 3.53125-2.207032 5.386719-3.265625l2.382812-1.324219c0-.089844.085938 0 .085938 0 .382812-.289062.796875-.523438 1.238281-.707031.363281-.238281.746094-.445313 1.148437-.617188.183594-.152343.390626-.269531.617188-.355469 2.667969-1.433593 5.40625-2.730468 8.207031-3.882812 1.726563-.824219 3.496094-1.5625 5.296875-2.207031h.089844c0-.046875.039062-.089844.085938-.089844.164062-.097656.34375-.15625.53125-.175781 1.40625-.621094 2.851562-1.152344 4.324218-1.585938 1.414063-.53125 2.828125-.972656 4.328125-1.414062.664063-.246094 1.339844-.453125 2.03125-.617188 1.410157-.53125 2.910157-.882812 4.324219-1.324218 1.058594-.175782 2.03125-.441407 3.089844-.707032l4.855468-1.058594c1.585938-.265624 3.265626-.617187 4.855469-.882812 1.058594-.175781 2.117188-.355469 3.175781-.441406l1.765626-.265625 4.765624-.53125h.179688c2.117188-.175781 4.324219-.351563 6.53125-.441407 2.207031-.085937 4.324219-.175781 6.53125-.175781 3.417969-.03125 6.835938.117188 10.242188.441407 1.941406.089843 3.792968.265624 5.648437.53125 2.03125.175781 4.0625.441406 6.089844.792968 1.339843.152344 2.667969.386719 3.972656.707032 0 0 .089844-.089844.089844 0 4.207031.699218 8.363281 1.671874 12.445312 2.914062 1.851563.464844 3.679688 1.023438 5.472657 1.675781 2.207031.707031 4.414062 1.5 6.535156 2.296875 4.628906 1.765625 9.167968 3.769532 13.59375 6-24.074219-47.378906-72.738282-77.203125-125.882813-77.152344zm-80.769531 162.164063 5.292969 5.5625h-39.28125c-4.875 0-8.828125-3.953125-8.828125-8.828125s3.953125-8.828125 8.828125-8.828125h25.160156c2.40625 4.394531 5.375 8.460937 8.828125 12.09375zm0 0" fill="#41767f"/><path d="m317.792969 256c.007812 49.136719-25.527344 94.746094-67.417969 120.429688-41.894531 25.683593-94.125 27.75-137.910156 5.453124-2.234375-4.425781-4.238282-8.964843-6.003906-13.597656-.792969-2.117187-1.589844-4.324218-2.296876-6.53125-.617187-1.765625-1.144531-3.617187-1.675781-5.472656-1.199219-4.09375-2.171875-8.246094-2.914062-12.445312-.265625-1.324219-.527344-2.738282-.707031-4.0625-.351563-2.03125-.617188-4.058594-.792969-6.089844-.265625-1.855469-.441407-3.707032-.53125-5.652344-.324219-3.402344-.46875-6.820312-.441407-10.238281 0-2.382813.089844-4.765625.179688-7.148438.085938-1.503906.175781-2.914062.261719-4.328125.089843-1.410156.265625-3 .441406-4.5.179687-1.238281.265625-2.382812.441406-3.621094 0-.175781.089844-.351562.089844-.527343.351563-2.121094.617187-4.238281 1.058594-6.359375.441406-2.46875 1.058593-5.03125 1.589843-7.414063.089844-.265625.089844-.441406.175782-.707031 0-.085938.089844-.261719.089844-.351562.070312-.105469.101562-.230469.085937-.351563h30.898437c3.121094.015625 6.015626-1.632813 7.589844-4.328125l17.039063-28.425781 20.039062 53.496093c1.230469 3.164063 4.125 5.378907 7.503907 5.738282h.792968c3.121094.019531 6.015625-1.628906 7.59375-4.324219l23.921875-39.8125h49.257813c3.046875-5.507813 5.195312-11.46875 6.355468-17.65625h-60.644531c-3.121093-.015625-6.015625 1.632813-7.59375 4.324219l-17.035156 28.425781-20.039063-53.496094c-1.234374-3.164062-4.128906-5.375-7.503906-5.734375-3.390625-.273437-6.644531 1.402344-8.386718 4.324219l-23.921876 39.8125h-19.949218c.085937-.355469.261718-.707031.351562-.972656.53125-1.148438.972656-2.292969 1.5-3.351563 0-.089844.089844-.179687.089844-.265625.175781-.441406.351562-.796875.527344-1.238281.882812-1.851562 1.765625-3.707031 2.648437-5.472656.175781-.265625.265625-.617188.441407-.882813.355468-.617187.617187-1.148437.972656-1.765625.527344-.96875 1.058594-2.027344 1.675781-3v-.175781c.53125-.972656 1.148437-1.941406 1.765625-2.914063.292969-.550781.617188-1.078124.972656-1.589843.441406-.707031.882813-1.5 1.410156-2.207031.796876-1.234376 1.679688-2.472657 2.5625-3.796876 1.144532-1.675781 2.382813-3.351562 3.617188-5.03125 1.671875-2.304687 3.46875-4.515624 5.386719-6.621093.195312-.183594.375-.390625.527343-.617188h.089844c.066406-.132812.15625-.25.265625-.351562 1.941407-2.207031 3.972657-4.324219 6-6.445313 1.503907-1.5 3.003907-2.914062 4.503907-4.324218 3.089843-2.824219 6.265624-5.472657 9.535156-8.035157 1.324218-.96875 2.648437-1.941406 3.972656-3 .3125-.175781.609375-.382812.882812-.617187 1.765626-1.148438 3.527344-2.382813 5.382813-3.53125 1.855469-1.148438 3.53125-2.207032 5.386719-3.265625l2.382812-1.324219c.214844-.179688.449219-.328125.707032-.441406.175781-.089844.441406-.175782.617187-.265625.363281-.238281.746094-.445313 1.148437-.617188.183594-.152343.390626-.269531.617188-.355469 2.667969-1.433593 5.40625-2.730468 8.207031-3.882812 1.726563-.824219 3.496094-1.5625 5.296875-2.207031h.089844c0-.046875.039062-.089844.085938-.089844.164062-.097656.34375-.15625.53125-.175781 1.40625-.621094 2.851562-1.152344 4.324218-1.585938 1.414063-.53125 2.828125-.972656 4.328125-1.414062.707031-.175782 1.324219-.441406 2.03125-.617188 1.410157-.53125 2.824219-.882812 4.324219-1.324218 1.058594-.175782 2.03125-.441407 3.089844-.707032 1.589844-.351562 3.175781-.707031 4.855468-1.058594 1.675782-.355468 3.265626-.617187 4.855469-.882812 1.058594-.175781 2.117188-.355469 3.175781-.441406.53125-.089844 1.148438-.175782 1.765626-.265625l4.765624-.53125h.179688c2.117188-.175781 4.324219-.351563 6.53125-.441407 2.207031-.085937 4.324219-.175781 6.53125-.175781 3.417969-.03125 6.835938.117188 10.242188.441407 1.941406.089843 3.792968.265624 5.648437.53125 2.03125.175781 4.0625.441406 6.089844.792968 1.324219.175782 2.648437.441406 3.972656.707032 0 0 .089844-.089844.089844 0 4.199219.742187 8.355469 1.714843 12.445312 2.914062 1.855469.527344 3.707031 1.058594 5.472657 1.675781 2.207031.707031 4.414062 1.5 6.535156 2.296875 4.628906 1.765625 9.167968 3.769532 13.59375 6 10.113281 19.851563 15.375 41.8125 15.359375 64.089844zm0 0" fill="#41767f"/><path d="m302.433594 191.910156c-4.425782-2.230468-8.964844-4.234375-13.59375-6-2.121094-.796875-4.328125-1.589844-6.535156-2.296875-1.792969-.652343-3.621094-1.210937-5.472657-1.675781-4.082031-1.242188-8.238281-2.214844-12.445312-2.914062 0-.089844-.089844 0-.089844 0-1.304687-.320313-2.632813-.554688-3.972656-.707032-2.027344-.351562-4.058594-.617187-6.089844-.792968-1.855469-.265626-3.707031-.441407-5.648437-.53125-3.40625-.324219-6.824219-.472657-10.242188-.441407-2.207031 0-4.414062 0-6.53125.175781-2.117188.179688-4.414062.265626-6.53125.441407h-.179688l-4.765624.53125-1.765626.265625c-1.058593.085937-2.117187.265625-3.175781.441406-1.589843.265625-3.269531.617188-4.855469.882812l-4.855468 1.058594c-2.472656.617188-5.03125 1.324219-7.414063 2.03125-.691406.164063-1.367187.371094-2.03125.617188-1.5.441406-2.914062.882812-4.328125 1.414062-1.472656.433594-2.917968.964844-4.324218 1.585938-.1875.019531-.367188.078125-.53125.175781-.046876 0-.085938.042969-.085938.089844h-.089844c-1.800781.644531-3.570312 1.382812-5.296875 2.207031-2.800781 1.152344-5.539062 2.449219-8.207031 3.882812-10.074219-10.121093-23.769531-15.808593-38.046875-15.800781-14.988281.070313-29.285156 6.292969-39.546875 17.214844-17.964844 19.304687-21.523438 47.949219-8.828125 71.0625h-25.160156c-4.875 0-8.828125 3.953125-8.828125 8.828125s3.953125 8.828125 8.828125 8.828125h39.28125l-5.292969-5.5625c-3.453125-3.632813-6.421875-7.699219-8.828125-12.09375h20.480469c-.871094 1.898437-1.640625 3.84375-2.296875 5.824219-.089844.355468-.265625.707031-.351563 1.0625-.355468 1.058594-.796875 2.207031-1.0625 3.351562-.792968 2.472656-1.585937 4.945313-2.207031 7.417969.015625.121094-.015625.246094-.085937.351563 0 .089843-.089844.265624-.089844.351562-.085938.265625-.085938.441406-.175782.707031-.617187 2.472657-1.148437 4.945313-1.589843 7.414063-.441407 2.121094-.707031 4.238281-1.058594 6.359375 0 .175781-.089844.351562-.089844.527343-.175781 1.238282-.261719 2.382813-.441406 3.621094-.175781 1.5-.261719 3-.441406 4.5-.175781 1.5-.175781 2.824219-.261719 4.328125-.089844 2.382813-.179688 4.765625-.179688 7.148438-.027343 3.417969.117188 6.835937.441407 10.238281.089843 1.945312.265625 3.796875.53125 5.652344.175781 2.03125.441406 4.058594.792969 6.089844.152343 1.367187.386718 2.722656.707031 4.0625.699219 4.207031 1.671875 8.363281 2.914062 12.445312.464844 1.851562 1.027344 3.679688 1.675781 5.472656.707032 2.207032 1.503907 4.414063 2.296876 6.53125 1.765624 4.632813 3.769531 9.171875 6.003906 13.597656-38.9375-19.789062-66.515625-56.492187-74.683594-99.398437v-.265625c-1.632812-8.644531-2.460938-17.421875-2.472656-26.21875.015625-8.882812.84375-17.75 2.472656-26.484375 11.296875-59.339844 59.078125-104.925781 118.882812-113.425781 59.800782-8.496094 118.390626 21.976562 145.769532 75.820312zm0 0" fill="#679199"/><path d="m37.78125 282.484375h-28.953125c-4.875 0-8.828125-3.953125-8.828125-8.828125v-35.3125c0-4.875 3.953125-8.828125 8.828125-8.828125h28.953125zm0 0" fill="#2c2f38"/><path d="m104.785156 271.714844c.085938-.355469.261719-.707032.351563-1.0625.65625-1.980469 1.425781-3.925782 2.296875-5.824219h19.949218l23.921876-39.8125c1.742187-2.921875 4.996093-4.597656 8.386718-4.324219 3.375.359375 6.269532 2.570313 7.503906 5.734375l20.039063 53.496094 17.035156-28.425781c1.578125-2.691406 4.472657-4.339844 7.59375-4.324219h60.644531c3.835938-19.207031-1.816406-39.089844-15.183593-53.40625-8.5-8.996094-19.792969-14.847656-32.042969-16.597656h-.179688c-2.417968-.425781-4.867187-.632813-7.324218-.617188-10.984375-.015625-21.710938 3.34375-30.722656 9.621094-.046876 0-.085938.042969-.085938.089844h-.089844c-3.125 2.207031-6.023437 4.71875-8.648437 7.503906l-1.679688 1.765625-1.675781-1.765625c-.457031-.515625-.960938-.988281-1.5-1.414063-10.074219-10.121093-23.769531-15.808593-38.046875-15.800781-14.988281.070313-29.285156 6.292969-39.546875 17.214844-17.964844 19.304687-21.523438 47.949219-8.828125 71.0625 2.40625 4.394531 5.375 8.460937 8.828125 12.09375l5.292969 5.5625.355469.351563 75.121093 79.09375 79.097657-83.242188 1.675781-1.765625c3.453125-3.632813 6.417969-7.699219 8.828125-12.09375h-49.257813l-23.921875 39.8125c-1.578125 2.695313-4.472656 4.34375-7.59375 4.324219h-.792968c-3.378907-.359375-6.273438-2.574219-7.503907-5.738282l-20.039062-53.496093-17.039063 28.425781c-1.574218 2.695312-4.46875 4.34375-7.589844 4.328125h-30.898437c.621094-2.472656 1.414063-4.945313 2.207031-7.417969.265625-1.144531.707032-2.292968 1.0625-3.351562zm28.636719-48.375c.511719-.585938 1.046875-1.140625 1.578125-1.707032-.53125.539063-1.066406 1.105469-1.578125 1.707032zm29.128906-24.71875h-.0625l.160157-.097656zm0 0" fill="#df4d60"/><path d="m173.375 192.351562c-29.917969 15.527344-53.304688 41.230469-65.941406 72.476563h-20.480469c-12.695313-23.113281-9.136719-51.757813 8.828125-71.0625 10.261719-10.921875 24.558594-17.144531 39.546875-17.214844 14.277344-.007812 27.972656 5.679688 38.046875 15.800781zm0 0" fill="#ff5364"/><path d="m176.550781 105.929688c-72.621093.058593-134.78125 52.105468-147.597656 123.585937-3.292969 17.503906-3.292969 35.464844 0 52.96875 14.046875 78.152344 86.5625 131.824219 165.410156 122.421875 78.851563-9.398438 136.714844-78.617188 131.992188-157.882812-4.722657-79.265626-70.398438-141.121094-149.804688-141.09375zm0 282.484374c-24.796875.066407-49.105469-6.914062-70.089843-20.128906-55.945313-34.976562-77.582032-105.816406-50.726563-166.082031s93.996094-91.546875 157.410156-73.335937c63.417969 18.210937 103.734375 80.347656 94.523438 145.679687-9.214844 65.332031-65.136719 113.902344-131.117188 113.867187zm0 0" fill="#2c3e50"/><path d="m291.308594 247.171875h-79.445313c-3.121093-.015625-6.015625 1.632813-7.59375 4.324219l-17.035156 28.425781-20.039063-53.496094c-1.234374-3.164062-4.128906-5.375-7.503906-5.734375-3.390625-.273437-6.644531 1.402344-8.386718 4.324219l-23.921876 39.8125h-19.949218c-.796875 1.851563-1.589844 3.796875-2.296875 5.824219-.089844.355468-.265625.707031-.351563 1.0625-.355468 1.058594-.796875 2.207031-1.0625 3.351562-.792968 2.472656-1.585937 4.945313-2.207031 7.417969h30.898437c3.121094.015625 6.015626-1.632813 7.589844-4.328125l17.039063-28.425781 20.039062 53.496093c1.230469 3.164063 4.125 5.378907 7.503907 5.738282h.792968c3.121094.019531 6.015625-1.628906 7.59375-4.324219l23.921875-39.8125h74.414063c4.878906 0 8.828125-3.953125 8.828125-8.828125s-3.949219-8.828125-8.828125-8.828125zm0 0" fill="#e6e7e8"/><path d="m86.953125 264.828125h-25.160156c-4.875 0-8.828125 3.953125-8.828125 8.828125s3.953125 8.828125 8.828125 8.828125h39.722656c.621094-2.472656 1.414063-4.945313 2.207031-7.417969.265625-1.144531.707032-2.292968 1.0625-3.351562.085938-.355469.261719-.707032.351563-1.0625.65625-1.980469 1.425781-3.925782 2.296875-5.824219zm0 0" fill="#fff"/></svg>