<svg height="512pt" viewBox="-61 0 511 512" width="512pt" xmlns="http://www.w3.org/2000/svg"><path d="m88.777344 105.929688h211.859375c48.753906 0 88.277343 39.523437 88.277343 88.277343v282.484375c0 19.5-15.808593 35.308594-35.3125 35.308594h-317.792968c-19.5 0-35.308594-15.808594-35.308594-35.308594v-282.484375c0-48.753906 39.523438-88.277343 88.277344-88.277343zm0 0" fill="#95a5a5"/><path d="m159.398438 512h-88.277344c-19.5 0-35.3125-15.808594-35.3125-35.308594v-282.484375c0-48.753906 39.523437-88.277343 88.277344-88.277343h88.277343c-48.753906 0-88.277343 39.523437-88.277343 88.277343v282.484375c0 19.5 15.808593 35.308594 35.3125 35.308594zm0 0" fill="#bdc3c7"/><path d="m306.585938 61.792969h-223.761719c-2.769531 0-5.378907-1.296875-7.050781-3.511719-1.667969-2.210938-2.203126-5.078125-1.441407-7.742188l10.789063-37.730468c2.164062-7.582032 9.09375-12.808594 16.976562-12.808594h185.21875c7.882813 0 14.8125 5.226562 16.976563 12.808594l10.785156 37.730468c.765625 2.664063.230469 5.53125-1.4375 7.742188-1.671875 2.214844-4.28125 3.511719-7.054687 3.511719zm0 0" fill="#95a5a5"/><path d="m88.777344 61.792969h211.859375v44.136719h-211.859375zm0 0" fill="#2c3e50"/><path d="m.5 220.691406h388.414062v176.550782h-388.414062zm0 0" fill="#cc4b4c"/><path d="m53.464844 194.207031h-17.65625c-4.875 0-8.824219-3.953125-8.824219-8.828125s3.949219-8.828125 8.824219-8.828125h17.65625c4.875 0 8.828125 3.953125 8.828125 8.828125s-3.953125 8.828125-8.828125 8.828125zm0 0" fill="#35495e"/><path d="m274.15625 194.207031h-185.378906c-4.875 0-8.828125-3.953125-8.828125-8.828125s3.953125-8.828125 8.828125-8.828125h185.378906c4.875 0 8.828125 3.953125 8.828125 8.828125s-3.953125 8.828125-8.828125 8.828125zm0 0" fill="#35495e"/><path d="m353.601562 441.378906h-17.652343c-4.875 0-8.828125-3.953125-8.828125-8.828125s3.953125-8.828125 8.828125-8.828125h17.652343c4.878907 0 8.828126 3.953125 8.828126 8.828125s-3.949219 8.828125-8.828126 8.828125zm0 0" fill="#35495e"/><path d="m300.636719 441.378906h-185.378907c-4.875 0-8.828124-3.953125-8.828124-8.828125s3.953124-8.828125 8.828124-8.828125h185.378907c4.875 0 8.828125 3.953125 8.828125 8.828125s-3.953125 8.828125-8.828125 8.828125zm0 0" fill="#35495e"/><path d="m296.796875 365.144531c.09375-5.207031-.414063-10.410156-1.507813-15.5-2.753906-7.972656-4.789062-16.171875-6.082031-24.507812-.367187-8.269531.746094-16.539063 3.292969-24.417969 4.835938-16.179688 13.550781-30.894531 18.484375-47.058594 3.25-10.792968 5.691406-21.8125 7.308594-32.96875h-247.171875c1.617187 11.15625 4.058594 22.175782 7.308594 32.96875 4.933593 16.15625 13.648437 30.898438 18.484374 47.058594 2.542969 7.878906 3.660157 16.148438 3.292969 24.417969-1.292969 8.335937-3.328125 16.535156-6.082031 24.507812-1.09375 5.089844-1.601562 10.292969-1.507812 15.5zm0 0" fill="#cbb292"/><g fill="#7f6e5d"><path d="m194.707031 335.449219c-4.875 0-8.828125-3.953125-8.828125-8.828125v-8.828125c0-4.875 3.953125-8.828125 8.828125-8.828125s8.828125 3.953125 8.828125 8.828125v8.828125c0 4.875-3.953125 8.828125-8.828125 8.828125zm0 0"/><path d="m157.082031 344.539062c-4.363281-.003906-8.070312-3.195312-8.71875-7.511718-2.863281-19.011719-15.324219-19.234375-15.449219-19.234375-4.875 0-8.828124-3.953125-8.828124-8.828125s3.953124-8.828125 8.828124-8.828125c9.59375 0 28.832032 7.160156 32.910157 34.261719.347656 2.316406-.238281 4.675781-1.628907 6.558593-1.390624 1.882813-3.472656 3.136719-5.789062 3.488281-.4375.066407-.878906.097657-1.324219.09375zm0 0"/><path d="m232.328125 344.539062c-.441406.003907-.882813-.027343-1.320313-.09375-2.316406-.351562-4.398437-1.605468-5.789062-3.488281-1.390625-1.882812-1.976562-4.242187-1.628906-6.558593 4.078125-27.101563 23.316406-34.261719 32.910156-34.261719 4.875-.039063 8.859375 3.882812 8.898438 8.757812.039062 4.875-3.882813 8.859375-8.757813 8.898438-2.1875.089843-12.914063 1.472656-15.589844 19.234375-.648437 4.316406-4.355469 7.507812-8.722656 7.511718zm0 0"/><path d="m138.527344 282.746094c-9.894532-.621094-18.597656-6.769532-22.492188-15.886719-1.964844-4.425781 0-9.609375 4.410156-11.617187 4.40625-2.007813 9.605469-.089844 11.65625 4.296874.105469.222657 2.867188 5.5625 6.425782 5.5625.75 0 1.015625-.078124 3.410156-2.25 5.40625-5.578124 12.902344-8.644531 20.671875-8.449218 5.207031 0 5.613281-5.527344 5.613281-7.222656 0-4.875 3.953125-8.824219 8.828125-8.824219s8.828125 3.949219 8.828125 8.824219c.367188 6.425781-1.914062 12.722656-6.308594 17.421874-4.394531 4.699219-10.523437 7.394532-16.960937 7.457032-3.386719-.164063-6.652344 1.269531-8.828125 3.875-3.960938 4.230468-9.457031 6.6875-15.253906 6.8125zm0 0"/><path d="m250.886719 282.746094c-5.800781-.125-11.300781-2.585938-15.265625-6.820313-2.171875-2.605469-5.4375-4.039062-8.824219-3.878906-6.433594-.0625-12.5625-2.757813-16.957031-7.457031-4.394532-4.699219-6.671875-10.992188-6.304688-17.417969 0-4.875 3.953125-8.828125 8.828125-8.828125s8.828125 3.953125 8.828125 8.828125c.070313 3.25 1.109375 7.222656 5.613282 7.222656 7.769531-.195312 15.261718 2.867188 20.671874 8.445313 2.394532 2.171875 2.648438 2.253906 3.410157 2.253906 3.53125 0 6.363281-5.4375 6.390625-5.492188 1.292968-2.875 4.023437-4.84375 7.164062-5.160156 3.136719-.316406 6.207032 1.0625 8.050782 3.625 1.84375 2.558594 2.179687 5.90625.886718 8.78125-3.894531 9.125-12.59375 15.273438-22.492187 15.898438zm0 0"/></g><path d="m71.121094 326.621094h-35.3125c-4.875 0-8.824219-3.953125-8.824219-8.828125s3.949219-8.828125 8.824219-8.828125h14.003906l-2.589844-2.585938c-3.34375-3.464844-3.296875-8.96875.109375-12.375s8.910157-3.453125 12.375-.105468l17.65625 17.652343c2.523438 2.527344 3.277344 6.320313 1.910157 9.621094-1.363282 3.296875-4.582032 5.449219-8.152344 5.449219zm0 0" fill="#f0c419"/><path d="m53.464844 344.277344c-3.570313-.003906-6.789063-2.152344-8.152344-5.449219-1.367188-3.300781-.613281-7.097656 1.910156-9.621094l17.65625-17.65625c3.464844-3.34375 8.96875-3.296875 12.375.109375s3.453125 8.910156.109375 12.375l-17.65625 17.652344c-1.65625 1.65625-3.902343 2.585938-6.242187 2.589844zm0 0" fill="#f0c419"/><path d="m353.601562 326.621094h-35.308593c-3.570313 0-6.789063-2.152344-8.152344-5.449219-1.367187-3.300781-.613281-7.09375 1.910156-9.621094l17.65625-17.652343c3.464844-3.347657 8.96875-3.300782 12.375.105468s3.453125 8.910156.105469 12.375l-2.585938 2.585938h14c4.878907 0 8.828126 3.953125 8.828126 8.828125s-3.949219 8.828125-8.828126 8.828125zm0 0" fill="#f0c419"/><path d="m335.949219 344.277344c-2.34375-.003906-4.585938-.933594-6.242188-2.589844l-17.65625-17.652344c-3.34375-3.464844-3.296875-8.96875.109375-12.375s8.910156-3.453125 12.375-.109375l17.652344 17.65625c2.527344 2.523438 3.28125 6.320313 1.914062 9.621094-1.367187 3.296875-4.582031 5.445313-8.152343 5.449219zm0 0" fill="#f0c419"/><path d="m124.085938 61.792969h35.3125v44.136719h-35.3125zm0 0" fill="#35495e"/><path d="m194.707031 61.792969h35.308594v44.136719h-35.308594zm0 0" fill="#35495e"/><path d="m265.328125 61.792969h35.308594v44.136719h-35.308594zm0 0" fill="#35495e"/><path d="m132.914062 0h52.964844v61.792969h-52.964844zm0 0" fill="#bdc3c7"/><path d="m97.601562 361.929688h194.207032c4.878906 0 8.828125 3.953124 8.828125 8.828124v26.484376h-211.859375v-26.484376c0-4.875 3.949218-8.828124 8.824218-8.828124zm0 0" fill="#3d324c"/><path d="m177.050781 361.929688h35.3125v35.3125h-35.3125zm0 0" fill="#955ba5"/></svg>