<svg height="512pt" viewBox="-4 0 512 512.0001" width="512pt" xmlns="http://www.w3.org/2000/svg"><path d="m138.847656 399.1875h78.101563c9.554687.070312 17.285156 7.800781 17.355469 17.355469-.027344 9.574219-7.78125 17.328125-17.355469 17.355469h-86.085938" fill="#7f8c8d"/><path d="m477.289062 173.558594-24.800781 322.414062c-.695312 9.042969-8.234375 16.027344-17.304687 16.027344h-141.453125c-9.070313 0-16.609375-6.984375-17.300781-16.027344l-24.769532-322.414062zm0 0" fill="#90bae1"/><path d="m364.476562 512h-52.070312c-9.066406-.019531-16.589844-7.015625-17.269531-16.054688l-24.816407-322.386718h52.066407l24.820312 322.386718c.679688 9.039063 8.203125 16.035157 17.269531 16.054688zm0 0" fill="#b0d3f0"/><g fill="#2c3e50"><path d="m312.40625 485.964844c-4.582031.011718-8.382812-3.546875-8.675781-8.121094l-17.359375-269.015625c-.195313-3.101563 1.273437-6.074219 3.859375-7.792969 2.585937-1.722656 5.894531-1.933594 8.679687-.558594 2.78125 1.378907 4.621094 4.140626 4.820313 7.238282l17.355469 269.019531c.152343 2.300781-.621094 4.570313-2.144532 6.300781-1.523437 1.734375-3.675781 2.789063-5.980468 2.929688-.191407 0-.371094 0-.554688 0zm0 0"/><path d="m338.441406 242.984375h-41.742187c-4.792969 0-8.675781-3.886719-8.675781-8.679687 0-4.792969 3.882812-8.675782 8.675781-8.675782h41.742187c4.792969 0 8.675782 3.882813 8.675782 8.675782 0 4.792968-3.882813 8.679687-8.675782 8.679687zm0 0"/><path d="m338.441406 286.371094h-38.878906c-4.792969 0-8.675781-3.882813-8.675781-8.675782 0-4.792968 3.882812-8.679687 8.675781-8.679687h38.878906c4.792969 0 8.675782 3.886719 8.675782 8.679687 0 4.792969-3.882813 8.675782-8.675782 8.675782zm0 0"/><path d="m347.117188 329.761719h-44.777344c-4.792969 0-8.675782-3.882813-8.675782-8.675781 0-4.792969 3.882813-8.679688 8.675782-8.679688h44.777344c4.792968 0 8.679687 3.886719 8.679687 8.679688 0 4.792968-3.886719 8.675781-8.679687 8.675781zm0 0"/><path d="m347.117188 373.152344h-42c-4.792969 0-8.679688-3.886719-8.679688-8.679688 0-4.789062 3.886719-8.675781 8.679688-8.675781h42c4.792968 0 8.679687 3.886719 8.679687 8.675781 0 4.792969-3.886719 8.679688-8.679687 8.679688zm0 0"/><path d="m355.796875 416.542969h-47.902344c-4.792969 0-8.679687-3.886719-8.679687-8.679688s3.886718-8.675781 8.679687-8.675781h47.902344c4.792969 0 8.679687 3.882812 8.679687 8.675781s-3.886718 8.679688-8.679687 8.679688zm0 0"/><path d="m355.796875 459.933594h-45.039063c-4.792968 0-8.679687-3.886719-8.679687-8.679688 0-4.792968 3.886719-8.675781 8.679687-8.675781h45.039063c4.792969 0 8.679687 3.882813 8.679687 8.675781 0 4.792969-3.886718 8.679688-8.679687 8.679688zm0 0"/></g><path d="m260.339844 104.136719h208.269531c19.171875 0 34.710937 15.539062 34.710937 34.710937v30.371094c0 2.398438-1.941406 4.339844-4.335937 4.339844h-269.019531c-2.394532 0-4.335938-1.941406-4.335938-4.339844v-30.371094c0-19.171875 15.539063-34.710937 34.710938-34.710937zm0 0" fill="#c03a2b"/><path d="m321.085938 138.847656v30.371094c0 2.398438 1.941406 4.339844 4.335937 4.339844h-60.742187c-2.398438 0-4.339844-1.941406-4.339844-4.339844v-30.371094c0-19.171875 15.539062-34.710937 34.710937-34.710937h60.746094c-19.171875 0-34.710937 15.539062-34.710937 34.710937zm0 0" fill="#e64c3c"/><path d="m468.609375 104.136719s-6.421875-51.636719-69.421875-65.78125h-69.425781c-63 14.144531-69.421875 65.78125-69.421875 65.78125zm0 0" fill="#df4d60"/><path d="m407.863281 69.421875v-43.386719h-86.777343v43.386719c0 4.792969 3.882812 8.679687 8.675781 8.679687h69.425781c4.792969 0 8.675781-3.886718 8.675781-8.679687zm0 0" fill="#ff5364"/><path d="m92.097656 512h-45.347656c-12.125.003906-22.648438-8.363281-25.375-20.175781l-21.375-92.636719h138.847656l-21.375 92.636719c-2.726562 11.8125-13.25 20.179687-25.375 20.175781zm0 0" fill="#95a5a5"/><path d="m90.164062 512h-26.035156c-12.15625.023438-22.710937-8.371094-25.425781-20.21875l-21.347656-92.59375h26.035156l21.347656 92.59375c2.714844 11.847656 13.269531 20.242188 25.425781 20.21875zm0 0" fill="#bdc3c7"/><path d="m8.679688 399.1875v-25.425781c0-5.804688 2.902343-11.222657 7.730468-14.441407l15.621094-10.414062c1.761719-1.175781 3.277344-2.6875 4.449219-4.453125l6.640625-9.953125c5.582031-8.378906 14.984375-13.410156 25.054687-13.414062 11.390625.007812 21.800781 6.445312 26.898438 16.632812l4.601562 9.199219c2.71875 5.449219 8.289063 8.886719 14.378907 8.878906 4.273437-.003906 8.375 1.695313 11.398437 4.71875 3.023437 3.019531 4.71875 7.121094 4.714844 11.394531v27.277344" fill="#cbb292"/><path d="m347.117188 8.679688h34.714843c9.582031 0 17.355469 7.769531 17.355469 17.355468 0 9.585938-7.773438 17.355469-17.355469 17.355469h-34.714843c-9.582032 0-17.355469-7.769531-17.355469-17.355469 0-9.585937 7.773437-17.355468 17.355469-17.355468zm0 0" fill="#3d324c"/><path d="m381.832031 52.066406h-34.714843c-14.375 0-26.03125-11.65625-26.03125-26.03125 0-14.378906 11.65625-26.035156 26.03125-26.035156h34.714843c14.375 0 26.03125 11.65625 26.03125 26.035156 0 14.375-11.65625 26.03125-26.03125 26.03125zm-34.714843-34.710937c-4.792969 0-8.675782 3.886719-8.675782 8.679687 0 4.792969 3.882813 8.675782 8.675782 8.675782h34.714843c4.792969 0 8.675781-3.882813 8.675781-8.675782 0-4.792968-3.882812-8.679687-8.675781-8.679687zm0 0" fill="#fb7b76"/></svg>