<svg height="512pt" viewBox="0 0 512 512" width="512pt" xmlns="http://www.w3.org/2000/svg"><path d="m393.992188 512s97.105468-220.691406 35.3125-326.621094c-61.792969-105.929687-44.140626-185.378906-44.140626-185.378906h-258.328124s17.652343 79.449219-44.140626 185.378906c-61.792968 105.929688 35.3125 326.621094 35.3125 326.621094zm0 0" fill="#bea182"/><path d="m369.097656 512s79.582032-220.691406 28.9375-326.621094c-50.644531-105.929687-36.191406-185.378906-36.191406-185.378906h-211.703125s14.46875 79.449219-36.195313 185.378906c-50.660156 105.929688 28.9375 326.621094 28.9375 326.621094zm0 0" fill="#fdd7ad"/><path d="m273.65625 132.414062c0 9.75-7.90625 17.65625-17.65625 17.65625s-17.65625-7.90625-17.65625-17.65625" fill="#bea182"/><path d="m0 48.550781v26.484375c0 2.4375 1.976562 4.414063 4.414062 4.414063h35.308594c2.4375 0 4.414063 1.976562 4.414063 4.414062v12.640625c0 1.714844.988281 3.273438 2.539062 4 1.550781.730469 3.382813.496094 4.699219-.601562l41.660156-34.71875c1.003906-.839844 1.585938-2.082032 1.585938-3.390625 0-1.308594-.582032-2.550781-1.585938-3.390625l-41.660156-34.71875c-1.316406-1.097656-3.148438-1.332032-4.699219-.601563-1.550781.726563-2.539062 2.289063-2.539062 4v12.640625c0 2.4375-1.976563 4.414063-4.414063 4.414063h-35.308594c-2.4375 0-4.414062 1.976562-4.414062 4.414062zm0 0" fill="#ff5364"/><path d="m512 48.550781v26.484375c0 2.4375-1.976562 4.414063-4.414062 4.414063h-35.308594c-2.4375 0-4.414063 1.976562-4.414063 4.414062v12.640625c0 1.714844-.988281 3.273438-2.539062 4-1.550781.730469-3.382813.496094-4.699219-.601562l-41.660156-34.71875c-1.003906-.839844-1.585938-2.082032-1.585938-3.390625 0-1.308594.582032-2.550781 1.585938-3.390625l41.660156-34.71875c1.316406-1.097656 3.148438-1.332032 4.699219-.601563 1.550781.726563 2.539062 2.289063 2.539062 4v12.640625c0 2.4375 1.976563 4.414063 4.414063 4.414063h35.308594c2.4375 0 4.414062 1.976562 4.414062 4.414062zm0 0" fill="#ff5364"/><path d="m449.589844 264.738281c-8.296875-.617187-98.515625-7.503906-140.625 17.746094-11.386719 6.796875-20.480469 11.914063-27.542969 15.625-.261719.175781-.527344.261719-.792969.441406-1.765625.882813-3.355468 1.765625-4.855468 2.46875-12.4375 6.269531-27.109376 6.269531-39.546876 0-1.941406-.96875-4.148437-2.027343-6.445312-3.265625-7.0625-3.796875-15.800781-8.738281-26.746094-15.269531-42.109375-25.25-132.238281-18.363281-140.625-17.65625.304688-27.726563 7.269532-54.976563 20.304688-79.449219 1.765625-3.089844 3.53125-6.089844 5.121094-9.09375l.441406.265625c18.183594.707031 35.839844 9.535157 52.609375 15.890625 19.070312 7.238282 38.226562 15.976563 57.820312 21.804688 18.714844 4.746094 37.992188 6.917968 57.292969 6.445312 19.300781.472656 38.578125-1.699218 57.292969-6.445312 19.59375-5.828125 38.75-14.566406 57.820312-21.804688 16.769531-6.355468 34.425781-15.183594 52.609375-15.890625l.441406-.265625c1.589844 3.003906 3.355469 6.003906 5.121094 9.09375 13.035156 24.441406 20 51.660156 20.304688 79.359375zm0 0" fill="#c03a2b"/><path d="m414.542969 263.414062c-32.21875-.085937-78.742188 2.914063-105.578125 19.070313-11.386719 6.796875-20.480469 11.914063-27.542969 15.625-.261719.175781-.527344.261719-.792969.441406-1.765625.882813-3.355468 1.765625-4.855468 2.46875-12.4375 6.269531-27.109376 6.269531-39.546876 0-1.941406-.96875-4.148437-2.027343-6.445312-3.265625-7.0625-3.796875-15.800781-8.738281-26.746094-15.269531-26.835937-16.15625-73.359375-19.15625-105.578125-19.070313.175781-26.859374 5.789063-53.40625 16.507813-78.035156.441406-.96875.96875-1.941406 1.324218-2.914062 8.738282 3.089844 17.300782 6.796875 25.597657 9.976562 19.070312 7.238282 38.226562 15.976563 57.820312 21.804688 18.714844 4.746094 37.992188 6.917968 57.292969 6.445312 19.300781.472656 38.578125-1.699218 57.292969-6.445312 19.59375-5.828125 38.75-14.566406 57.820312-21.804688 8.296875-3.179687 16.859375-6.886718 25.597657-9.976562.355468.972656.882812 1.945312 1.324218 2.914062 10.71875 24.628906 16.332032 51.175782 16.507813 78.035156zm0 0" fill="#e64c3c"/><path d="m369.082031 512h-113.082031v-140.359375c5.988281-24.605469 13.6875-48.765625 23.039062-72.296875l1.589844-.792969c.265625-.179687.53125-.265625.792969-.441406 7.0625-3.710937 16.15625-8.828125 27.542969-15.625 26.835937-16.15625 73.359375-19.15625 105.578125-19.070313 4.503906 110.167969-45.460938 248.585938-45.460938 248.585938zm0 0" fill="#bea182"/><path d="m369.082031 512h-89.777343c-18.980469-97.984375 12.535156-194.207031 24.980468-226.691406 1.148438-.707032 2.386719-1.414063 3.621094-2.207032.351562-.175781.707031-.441406 1.058594-.617187 26.835937-16.15625 73.359375-19.15625 105.578125-19.070313 4.503906 110.167969-45.460938 248.585938-45.460938 248.585938zm0 0" fill="#fdd7ad"/><path d="m142.855469 512h113.082031v-140.359375c-5.988281-24.605469-13.683594-48.765625-23.039062-72.296875l-1.589844-.792969c-.265625-.179687-.527344-.265625-.792969-.441406-7.0625-3.710937-16.164063-8.828125-27.542969-15.625-26.835937-16.15625-73.355468-19.15625-105.585937-19.070313-4.492188 110.167969 45.46875 248.585938 45.46875 248.585938zm0 0" fill="#bea182"/><path d="m142.855469 512h89.777343c18.980469-97.984375-12.535156-194.207031-24.980468-226.691406-1.148438-.707032-2.382813-1.414063-3.621094-2.207032-.351562-.175781-.714844-.441406-1.058594-.617187-26.835937-16.15625-73.355468-19.15625-105.585937-19.070313-4.492188 110.167969 45.46875 248.585938 45.46875 248.585938zm0 0" fill="#fdd7ad"/><path d="m279.039062 299.34375c-9.351562 23.53125-17.050781 47.691406-23.039062 72.296875-6.011719-24.570313-13.710938-48.695313-23.039062-72.207031 1.148437.527344 2.207031 1.058594 3.265624 1.585937 12.4375 6.269531 27.109376 6.269531 39.546876 0 1.058593-.527343 2.117187-1.058593 3.265624-1.675781zm0 0" fill="#2c3e50"/></svg>