<svg height="512pt" viewBox="-22 0 512 512" width="512pt" xmlns="http://www.w3.org/2000/svg"><path d="m157.859375 125.996094c-78.101563-8.679688-60.746094-86.78125-60.746094-86.78125 73.070313-19.957032 105.527344 31.414062 116.632813 56.496094h41.132812c11.109375-25.082032 43.566406-76.453126 116.632813-56.496094 0 0 17.355469 78.101562-60.746094 86.78125l-76.453125 69.421875zm0 0" fill="#24ae5f"/><path d="m310.765625 125.996094-76.453125 69.421875-76.453125-69.421875c-63.695313-7.117188-63.867187-60.3125-61.785156-79.75 2.601562 23.253906 15.273437 53.109375 61.785156 58.226562l76.453125 69.425782 76.453125-69.425782c46.515625-5.117187 59.183594-34.972656 61.789063-58.226562 2.082031 19.4375 1.910156 72.640625-61.789063 79.75zm0 0" fill="#4c8056"/><path d="m459.933594 242.984375v65.082031c-.035156 51.820313-20.652344 101.503906-57.320313 138.121094-36.664062 36.617188-86.375 57.167969-138.195312 57.132812h-4.078125c-14.378906 0-26.035156-11.652343-26.035156-26.03125 0 14.378907-11.65625 26.03125-26.035157 26.03125h-4.078125c-51.816406.035157-101.527344-20.515624-138.195312-57.132812-36.664063-36.617188-57.285156-86.300781-57.316406-138.121094v-65.082031c.023437-71.882813 58.285156-130.148437 130.167968-130.171875h35.320313c15.9375-.011719 31.230469 6.308594 42.507812 17.570312 11.277344 11.261719 17.621094 26.542969 17.628907 42.480469.007812-15.9375 6.351562-31.21875 17.628906-42.480469 11.28125-11.261718 26.570312-17.582031 42.511718-17.570312h35.316407c71.882812.023438 130.148437 58.289062 130.171875 130.171875zm0 0" fill="#f5efca"/><path d="m433.898438 242.984375v65.082031c0 107.867188-77.460938 195.253906-172.953126 195.253906h-3.609374c-13.535157-.859374-23.828126-12.496093-23.03125-26.03125.796874 13.535157-9.496094 25.171876-23.03125 26.03125h-3.609376c-95.492187 0-172.953124-87.386718-172.953124-195.253906v-65.082031c0-71.855469 51.589843-130.171875 115.148437-130.171875h31.242187c29.410157 0 53.203126 26.902344 53.203126 60.050781 0-33.148437 23.796874-60.050781 53.195312-60.050781h31.242188c63.566406 0 115.15625 58.316406 115.15625 130.171875zm0 0" fill="#f5efca"/><g fill="#c03a2b"><path d="m208.269531 512h-4.078125c-112.644531-.058594-203.992187-91.285156-204.191406-203.933594v-65.082031c.0898438-76.648437 62.203125-138.757813 138.847656-138.847656h35.320313c4.792969 0 8.675781 3.882812 8.675781 8.675781s-3.882812 8.679688-8.675781 8.679688h-35.320313c-67.070312.070312-121.421875 54.421874-121.492187 121.492187v65.082031c.1875 103.070313 83.769531 186.535156 186.835937 186.578125h4.078125c4.792969 0 8.679688 3.886719 8.679688 8.675781 0 4.792969-3.886719 8.679688-8.679688 8.679688zm0 0"/><path d="m264.417969 512h-4.078125c-4.792969 0-8.679688-3.886719-8.679688-8.679688 0-4.789062 3.886719-8.675781 8.679688-8.675781h4.078125c103.066406-.042969 186.648437-83.507812 186.835937-186.578125v-65.082031c-.070312-67.070313-54.421875-121.421875-121.492187-121.492187h-35.316407c-4.792968 0-8.679687-3.886719-8.679687-8.679688s3.886719-8.675781 8.679687-8.675781h35.316407c76.648437.089843 138.757812 62.199219 138.847656 138.847656v65.082031c-.199219 112.648438-91.542969 203.875-204.191406 203.933594zm0 0"/><path d="m208.269531 512c-4.792969 0-8.675781-3.886719-8.675781-8.679688 0-4.789062 3.882812-8.675781 8.675781-8.675781 9.585938 0 17.359375-7.769531 17.359375-17.355469 0-4.792968 3.882813-8.679687 8.675782-8.679687 4.792968 0 8.679687 3.886719 8.679687 8.679687 0 19.167969-15.542969 34.710938-34.714844 34.710938zm0 0"/><path d="m260.339844 512c-19.171875 0-34.710938-15.542969-34.710938-34.710938 0-4.792968 3.882813-8.679687 8.675782-8.679687 4.792968 0 8.679687 3.886719 8.679687 8.679687 0 9.585938 7.769531 17.355469 17.355469 17.355469 4.792968 0 8.675781 3.886719 8.675781 8.675781 0 4.792969-3.882813 8.679688-8.675781 8.679688zm0 0"/></g><path d="m335.265625 327.160156-2.109375 2.089844-88.367188 87.648438c-6.09375 5.945312-15.8125 5.945312-21.902343 0l-88.472657-87.75c-28.203124-27.546876-28.855468-72.703126-1.457031-101.046876 27.617188-26.644531 71.445313-26.40625 98.769531.535157l2.109376 2.09375 2.109374-2.09375c27.539063-27.152344 71.78125-27.152344 99.320313 0 13.140625 13.027343 20.53125 30.761719 20.53125 49.261719 0 18.503906-7.390625 36.238281-20.53125 49.261718zm0 0" fill="#df4d60"/><path d="m320.839844 334.832031-1.804688 1.917969-75.738281 80.519531c-2.425781 2.613281-5.828125 4.09375-9.390625 4.09375s-6.964844-1.480469-9.390625-4.09375l-75.835937-80.5625c-24.203126-26.039062-24.742188-66.175781-1.25-92.855469 11-11.710937 26.378906-18.308593 42.445312-18.214843 16.0625.09375 31.363281 6.871093 42.226562 18.707031l1.804688 1.917969 1.804688-1.917969c10.941406-11.917969 26.382812-18.707031 42.566406-18.707031 16.179687 0 31.621094 6.789062 42.5625 18.707031 23.460937 25.601562 23.460937 64.886719 0 90.488281zm0 0" fill="#ff5364"/><path d="m234.304688 373.152344c-4.792969 0-8.675782-3.886719-8.675782-8.679688v-95.457031c0-4.792969 3.882813-8.675781 8.675782-8.675781 4.792968 0 8.679687 3.882812 8.679687 8.675781v95.457031c0 4.792969-3.886719 8.679688-8.679687 8.679688zm0 0" fill="#f5efca"/><path d="m190.914062 321.085938c-3.003906-.003907-5.796874-1.558594-7.375-4.117188-1.582031-2.558594-1.726562-5.75-.382812-8.441406l8.679688-17.355469c2.140624-4.289063 7.355468-6.03125 11.644531-3.886719 4.289062 2.140625 6.03125 7.355469 3.886719 11.644532l-8.675782 17.355468c-1.472656 2.945313-4.484375 4.804688-7.777344 4.800782zm0 0" fill="#804537"/><path d="m277.695312 321.085938c-3.304687.015624-6.332031-1.84375-7.8125-4.800782l-8.675781-17.355468c-2.144531-4.289063-.402343-9.503907 3.886719-11.644532 4.289062-2.144531 9.503906-.402344 11.648438 3.886719l8.675781 17.355469c1.339843 2.683594 1.203125 5.871094-.371094 8.425781-1.570313 2.554687-4.351563 4.117187-7.351563 4.132813zm0 0" fill="#804537"/><path d="m259.125 19.542969-6.683594 105.6875c-7.492187 6.125-13.664062 13.710937-18.136718 22.296875-4.472657-8.585938-10.640626-16.171875-18.136719-22.296875l-6.683594-105.6875c-.441406-4.929688 1.171875-9.820313 4.457031-13.519531 3.285156-3.703126 7.953125-5.878907 12.902344-6.023438h14.925781c4.945313.144531 9.613281 2.320312 12.898438 6.023438 3.285156 3.699218 4.898437 8.589843 4.457031 13.519531zm0 0" fill="#804537"/><path d="m234.304688 196.589844c-4.792969 0-8.675782-3.882813-8.675782-8.675782v-15.023437c-.058594-28.398437-23.097656-51.394531-51.496094-51.398437-4.792968 0-8.679687-3.886719-8.679687-8.679688s3.886719-8.675781 8.679687-8.675781c37.980469.011719 68.785157 30.773437 68.851563 68.753906v15.023437c0 4.792969-3.886719 8.675782-8.679687 8.675782zm0 0" fill="#c03a2b"/><path d="m234.304688 196.589844c-4.792969 0-8.675782-3.882813-8.675782-8.675782v-15.023437c.066406-37.980469 30.867188-68.742187 68.847656-68.753906 4.792969 0 8.679688 3.882812 8.679688 8.675781s-3.886719 8.679688-8.679688 8.679688c-28.398437.003906-51.4375 23-51.492187 51.398437v15.023437c0 4.792969-3.886719 8.675782-8.679687 8.675782zm0 0" fill="#c03a2b"/></svg>