<svg height="512pt" viewBox="0 0 512.02083 512" width="512pt" xmlns="http://www.w3.org/2000/svg"><path d="m56.074219 458.957031c-18.75-14.984375-29.636719-37.703125-29.570313-61.707031.003906-37.082031 25.640625-69.238281 61.792969-77.503906 11.628906-2.589844 23.683594-2.589844 35.308594 0 32.554687 7.429687 56.988281 34.417968 61.152343 67.542968 4.167969 33.128907-12.824218 65.328126-42.523437 80.582032" fill="#cbb292"/><path d="m123.605469 319.746094v146.183594l-35.308594-3.617188v-142.566406c11.628906-2.589844 23.683594-2.589844 35.308594 0zm0 0" fill="#7f6e5d"/><path d="m300.160156.0117188h141.238282c9.753906 0 17.65625 7.9023432 17.65625 17.6523432v44.140626c0 4.875-3.953126 8.828124-8.828126 8.828124h-158.894531c-4.875 0-8.828125-3.953124-8.828125-8.828124v-44.140626c0-9.75 7.902344-17.6523432 17.65625-17.6523432zm0 0" fill="#7f8c8d"/><path d="m240.925781 502.652344c6.507813 6.027344 15.054688 9.371094 23.921875 9.359375h211.863282c19.5 0 35.308593-15.808594 35.308593-35.3125v-308.964844c0-29.25-23.710937-52.964844-52.964843-52.964844-9.71875-.074219-17.582032-7.933593-17.65625-17.65625v-26.480469h-141.238282v26.480469c-.03125 9.738281-7.917968 17.625-17.65625 17.65625-29.234375.042969-52.921875 23.730469-52.964844 52.964844v292.898437" fill="#2c3e50"/><path d="m317.8125.0117188h35.3125v70.6210932h-35.3125zm0 0" fill="#95a5a5"/><path d="m132.433594 459.042969h88.277344c14.625 0 26.480468 11.859375 26.480468 26.484375s-11.855468 26.484375-26.480468 26.484375h-88.277344c-14.625 0-26.480469-11.859375-26.480469-26.484375s11.855469-26.484375 26.480469-26.484375zm0 0" fill="#2980ba"/><path d="m370.78125 70.632812v441.378907h-105.933594c-8.867187.011719-17.414062-3.332031-23.921875-9.359375l-11.386719-42.019532v-292.898437c.042969-29.234375 23.730469-52.921875 52.964844-52.964844 9.738282-.03125 17.625-7.917969 17.65625-17.65625v-26.480469zm0 0" fill="#35495e"/><path d="m229.539062 185.390625h282.480469v247.171875h-282.480469zm0 0" fill="#556080"/><path d="m247.191406 485.527344c0 14.625-11.855468 26.484375-26.480468 26.484375h-44.136719v-52.96875h44.136719c14.625 0 26.480468 11.859375 26.480468 26.484375zm0 0" fill="#cc66a1"/><path d="m19.765625 459.816406 85.359375-22.421875c14.144531-3.714843 28.621094 4.738281 32.335938 18.882813 3.714843 14.140625-4.738282 28.621094-18.878907 32.335937l-85.363281 22.421875c-14.144531 3.714844-28.621094-4.742187-32.335938-18.882812-3.714843-14.144532 4.738282-28.621094 18.882813-32.335938zm0 0" fill="#2980ba"/><path d="m137.5 456.398438c1.785156 6.792968.800781 14.015624-2.742188 20.082031-3.539062 6.066406-9.34375 10.476562-16.136718 12.261719l-42.683594 11.183593-13.453125-51.199219 42.691406-11.222656c14.140625-3.703125 28.613281 4.753906 32.324219 18.894532zm0 0" fill="#cc66a1"/><path d="m370.78125 185.390625h141.238281v247.171875h-141.238281zm0 0" fill="#35495e"/><path d="m404.792969 397.25h-68.027344c-2.394531 0-4.691406-.972656-6.355469-2.699219l-27.78125-28.804687c-1.585937-1.644532-2.46875-3.839844-2.46875-6.125v-101.289063c0-2.285156.882813-4.480469 2.46875-6.125l27.78125-28.804687c1.664063-1.726563 3.960938-2.703125 6.355469-2.703125h68.027344c2.398437 0 4.691406.976562 6.355469 2.703125l28.6875 29.746094c1.671874 1.660156 2.578124 3.933593 2.507812 6.285156-1.234375 20.4375-21.183594 25.230468-31.300781 14.71875l-14.894531-15.441406c-1.664063-1.726563-3.957032-2.699219-6.355469-2.699219h-38.027344c-2.398437 0-4.691406.972656-6.355469 2.699219l-7.46875 7.742187c-1.585937 1.644531-2.472656 3.839844-2.472656 6.125v72.792969c0 2.285156.886719 4.480468 2.472656 6.128906l7.46875 7.738281c1.664063 1.726563 3.957032 2.703125 6.355469 2.703125h38.027344c2.398437 0 4.691406-.976562 6.355469-2.703125l18.257812-18.925781c1.59375-1.726562 3.828125-2.710938 6.179688-2.726562 20.539062.441406 25.996093 20.234374 15.886718 30.730468l-25.296875 26.234375c-1.671875 1.734375-3.976562 2.707031-6.382812 2.699219zm0 0" fill="#f0c419"/></svg>