<svg height="512pt" viewBox="0 0 512 512.00005" width="512pt" xmlns="http://www.w3.org/2000/svg"><path d="m300.019531 0h141.242188c9.75 0 17.652343 7.90625 17.652343 17.65625v44.136719c0 4.875-3.949218 8.828125-8.824218 8.828125h-158.898438c-4.875 0-8.828125-3.953125-8.828125-8.828125v-44.136719c0-9.75 7.90625-17.65625 17.65625-17.65625zm0 0" fill="#7f8c8d"/><path d="m240.785156 502.644531c6.507813 6.027344 15.054688 9.371094 23.925782 9.355469h211.859374c19.503907 0 35.3125-15.808594 35.3125-35.308594v-308.96875c0-29.25-23.714843-52.964844-52.96875-52.964844-9.71875-.070312-17.582031-7.933593-17.652343-17.65625v-26.480468h-141.242188v26.480468c-.027343 9.742188-7.917969 17.628907-17.65625 17.65625-29.234375.042969-52.921875 23.730469-52.964843 52.964844v292.902344" fill="#2c3e50"/><path d="m317.675781 0h35.308594v70.621094h-35.308594zm0 0" fill="#95a5a5"/><path d="m370.640625 70.621094v441.378906h-105.929687c-8.871094.015625-17.417969-3.328125-23.925782-9.355469l-11.386718-42.019531v-292.902344c.042968-29.234375 23.730468-52.921875 52.964843-52.964844 9.738281-.027343 17.628907-7.914062 17.65625-17.65625v-26.480468zm0 0" fill="#35495e"/><path d="m229.398438 185.378906h282.484374v247.171875h-282.484374zm0 0" fill="#556080"/><path d="m370.640625 185.378906h141.242187v247.171875h-141.242187zm0 0" fill="#35495e"/><path d="m404.652344 397.242188h-68.023438c-2.398437 0-4.695312-.976563-6.355468-2.703126l-27.78125-28.804687c-1.585938-1.644531-2.472657-3.839844-2.472657-6.125v-101.289063c0-2.285156.886719-4.480468 2.472657-6.125l27.78125-28.804687c1.660156-1.726563 3.957031-2.699219 6.355468-2.699219h68.023438c2.398437 0 4.691406.972656 6.355468 2.699219l28.691407 29.75c1.667969 1.65625 2.578125 3.933594 2.507812 6.285156-1.238281 20.433594-21.1875 25.230469-31.304687 14.714844l-14.890625-15.4375c-1.664063-1.726563-3.960938-2.703125-6.355469-2.703125h-38.03125c-2.398438 0-4.691406.976562-6.355469 2.703125l-7.46875 7.738281c-1.585937 1.648438-2.472656 3.84375-2.472656 6.128906v72.792969c0 2.285157.886719 4.480469 2.472656 6.125l7.46875 7.742188c1.664063 1.726562 3.957031 2.699219 6.355469 2.699219h38.03125c2.394531 0 4.691406-.972657 6.355469-2.699219l18.253906-18.925781c1.59375-1.726563 3.832031-2.714844 6.179687-2.730469 20.542969.441406 25.996094 20.234375 15.890626 30.730469l-25.300782 26.234374c-1.671875 1.734376-3.976562 2.710938-6.382812 2.703126zm0 0" fill="#f0c419"/><path d="m344.15625 339.863281c-.085938 73.300781-46.636719 138.484375-115.941406 162.355469-69.304688 23.875-146.121094 1.179688-191.332032-56.519531-45.207031-57.699219-48.863281-137.714844-9.105468-199.296875 39.757812-61.582032 114.183594-91.1875 185.378906-73.734375 76.945312 18.9375 131.019531 87.953125 131 167.195312zm0 0" fill="#e57e25"/><path d="m300.019531 322.207031c-.046875 52.882813-24.378906 102.8125-65.996093 135.4375-41.617188 32.625-95.914063 44.332031-147.277344 31.757813-74.515625-42.609375-106.273438-133.585938-74.453125-213.308594 31.816406-79.722656 117.488281-123.835938 200.863281-103.425781 53.71875 30.617187 86.878906 87.707031 86.863281 149.539062zm0 0" fill="#f29c1f"/><g fill="#d25627"><path d="m140.335938 237.019531c-3.128907.003907-6.027344-1.652343-7.617188-4.351562-3.609375-6.796875-10.414062-11.304688-18.078125-11.976563-4.875 0-8.828125-3.953125-8.828125-8.828125s3.953125-8.828125 8.828125-8.828125c13.9375.648438 26.539063 8.476563 33.296875 20.683594 1.605469 2.726562 1.625 6.105469.054688 8.855469-1.570313 2.746093-4.488282 4.445312-7.65625 4.445312zm0 0"/><path d="m114.640625 300.136719c-4.875 0-8.828125-3.949219-8.828125-8.828125-.546875-16.609375 11.503906-30.964844 27.957031-33.304688.996094-.273437 1.863281-.46875 2.480469-.714844 4.480469-1.761718 9.550781.390626 11.390625 4.84375 1.839844 4.449219-.226563 9.550782-4.644531 11.46875-1.527344.574219-3.089844 1.0625-4.671875 1.457032-8.976563 2.390625-14.855469 4.820312-14.855469 16.25 0 4.878906-3.953125 8.828125-8.828125 8.828125zm0 0"/><path d="m211.742188 282.484375c-3.359376.015625-6.441407-1.875-7.945313-4.882813-3.410156-7.300781-10.5-12.1875-18.535156-12.773437-4.875 0-8.828125-3.953125-8.828125-8.828125s3.953125-8.828125 8.828125-8.828125c14.738281.628906 27.953125 9.277344 34.425781 22.539063 1.371094 2.742187 1.21875 6-.398438 8.605468-1.621093 2.605469-4.476562 4.183594-7.546874 4.167969zm0 0"/><path d="m177.21875 237.019531c-3.238281 0-6.214844-1.777343-7.753906-4.625-1.542969-2.847656-1.402344-6.308593.367187-9.019531 9.566407-13.511719 25.378907-21.183594 41.910157-20.339844 4.875 0 8.828124 3.953125 8.828124 8.828125s-3.953124 8.828125-8.828124 8.828125c-10.5625-.824218-20.808594 3.84375-27.117188 12.355469-1.640625 2.492187-4.425781 3.984375-7.40625 3.972656zm0 0"/><path d="m229.398438 423.722656c-2.339844-.011718-4.585938-.929687-6.265626-2.558594l-1.0625-1.324218c-.332031-.492188-.601562-1.027344-.792968-1.589844-.253906-.5-.433594-1.035156-.53125-1.589844-.101563-.582031-.160156-1.171875-.175782-1.761718.015626-1.15625.253907-2.296876.707032-3.355469.425781-1.082031 1.054687-2.070313 1.855468-2.914063 3.539063-3.265625 8.992188-3.265625 12.535157 0 .796875.84375 1.425781 1.832032 1.851562 2.914063.453125 1.058593.691407 2.199219.707031 3.355469-.015624.589843-.074218 1.179687-.1875 1.761718-.085937.554688-.261718 1.09375-.519531 1.589844-.195312.5625-.464843 1.097656-.792969 1.589844l-1.058593 1.324218c-1.695313 1.613282-3.933594 2.527344-6.269531 2.558594zm0 0"/><path d="m255.882812 397.242188c-2.34375-.015626-4.585937-.933594-6.269531-2.5625l-1.058593-1.324219c-.335938-.488281-.601563-1.023438-.792969-1.585938-.257813-.5-.433594-1.035156-.53125-1.589843-.101563-.582032-.160157-1.175782-.175781-1.765626.011718-1.152343.253906-2.292968.707031-3.355468.425781-1.078125 1.054687-2.070313 1.851562-2.914063 3.539063-3.265625 8.996094-3.265625 12.535157 0 .796874.84375 1.429687 1.835938 1.855468 2.914063.453125 1.0625.691406 2.203125.707032 3.355468-.015626.59375-.078126 1.183594-.1875 1.765626-.089844.554687-.265626 1.089843-.519532 1.589843-.199218.558594-.464844 1.09375-.796875 1.585938l-1.058593 1.324219c-1.691407 1.613281-3.929688 2.527343-6.265626 2.5625zm0 0"/><path d="m202.914062 450.101562c-2.339843-.019531-4.582031-.933593-6.265624-2.5625-.351563-.453124-.707032-.894531-1.058594-1.320312-.335938-.496094-.601563-1.035156-.796875-1.601562-.253907-.5-.433594-1.035157-.527344-1.585938-.101563-.585938-.164063-1.175781-.175781-1.765625.011718-1.15625.25-2.300781.703125-3.363281.425781-1.078125 1.054687-2.066406 1.855469-2.90625 3.535156-3.273438 9-3.273438 12.535156 0 .800781.839844 1.429687 1.828125 1.855468 2.90625.453126 1.0625.691407 2.207031.703126 3.363281-.011719.589844-.074219 1.183594-.183594 1.765625-.089844.550781-.265625 1.089844-.519532 1.585938-.199218.566406-.464843 1.101562-.796874 1.601562-.351563.425781-.707032.867188-1.058594 1.320312-1.695313 1.609376-3.929688 2.523438-6.269532 2.5625zm0 0"/><path d="m255.882812 450.101562c-2.339843-.019531-4.585937-.933593-6.269531-2.5625-.351562-.453124-.707031-.894531-1.058593-1.320312-.335938-.496094-.601563-1.035156-.792969-1.601562-.257813-.5-.433594-1.035157-.53125-1.585938-.101563-.585938-.160157-1.175781-.175781-1.765625.011718-1.15625.253906-2.300781.707031-3.363281.421875-1.078125 1.050781-2.066406 1.851562-2.90625 3.539063-3.273438 9-3.273438 12.535157 0 .800781.839844 1.429687 1.828125 1.855468 2.90625.453125 1.0625.691406 2.207031.707032 3.363281-.015626.589844-.078126 1.183594-.1875 1.765625-.089844.550781-.265626 1.089844-.519532 1.585938-.195312.566406-.464844 1.101562-.796875 1.601562-.351562.425781-.703125.867188-1.058593 1.320312-1.695313 1.609376-3.929688 2.523438-6.265626 2.5625zm0 0"/><path d="m282.363281 423.722656c-2.339843-.011718-4.585937-.929687-6.265625-2.558594l-1.058594-1.324218c-.335937-.492188-.601562-1.027344-.796874-1.589844-.253907-.5-.433594-1.035156-.527344-1.589844-.105469-.582031-.164063-1.171875-.179688-1.761718.015625-1.15625.253906-2.296876.707032-3.355469.425781-1.082031 1.054687-2.070313 1.855468-2.914063 3.539063-3.265625 8.996094-3.265625 12.535156 0 .796876.84375 1.425782 1.832032 1.851563 2.914063.453125 1.058593.695313 2.199219.707031 3.355469-.011718.589843-.074218 1.179687-.183594 1.761718-.089843.554688-.265624 1.09375-.523437 1.589844-.195313.5625-.460937 1.097656-.792969 1.589844l-1.058594 1.324218c-1.695312 1.613282-3.929687 2.527344-6.269531 2.558594zm0 0"/><path d="m300.019531 388.414062c-2.339843-.015624-4.585937-.929687-6.269531-2.558593l-1.058594-1.324219c-.332031-.492188-.601562-1.027344-.792968-1.589844-.253907-.5-.433594-1.035156-.53125-1.589844-.101563-.582031-.160157-1.171874-.175782-1.765624.015625-1.152344.253906-2.292969.707032-3.355469.425781-1.078125 1.054687-2.066407 1.851562-2.910157 3.542969-3.269531 8.996094-3.269531 12.535156 0 .800782.84375 1.429688 1.832032 1.855469 2.910157.453125 1.0625.691406 2.203125.707031 3.355469-.015625.59375-.078125 1.183593-.1875 1.765624-.085937.554688-.261718 1.089844-.519531 1.589844-.195313.558594-.464844 1.09375-.792969 1.589844l-1.0625 1.324219c-1.691406 1.609375-3.929687 2.523437-6.265625 2.558593zm0 0"/><path d="m229.398438 476.582031c-2.339844-.015625-4.582032-.933593-6.265626-2.558593-.355468-.453126-.707031-.894532-1.0625-1.324219-.332031-.496094-.601562-1.03125-.792968-1.597657-.253906-.5-.433594-1.035156-.53125-1.589843-.101563-.582031-.160156-1.171875-.175782-1.765625.011719-1.15625.253907-2.296875.707032-3.363282.425781-1.078124 1.054687-2.0625 1.855468-2.902343 3.535157-3.277344 8.996094-3.277344 12.535157 0 .796875.839843 1.425781 1.824219 1.851562 2.902343.453125 1.066407.695313 2.207032.707031 3.363282-.015624.59375-.074218 1.183594-.1875 1.765625-.085937.554687-.261718 1.089843-.519531 1.589843-.195312.5625-.460937 1.101563-.792969 1.597657-.355468.429687-.707031.871093-1.058593 1.324219-1.695313 1.609374-3.933594 2.523437-6.269531 2.558593zm0 0"/><path d="m185.261719 485.515625c-2.34375-.011719-4.585938-.929687-6.269531-2.558594l-1.058594-1.324219c-.335938-.492187-.601563-1.027343-.792969-1.589843-.257813-.5-.433594-1.035157-.53125-1.585938-.101563-.585937-.160156-1.175781-.175781-1.765625.011718-1.15625.253906-2.296875.707031-3.355468.425781-1.082032 1.054687-2.070313 1.851563-2.914063 3.542968-3.265625 8.996093-3.265625 12.535156 0 .800781.84375 1.429687 1.832031 1.855468 2.914063.453126 1.058593.691407 2.199218.707032 3.355468-.015625.589844-.078125 1.179688-.1875 1.765625-.085938.550781-.261719 1.089844-.519532 1.585938-.199218.5625-.464843 1.097656-.796874 1.589843l-1.058594 1.324219c-1.691406 1.613281-3.929688 2.527344-6.265625 2.558594zm0 0"/></g><path d="m185.261719 247.171875c0 14.625-11.859375 26.484375-26.484375 26.484375s-26.480469-11.859375-26.480469-26.484375 11.855469-26.480469 26.480469-26.480469 26.484375 11.855469 26.484375 26.480469zm0 0" fill="#24ae5f"/></svg>