<svg height="512pt" viewBox="-35 0 512 512" width="512pt" xmlns="http://www.w3.org/2000/svg"><path d="m273.65625 308.964844v203.035156h-26.484375c-9.738281-.027344-17.625-7.917969-17.65625-17.65625v-308.964844c0 31.78125 35.664063 56.410156 42.902344 105.929688.832031 5.851562 1.246093 11.75 1.238281 17.65625zm0 0" fill="#285680"/><path d="m441.378906 185.378906v308.964844c-.027344 9.738281-7.917968 17.628906-17.65625 17.65625h-26.480468v-203.035156c-.007813-5.90625.402343-11.804688 1.234374-17.65625 7.238282-49.519532 42.902344-74.148438 42.902344-105.929688zm0 0" fill="#285680"/><path d="m300.136719 35.308594h70.621093c9.75 0 17.65625 7.90625 17.65625 17.65625v35.3125h-105.929687v-35.3125c0-9.75 7.902344-17.65625 17.652344-17.65625zm0 0" fill="#894b9d"/><path d="m317.792969 0h35.308593c9.753907 0 17.65625 7.90625 17.65625 17.65625v17.652344h-70.621093v-17.652344c0-9.75 7.90625-17.65625 17.65625-17.65625zm0 0" fill="#3d324c"/><path d="m273.65625 308.964844h-44.140625v-17.65625h42.902344c.832031 5.851562 1.246093 11.75 1.238281 17.65625zm0 0" fill="#2c3e50"/><path d="m229.515625 326.621094h44.140625v17.65625h-44.140625zm0 0" fill="#2c3e50"/><path d="m229.515625 361.929688h44.140625v17.65625h-44.140625zm0 0" fill="#2c3e50"/><path d="m229.515625 397.242188h44.140625v17.65625h-44.140625zm0 0" fill="#2c3e50"/><path d="m229.515625 432.550781h44.140625v17.65625h-44.140625zm0 0" fill="#2c3e50"/><path d="m229.515625 467.863281h44.140625v17.652344h-44.140625zm0 0" fill="#2c3e50"/><path d="m391.148438 122.085938c-7.226563-4.90625-11.554688-13.070313-11.5625-21.804688v-12.003906h-88.277344v12.003906c-.003906 8.734375-4.335938 16.898438-11.5625 21.804688-17.832032 12.183593-50.230469 37.695312-50.230469 63.292968 0 31.78125 35.664063 56.410156 42.902344 105.929688.832031 5.851562 1.246093 11.75 1.238281 17.65625v203.035156h123.585938v-203.035156c-.007813-5.90625.402343-11.804688 1.234374-17.65625 7.238282-49.519532 42.902344-74.148438 42.902344-105.929688 0-25.597656-32.398437-51.109375-50.230468-63.292968zm0 0" fill="#4482c3"/><path d="m441.378906 291.308594v17.65625h-44.136718c-.007813-5.90625.402343-11.804688 1.234374-17.65625zm0 0" fill="#2c3e50"/><path d="m397.242188 326.621094h44.136718v17.65625h-44.136718zm0 0" fill="#2c3e50"/><path d="m397.242188 361.929688h44.136718v17.65625h-44.136718zm0 0" fill="#2c3e50"/><path d="m397.242188 397.242188h44.136718v17.65625h-44.136718zm0 0" fill="#2c3e50"/><path d="m397.242188 432.550781h44.136718v17.65625h-44.136718zm0 0" fill="#2c3e50"/><path d="m397.242188 467.863281h44.136718v17.652344h-44.136718zm0 0" fill="#2c3e50"/><path d="m308.964844 35.308594h35.3125v52.96875h-35.3125zm0 0" fill="#b49aca"/><path d="m388.414062 185.378906c0 29.253906-23.714843 52.964844-52.964843 52.964844-29.253907 0-52.964844-23.710938-52.964844-52.964844 0-29.25 23.710937-52.964844 52.964844-52.964844 29.25 0 52.964843 23.714844 52.964843 52.964844zm0 0" fill="#b49aca"/><path d="m335.449219 247.171875c-34.128907 0-61.792969-27.664063-61.792969-61.792969s27.664062-61.792968 61.792969-61.792968c34.125 0 61.792969 27.664062 61.792969 61.792968-.039063 34.113282-27.683594 61.753906-61.792969 61.792969zm0-105.929687c-24.378907 0-44.140625 19.761718-44.140625 44.136718 0 24.378906 19.761718 44.136719 44.140625 44.136719 24.375 0 44.136719-19.757813 44.136719-44.136719-.027344-24.363281-19.773438-44.109375-44.136719-44.136718zm0 0" fill="#894b9d"/><path d="m353.101562 203.035156c-.722656.003906-1.441406-.085937-2.144531-.265625l-35.308593-8.828125c-2.832032-.707031-5.132813-2.773437-6.140626-5.511718-1.007812-2.742188-.597656-5.800782 1.101563-8.179688l44.136719-61.792969c1.777344-2.703125 4.890625-4.214843 8.113281-3.941406 3.222656.269531 6.039063 2.285156 7.339844 5.246094 1.304687 2.960937.878906 6.394531-1.101563 8.953125l-36.597656 51.246094 22.730469 5.683593c4.320312 1.082031 7.15625 5.214844 6.617187 9.632813-.542968 4.421875-4.289062 7.746094-8.746094 7.757812zm0 0" fill="#f0c419"/><path d="m308.964844 264.828125c-3.300782-.007813-6.324219-1.855469-7.835938-4.796875-1.507812-2.9375-1.25-6.472656.667969-9.160156l44.136719-61.792969c1.78125-2.703125 4.894531-4.214844 8.117187-3.941406 3.222657.269531 6.039063 2.28125 7.339844 5.246093 1.300781 2.960938.878906 6.394532-1.101563 8.953126l-44.136718 61.792968c-1.660156 2.320313-4.335938 3.699219-7.1875 3.699219zm0 0" fill="#f0c419"/><path d="m189.175781 52.523438c3.292969-5.488282 5.03125-11.765626 5.03125-18.167969v-8.507813c0-6.117187-3.167969-11.800781-8.371093-15.015625-5.203126-3.21875-11.703126-3.511719-17.175782-.777343l-1.871094.9375c-4.96875 2.480468-10.816406 2.480468-15.785156 0l-18.253906-9.128907c-5.660156-2.820312-12.394531-2.398437-17.65625 1.101563l-8.164062 5.4375c-5.929688 3.953125-13.652344 3.953125-19.582032 0l-8.164062-5.4375c-5.261719-3.5-11.996094-3.921875-17.65625-1.101563l-18.324219 9.128907c-4.96875 2.480468-10.816406 2.480468-15.785156 0l-1.871094-.9375c-5.472656-2.734376-11.972656-2.441407-17.175781.777343-5.203125 3.214844-8.371094 8.898438-8.371094 15.015625v8.507813c0 6.402343 1.738281 12.679687 5.03125 18.167969l21.453125 35.753906v335.445312l-21.453125 35.753906c-3.292969 5.488282-5.03125 11.765626-5.03125 18.167969v8.507813c0 6.117187 3.167969 11.800781 8.371094 15.015625 5.203125 3.21875 11.703125 3.511719 17.175781.777343l1.871094-.9375c4.96875-2.480468 10.816406-2.480468 15.785156 0l18.253906 9.128907c5.660157 2.820312 12.394531 2.398437 17.65625-1.101563l8.164063-5.449218c5.929687-3.949219 13.652344-3.949219 19.582031 0l8.164063 5.449218c5.261718 3.5 11.996093 3.921875 17.65625 1.101563l18.253906-9.128907c4.96875-2.480468 10.816406-2.480468 15.785156 0l1.871094.9375c5.476562 2.769532 12 2.492188 17.226562-.730468 5.226563-3.21875 8.402344-8.921875 8.390625-15.0625v-8.507813c0-6.402343-1.738281-12.679687-5.03125-18.167969l-21.453125-35.753906v-335.445312zm0 0" fill="#955ba5"/><path d="m61.792969 158.898438v-52.96875c0-4.875 3.953125-8.828126 8.828125-8.828126h52.964844c4.875 0 8.828124 3.953126 8.828124 8.828126v300.140624c0 4.875-3.953124 8.828126-8.828124 8.828126h-52.964844c-4.875 0-8.828125-3.953126-8.828125-8.828126zm0 0" fill="#ff5364"/><g fill="#3d324c"><path d="m44.136719 476.691406c-4.875 0-8.828125-3.953125-8.828125-8.828125s3.953125-8.828125 8.828125-8.828125c2.425781.230469 4.824219-.640625 6.535156-2.371094 1.710937-1.734374 2.554687-4.140624 2.292969-6.5625.121094-4.796874 4.027344-8.632812 8.828125-8.660156h.113281c4.820312.035156 8.710938 3.945313 8.714844 8.765625.207031 7.085938-2.515625 13.941407-7.527344 18.953125-5.011719 5.011719-11.871094 7.738282-18.957031 7.53125zm0 0"/><path d="m150.070312 476.691406c-7.085937.207032-13.945312-2.519531-18.957031-7.53125-5.011719-5.011718-7.734375-11.867187-7.527343-18.953125-.023438-4.875 3.910156-8.847656 8.785156-8.871093 4.875-.023438 8.847656 3.90625 8.871094 8.78125-.253907 2.417968.589843 4.824218 2.300781 6.550781 1.710937 1.730469 4.105469 2.597656 6.527343 2.367187 4.875 0 8.828126 3.953125 8.828126 8.828125s-3.953126 8.828125-8.828126 8.828125zm0 0"/><path d="m97.101562 476.691406c-4.875 0-8.824218-3.953125-8.824218-8.828125v-17.65625c0-4.875 3.949218-8.828125 8.824218-8.828125 4.878907 0 8.828126 3.953125 8.828126 8.828125v17.65625c0 4.875-3.949219 8.828125-8.828126 8.828125zm0 0"/><path d="m61.792969 70.621094c-4.839844 0-8.777344-3.898438-8.828125-8.738282.253906-2.417968-.589844-4.824218-2.300782-6.550781-1.710937-1.730469-4.105468-2.597656-6.527343-2.367187-4.875 0-8.828125-3.953125-8.828125-8.828125s3.953125-8.828125 8.828125-8.828125c7.085937-.207032 13.945312 2.519531 18.957031 7.53125 5.011719 5.011718 7.734375 11.867187 7.527344 18.953125 0 4.875-3.953125 8.828125-8.828125 8.828125zm0 0"/><path d="m132.414062 70.558594h-.113281c-4.820312-.035156-8.710937-3.945313-8.714843-8.765625-.207032-7.085938 2.515624-13.941407 7.527343-18.953125 5.011719-5.011719 11.871094-7.738282 18.957031-7.53125 4.875 0 8.828126 3.953125 8.828126 8.828125s-3.953126 8.828125-8.828126 8.828125c-2.425781-.230469-4.824218.640625-6.535156 2.371094-1.710937 1.734374-2.554687 4.140624-2.292968 6.5625-.121094 4.796874-4.03125 8.632812-8.828126 8.660156zm0 0"/><path d="m97.101562 70.621094c-4.875 0-8.824218-3.953125-8.824218-8.828125v-17.65625c0-4.875 3.949218-8.828125 8.824218-8.828125 4.878907 0 8.828126 3.953125 8.828126 8.828125v17.65625c0 4.875-3.949219 8.828125-8.828126 8.828125zm0 0"/><path d="m123.585938 423.722656h-52.964844c-9.75 0-17.65625-7.902344-17.65625-17.652344v-176.554687c0-4.875 3.953125-8.824219 8.828125-8.824219s8.828125 3.949219 8.828125 8.824219v176.554687h52.964844v-300.140624h-52.964844v52.96875c0 4.875-3.953125 8.824218-8.828125 8.824218s-8.828125-3.949218-8.828125-8.824218v-52.96875c0-9.75 7.90625-17.652344 17.65625-17.652344h52.964844c9.75 0 17.65625 7.902344 17.65625 17.652344v300.140624c0 9.75-7.90625 17.652344-17.65625 17.652344zm0 0"/><path d="m61.792969 203.035156c-2.339844-.015625-4.585938-.929687-6.265625-2.5625-.78125-.855468-1.40625-1.84375-1.855469-2.910156-.496094-1.046875-.738281-2.199219-.707031-3.355469.03125-2.339843.945312-4.578125 2.5625-6.269531 2.554687-2.464844 6.328125-3.191406 9.621094-1.851562 3.355468 1.292968 5.570312 4.523437 5.570312 8.121093 0 3.597657-2.214844 6.828125-5.570312 8.121094-1.0625.453125-2.203126.691406-3.355469.707031zm0 0"/></g></svg>