<svg height="512pt" viewBox="-22 0 512 512" width="512pt" xmlns="http://www.w3.org/2000/svg"><path d="m157.859375 125.996094c-78.101563-8.679688-60.746094-86.78125-60.746094-86.78125 73.070313-19.957032 105.527344 31.414062 116.632813 56.496094h41.132812c11.109375-25.082032 43.566406-76.453126 116.632813-56.496094 0 0 17.355469 78.101562-60.746094 86.78125l-76.453125 69.421875zm0 0" fill="#24ae5f"/><path d="m310.765625 125.996094-76.453125 69.421875-76.453125-69.421875c-63.695313-7.117188-63.867187-60.3125-61.785156-79.75 2.601562 23.253906 15.273437 53.109375 61.785156 58.226562l76.453125 69.425782 76.453125-69.425782c46.515625-5.117187 59.183594-34.972656 61.789063-58.226562 2.082031 19.4375 1.910156 72.640625-61.789063 79.75zm0 0" fill="#4c8056"/><path d="m459.933594 242.984375v65.082031c-.035156 51.820313-20.652344 101.503906-57.320313 138.121094-36.664062 36.617188-86.375 57.167969-138.195312 57.132812h-4.078125c-14.378906 0-26.035156-11.652343-26.035156-26.03125 0 14.378907-11.65625 26.03125-26.035157 26.03125h-4.078125c-51.816406.035157-101.527344-20.515624-138.195312-57.132812-36.664063-36.617188-57.285156-86.300781-57.316406-138.121094v-65.082031c.023437-71.882813 58.285156-130.148437 130.167968-130.171875h35.320313c15.9375-.011719 31.230469 6.308594 42.507812 17.570312 11.277344 11.261719 17.621094 26.542969 17.628907 42.480469.007812-15.9375 6.351562-31.21875 17.628906-42.480469 11.28125-11.261718 26.570312-17.582031 42.511718-17.570312h35.316407c71.882812.023438 130.148437 58.289062 130.171875 130.171875zm0 0" fill="#f5efca"/><path d="m433.898438 242.984375v65.082031c0 107.867188-77.460938 195.253906-172.953126 195.253906h-3.609374c-13.535157-.859374-23.828126-12.496093-23.03125-26.03125.796874 13.535157-9.496094 25.171876-23.03125 26.03125h-3.609376c-95.492187 0-172.953124-87.386718-172.953124-195.253906v-65.082031c0-71.855469 51.589843-130.171875 115.148437-130.171875h31.242187c29.410157 0 53.203126 26.902344 53.203126 60.050781 0-33.148437 23.796874-60.050781 53.195312-60.050781h31.242188c63.566406 0 115.15625 58.316406 115.15625 130.171875zm0 0" fill="#f5efca"/><path d="m208.269531 512h-4.078125c-112.644531-.058594-203.992187-91.285156-204.191406-203.933594v-65.082031c.0898438-76.648437 62.203125-138.757813 138.847656-138.847656h35.320313c4.792969 0 8.675781 3.882812 8.675781 8.675781s-3.882812 8.679688-8.675781 8.679688h-35.320313c-67.070312.070312-121.421875 54.421874-121.492187 121.492187v65.082031c.1875 103.070313 83.769531 186.535156 186.835937 186.578125h4.078125c4.792969 0 8.679688 3.886719 8.679688 8.675781 0 4.792969-3.886719 8.679688-8.679688 8.679688zm0 0" fill="#c03a2b"/><path d="m264.417969 512h-4.078125c-4.792969 0-8.679688-3.886719-8.679688-8.679688 0-4.789062 3.886719-8.675781 8.679688-8.675781h4.078125c103.066406-.042969 186.648437-83.507812 186.835937-186.578125v-65.082031c-.070312-67.070313-54.421875-121.421875-121.492187-121.492187h-35.316407c-4.792968 0-8.679687-3.886719-8.679687-8.679688s3.886719-8.675781 8.679687-8.675781h35.316407c76.648437.089843 138.757812 62.199219 138.847656 138.847656v65.082031c-.199219 112.648438-91.542969 203.875-204.191406 203.933594zm0 0" fill="#c03a2b"/><path d="m259.125 19.542969-6.683594 105.6875c-7.492187 6.125-13.664062 13.710937-18.136718 22.296875-4.472657-8.585938-10.640626-16.171875-18.136719-22.296875l-6.683594-105.6875c-.441406-4.929688 1.171875-9.820313 4.457031-13.519531 3.285156-3.703126 7.953125-5.878907 12.902344-6.023438h14.925781c4.945313.144531 9.613281 2.320312 12.898438 6.023438 3.285156 3.699218 4.898437 8.589843 4.457031 13.519531zm0 0" fill="#804537"/><path d="m234.304688 196.589844c-4.792969 0-8.675782-3.882813-8.675782-8.675782v-15.023437c-.058594-28.398437-23.097656-51.394531-51.496094-51.398437-4.792968 0-8.679687-3.886719-8.679687-8.679688s3.886719-8.675781 8.679687-8.675781c37.980469.011719 68.785157 30.773437 68.851563 68.753906v15.023437c0 4.792969-3.886719 8.675782-8.679687 8.675782zm0 0" fill="#c03a2b"/><path d="m234.304688 196.589844c-4.792969 0-8.675782-3.882813-8.675782-8.675782v-15.023437c.066406-37.980469 30.867188-68.742187 68.847656-68.753906 4.792969 0 8.679688 3.882812 8.679688 8.675781s-3.886719 8.679688-8.679688 8.679688c-28.398437.003906-51.4375 23-51.492187 51.398437v15.023437c0 4.792969-3.886719 8.675782-8.679687 8.675782zm0 0" fill="#c03a2b"/><path d="m234.304688 164.882812s-76.886719 0-129.300782 43.386719c-6.042968 4.984375-9.542968 12.40625-9.546875 20.238281v83.898438c0 14.378906 11.65625 26.035156 26.035157 26.035156h225.625c14.378906 0 26.035156-11.65625 26.035156-26.035156v-83.898438c-.003906-7.832031-3.503906-15.253906-9.546875-20.238281-52.414063-43.386719-129.300781-43.386719-129.300781-43.386719" fill="#67b9cc"/><path d="m347.117188 347.117188h-225.625c-19.171876 0-34.710938-15.539063-34.710938-34.710938v-83.898438c-.019531-10.40625 4.621094-20.277343 12.652344-26.902343 54.234375-44.882813 131.609375-45.402344 134.871094-45.402344 3.261718 0 80.636718.519531 134.875 45.410156 8.023437 6.625 12.667968 16.488281 12.652343 26.894531v83.898438c0 19.171875-15.542969 34.710938-34.714843 34.710938zm-112.8125-173.558594c-1.085938 0-74.585938.6875-123.808594 41.429687-4.03125 3.332031-6.363282 8.289063-6.359375 13.519531v83.898438c0 9.585938 7.769531 17.355469 17.355469 17.355469h225.625c9.585937 0 17.355468-7.769531 17.355468-17.355469v-83.898438c.003906-5.230468-2.328125-10.191406-6.359375-13.527343-49.175781-40.734375-122.722656-41.421875-123.808593-41.421875zm0 0" fill="#41767f"/><g fill="#2c3e50"><path d="m234.304688 216.949219c-4.792969 0-8.675782-3.886719-8.675782-8.679688v-17.355469c0-4.792968 3.882813-8.675781 8.675782-8.675781 4.792968 0 8.679687 3.882813 8.679687 8.675781v17.355469c0 4.792969-3.886719 8.679688-8.679687 8.679688zm0 0"/><path d="m199.59375 225.628906c-3.304688.015625-6.332031-1.84375-7.8125-4.800781l-8.675781-17.355469c-2.144531-4.289062-.402344-9.503906 3.886719-11.644531 4.289062-2.144531 9.503906-.402344 11.644531 3.886719l8.679687 17.355468c1.339844 2.683594 1.199219 5.871094-.371094 8.425782-1.570312 2.554687-4.351562 4.117187-7.351562 4.132812zm0 0"/><path d="m170.296875 240.976562c-2.222656.003907-4.359375-.847656-5.972656-2.375l-14.089844-13.339843c-3.484375-3.292969-3.636719-8.789063-.339844-12.269531 3.296875-3.480469 8.789063-3.632813 12.269531-.339844l14.09375 13.339844c2.585938 2.441406 3.417969 6.210937 2.105469 9.515624-1.316406 3.304688-4.511719 5.472657-8.066406 5.46875zm0 0"/><path d="m147.527344 260.339844h-17.359375c-4.792969 0-8.675781-3.886719-8.675781-8.679688 0-4.792968 3.882812-8.675781 8.675781-8.675781h17.359375c4.789062 0 8.675781 3.882813 8.675781 8.675781 0 4.792969-3.886719 8.679688-8.675781 8.679688zm0 0"/><path d="m269.015625 225.628906c-3.003906-.003906-5.796875-1.5625-7.375-4.117187-1.582031-2.558594-1.726563-5.753907-.382813-8.441407l8.679688-17.355468c2.140625-4.289063 7.355469-6.03125 11.644531-3.886719 4.289063 2.140625 6.03125 7.355469 3.886719 11.644531l-8.675781 17.355469c-1.472657 2.945313-4.484375 4.804687-7.777344 4.800781zm0 0"/><path d="m298.3125 240.976562c-3.554688.003907-6.75-2.164062-8.066406-5.46875-1.3125-3.304687-.480469-7.074218 2.105468-9.515624l14.085938-13.339844c3.480469-3.292969 8.972656-3.140625 12.269531.339844 3.296875 3.480468 3.144531 8.976562-.339843 12.269531l-14.082032 13.382812c-1.621094 1.511719-3.757812 2.347657-5.972656 2.332031zm0 0"/><path d="m338.441406 260.339844h-17.355468c-4.792969 0-8.679688-3.886719-8.679688-8.679688 0-4.792968 3.886719-8.675781 8.679688-8.675781h17.355468c4.792969 0 8.675782 3.882813 8.675782 8.675781 0 4.792969-3.882813 8.679688-8.675782 8.679688zm0 0"/><path d="m234.304688 312.40625c-3.367188 0-6.425782-1.949219-7.855469-4.996094-1.425781-3.050781-.964844-6.648437 1.191406-9.234375l43.390625-52.070312c1.957031-2.464844 5.097656-3.679688 8.207031-3.167969s5.695313 2.667969 6.757813 5.632812c1.0625 2.964844.4375 6.273438-1.636719 8.644532l-43.390625 52.066406c-1.648438 1.980469-4.089844 3.125-6.664062 3.125zm0 0"/></g><path d="m121.492188 381.832031h-17.355469c-4.792969 0-8.679688-3.886719-8.679688-8.679687 0-4.792969 3.886719-8.679688 8.679688-8.679688h17.355469c4.792968 0 8.675781 3.886719 8.675781 8.679688 0 4.792968-3.882813 8.679687-8.675781 8.679687zm0 0" fill="#7f6e5d"/><path d="m364.472656 381.832031h-17.355468c-4.792969 0-8.675782-3.886719-8.675782-8.679687 0-4.792969 3.882813-8.679688 8.675782-8.679688h17.355468c4.792969 0 8.679688 3.886719 8.679688 8.679688 0 4.792968-3.886719 8.679687-8.679688 8.679687zm0 0" fill="#7f6e5d"/><path d="m312.40625 381.832031h-156.203125c-4.792969 0-8.675781-3.886719-8.675781-8.679687 0-4.792969 3.882812-8.679688 8.675781-8.679688h156.203125c4.792969 0 8.679688 3.886719 8.679688 8.679688 0 4.792968-3.886719 8.679687-8.679688 8.679687zm0 0" fill="#7f6e5d"/><path d="m208.269531 512c-4.792969 0-8.675781-3.886719-8.675781-8.679688 0-4.789062 3.882812-8.675781 8.675781-8.675781 9.585938 0 17.359375-7.769531 17.359375-17.355469 0-4.792968 3.882813-8.679687 8.675782-8.679687 4.792968 0 8.679687 3.886719 8.679687 8.679687 0 19.167969-15.542969 34.710938-34.714844 34.710938zm0 0" fill="#c03a2b"/><path d="m260.339844 512c-19.171875 0-34.710938-15.542969-34.710938-34.710938 0-4.792968 3.882813-8.679687 8.675782-8.679687 4.792968 0 8.679687 3.886719 8.679687 8.679687 0 9.585938 7.769531 17.355469 17.355469 17.355469 4.792968 0 8.675781 3.886719 8.675781 8.675781 0 4.792969-3.882813 8.679688-8.675781 8.679688zm0 0" fill="#c03a2b"/></svg>