<svg height="512pt" viewBox="0 0 512 512.06256" width="512pt" xmlns="http://www.w3.org/2000/svg"><path d="m308.996094 414.957031c4.945312-.03125 9.648437-2.125 12.988281-5.769531 3.335937-3.648438 5.003906-8.523438 4.597656-13.449219-1.140625-9.335937-9.167969-16.292969-18.574219-16.09375h-16.667968c9.722656-.070312 17.585937-7.933593 17.65625-17.652343-.074219-9.449219-7.511719-17.199219-16.949219-17.65625l10.417969-22.15625c9.917968-21.199219 8.457031-45.96875-3.882813-65.855469l-1.148437-1.851563c-8.847656-14.203125-9.878906-31.921875-2.738282-47.054687l2.03125-4.324219h-.972656c5.859375.011719 11.480469-2.308594 15.625-6.445312 6.210938-6.269532 8.144532-15.609376 4.9375-23.832032-3.339844-8.46875-11.574218-13.988281-20.675781-13.859375h-.679687c18.144531-7.433593 30.449218-24.570312 31.691406-44.136719 0-23.925781-21.1875-44.140624-50.230469-50.671874 12.109375-8.542969 17.597656-23.738282 13.738281-38.046876-4.101562-16.089843-19.035156-27.011718-35.613281-26.0429682-2.484375.0937502-4.949219.4765622-7.34375 1.1484372-13.3125 3.417969-23.421875 14.257813-25.90625 27.773438s3.113281 27.242187 14.34375 35.167969c-29.042969 6.53125-50.230469 26.746093-50.230469 50.671874 1.242188 19.566407 13.546875 36.703126 31.691406 44.136719h-.792968c-12.191406 0-22.070313 9.878907-22.070313 22.070313 0 12.1875 9.878907 22.066406 22.070313 22.066406h-.972656l2.03125 4.324219c7.140624 15.132812 6.109374 32.851562-2.738282 47.054687l-1.148437 1.851563c-12.339844 19.886719-13.800781 44.65625-3.882813 65.855469l10.417969 22.15625c-9.4375.460937-16.871094 8.207031-16.949219 17.65625.027344 9.738281 7.914063 17.625 17.65625 17.652343h-18.539062c-9.363282.5625-16.691406 8.277344-16.773438 17.65625.03125 9.738281 7.917969 17.625 17.65625 17.65625-14.625 0-26.484375 11.855469-26.484375 26.480469v35.3125c0 19.5 15.808594 35.308594 35.3125 35.308594h123.585938v-70.621094c0-14.625-11.859375-26.480469-26.484375-26.480469zm0 0" fill="#e57e25"/><path d="m326.652344 397.300781c-.074219 9.722657-7.933594 17.582031-17.65625 17.65625h-105.929688c-9.738281-.03125-17.625-7.917969-17.65625-17.65625.082032-9.378906 7.410156-17.09375 16.773438-17.65625h106.8125c9.738281.03125 17.625 7.917969 17.65625 17.65625zm0 0" fill="#b19046"/><path d="m291.339844 361.992188c-.074219 8.972656-6.800782 16.492187-15.710938 17.566406h-.089844c-.613281.074218-1.234374.101562-1.851562.085937h-52.964844c-9.742187-.027343-17.628906-7.914062-17.65625-17.652343.078125-9.449219 7.511719-17.195313 16.949219-17.65625h54.378906c9.4375.457031 16.875 8.207031 16.945313 17.65625zm0 0" fill="#f29c1f"/><path d="m308.996094 397.300781c-.082032 6.890625-4.09375 13.128907-10.328125 16.066407-2.289063 1.074218-4.796875 1.621093-7.328125 1.589843h-88.273438c-9.738281-.03125-17.625-7.917969-17.65625-17.65625.082032-9.378906 7.410156-17.09375 16.773438-17.65625h89.15625c9.742187.03125 17.628906 7.917969 17.65625 17.65625zm0 0" fill="#e4c05c"/><path d="m273.6875 35.371094c.007812 11.449218-5.558594 22.1875-14.917969 28.777344h-23.128906c-11.230469-7.925782-16.828125-21.652344-14.34375-35.167969s12.59375-24.355469 25.90625-27.773438c15.597656 4 26.496094 18.0625 26.484375 34.164063zm0 0" fill="#f29c1f"/><path d="m326.652344 114.820312c-1.242188 19.566407-13.546875 36.703126-31.691406 44.136719h-77.859376c-18.144531-7.433593-30.449218-24.570312-31.691406-44.136719 0-23.925781 21.1875-44.140624 50.230469-50.671874 2.292969-.53125 4.675781-.972657 7.148437-1.324219 4.386719-.640625 8.8125-.964844 13.242188-.972657 6.863281-.011718 13.703125.757813 20.390625 2.296876 29.042969 6.53125 50.230469 26.746093 50.230469 50.671874zm0 0" fill="#b19046"/><path d="m302.464844 322.179688-10.417969 22.15625h-72.03125l-10.417969-22.15625c-9.917968-21.199219-8.457031-45.96875 3.882813-65.855469l1.148437-1.851563c8.847656-14.203125 9.878906-31.921875 2.738282-47.054687l-2.03125-4.324219h81.390624l-2.03125 4.324219c-7.140624 15.132812-6.109374 32.851562 2.738282 47.054687l1.148437 1.851563c12.339844 19.886719 13.800781 44.65625 3.882813 65.855469zm0 0" fill="#b19046"/><path d="m284.808594 322.179688-10.414063 22.15625h-54.378906l-10.417969-22.15625c-9.917968-21.199219-8.457031-45.96875 3.882813-65.855469l1.148437-1.851563c8.847656-14.203125 9.878906-31.921875 2.738282-47.054687l-2.03125-4.324219h63.734374l-2.03125 4.324219c-7.136718 15.132812-6.109374 32.851562 2.738282 47.054687l1.148437 1.851563c12.339844 19.886719 13.800781 44.65625 3.882813 65.855469zm0 0" fill="#e4c05c"/><path d="m308.996094 441.4375v70.621094h-88.273438c-24.378906 0-44.140625-19.761719-44.140625-44.136719v-26.484375c0-14.625 11.859375-26.480469 26.484375-26.480469h79.449219c14.625 0 26.480469 11.855469 26.480469 26.480469zm0 0" fill="#f29c1f"/><path d="m300.167969 114.820312c-1.238281 19.566407-13.546875 36.703126-31.691407 44.136719h-51.375c-18.144531-7.433593-30.449218-24.570312-31.691406-44.136719 0-23.925781 21.1875-44.140624 50.230469-50.671874 2.292969-.53125 4.675781-.972657 7.148437-1.324219 2.472657.351562 4.855469.792969 7.152344 1.324219 29.042969 6.53125 50.226563 26.746093 50.226563 50.671874zm0 0" fill="#e4c05c"/><path d="m300.167969 181.027344c.019531 5.855468-2.300781 11.480468-6.441407 15.625-4.144531 4.140625-9.765624 6.460937-15.625 6.441406h-61.792968c-12.191406 0-22.070313-9.878906-22.070313-22.066406 0-12.191406 9.878907-22.070313 22.070313-22.070313h61.792968c12.1875 0 22.066407 9.878907 22.066407 22.070313zm0 0" fill="#f29c1f"/><path d="m323.828125 264.886719 101.871094-152.011719c13.773437-20.625 41.183593-27.035156 62.675781-14.652344l.085938.089844c21.472656 12.417969 29.65625 39.351562 18.714843 61.613281l-51.554687 104.960938" fill="#3d324c"/><path d="m132.445312 414.957031c9.71875-.074219 17.582032-7.933593 17.65625-17.65625-.03125-9.738281-7.917968-17.625-17.65625-17.65625h-17.65625c9.722657-.070312 17.582032-7.933593 17.65625-17.652343-.074218-9.449219-7.511718-17.199219-16.949218-17.65625l10.417968-22.15625c9.914063-21.199219 8.453126-45.96875-3.886718-65.855469l-1.144532-1.851563c-8.847656-14.203125-9.878906-31.921875-2.738281-47.054687l2.03125-4.324219h-.972656c12.1875 0 22.070313-9.878906 22.070313-22.066406 0-12.191406-9.882813-22.070313-22.070313-22.070313h-.792969c18.140625-7.433593 30.449219-24.570312 31.691406-44.136719 0-23.925781-21.1875-44.140624-50.230468-50.671874 12.511718-8.894532 17.84375-24.855469 13.1875-39.484376-4.65625-14.628906-18.226563-24.5742182-33.578125-24.6054682-2.980469-.0273438-5.953125.3593752-8.828125 1.1484372-13.3125 3.417969-23.425782 14.257813-25.90625 27.773438-2.484375 13.515625 3.113281 27.242187 14.339844 35.167969-29.039063 6.53125-50.226563 26.746093-50.226563 50.671874 1.242187 19.566407 13.546875 36.703126 31.691406 44.136719h-.796875c-12.1875 0-22.066406 9.878907-22.066406 22.070313 0 12.1875 9.878906 22.066406 22.066406 22.066406h-.96875l2.03125 4.324219c7.136719 15.132812 6.109375 32.851562-2.738281 47.054687l-1.148437 1.851563c-12.339844 19.886719-13.800782 44.65625-3.882813 65.855469l10.417969 22.15625c-9.4375.460937-16.875 8.207031-16.949219 17.65625.027344 9.738281 7.914063 17.625 17.652344 17.652343h-18.535157c-4.375.21875-8.503906 2.078125-11.566406 5.210938-3.351562 3.269531-5.234375 7.761719-5.207031 12.445312.027344 9.738281 7.917969 17.625 17.65625 17.65625-14.628906 0-26.484375 11.855469-26.484375 26.480469v70.621094h158.898438v-70.621094c0-14.625-11.859376-26.480469-26.484376-26.480469zm0 0" fill="#2c3e50"/><path d="m150.101562 397.300781c-.074218 9.722657-7.9375 17.582031-17.65625 17.65625h-105.929687c-9.738281-.03125-17.628906-7.917969-17.65625-17.65625-.027344-4.683593 1.855469-9.175781 5.207031-12.445312 3.0625-3.132813 7.191406-4.992188 11.566406-5.210938h106.8125c9.738282.03125 17.625 7.917969 17.65625 17.65625zm0 0" fill="#2c2f38"/><path d="m114.789062 361.992188c-.078124 8.972656-6.804687 16.492187-15.710937 17.566406h-.089844c-.613281.074218-1.234375.101562-1.855469.085937h-52.964843c-9.738281-.027343-17.625-7.914062-17.652344-17.652343.074219-9.449219 7.511719-17.195313 16.949219-17.65625h54.375c9.4375.457031 16.875 8.207031 16.949218 17.65625zm0 0" fill="#35495e"/><path d="m132.445312 397.300781c-.082031 6.890625-4.09375 13.128907-10.328124 16.066407-2.292969 1.074218-4.796876 1.621093-7.328126 1.589843h-88.273437c-9.738281-.03125-17.628906-7.917969-17.65625-17.65625-.027344-4.683593 1.855469-9.175781 5.207031-12.445312 3.0625-3.132813 7.191406-4.992188 11.566406-5.210938h89.15625c9.738282.03125 17.625 7.917969 17.65625 17.65625zm0 0" fill="#464f5d"/><path d="m97.132812 35.371094c.011719 11.449218-5.554687 22.1875-14.917968 28.777344h-23.128906c-11.226563-7.925782-16.824219-21.652344-14.339844-35.167969 2.480468-13.515625 12.59375-24.355469 25.90625-27.773438 15.59375 4 26.496094 18.0625 26.480468 34.164063zm0 0" fill="#35495e"/><path d="m150.101562 114.820312c-1.242187 19.566407-13.550781 36.703126-31.691406 44.136719h-77.859375c-18.144531-7.433593-30.449219-24.570312-31.691406-44.136719 0-23.925781 21.1875-44.140624 50.226563-50.671874 2.296874-.53125 4.679687-.972657 7.152343-1.324219 4.382813-.640625 8.808594-.964844 13.242188-.972657 6.863281-.011718 13.703125.757813 20.390625 2.296876 29.042968 6.53125 50.230468 26.746093 50.230468 50.671874zm0 0" fill="#2c2f38"/><path d="m125.914062 322.179688-10.417968 22.15625h-72.03125l-10.417969-22.15625c-9.917969-21.199219-8.457031-45.96875 3.882813-65.855469l1.148437-1.851563c8.847656-14.203125 9.875-31.921875 2.738281-47.054687l-2.03125-4.324219h81.390625l-2.03125 4.324219c-7.140625 15.132812-6.109375 32.851562 2.738281 47.054687l1.144532 1.851563c12.339844 19.886719 13.800781 44.65625 3.886718 65.855469zm0 0" fill="#2c2f38"/><path d="m108.257812 322.179688-10.417968 22.15625h-54.375l-10.417969-22.15625c-9.917969-21.199219-8.457031-45.96875 3.882813-65.855469l1.148437-1.851563c8.847656-14.203125 9.875-31.921875 2.738281-47.054687l-2.03125-4.324219h63.734375l-2.03125 4.324219c-7.140625 15.132812-6.109375 32.851562 2.738281 47.054687l1.148438 1.851563c12.339844 19.886719 13.800781 44.65625 3.882812 65.855469zm0 0" fill="#464f5d"/><path d="m132.445312 441.4375v70.621094h-132.414062v-70.621094c0-14.625 11.855469-26.480469 26.484375-26.480469h79.445313c14.628906 0 26.484374 11.855469 26.484374 26.480469zm0 0" fill="#35495e"/><path d="m123.617188 114.820312c-1.242188 19.566407-13.546876 36.703126-31.691407 44.136719h-51.375c-18.144531-7.433593-30.449219-24.570312-31.691406-44.136719 0-23.925781 21.1875-44.140624 50.226563-50.671874 2.296874-.53125 4.679687-.972657 7.152343-1.324219 2.472657.351562 4.855469.792969 7.148438 1.324219 29.042969 6.53125 50.230469 26.746093 50.230469 50.671874zm0 0" fill="#464f5d"/><path d="m123.617188 181.027344c.019531 5.855468-2.300782 11.480468-6.441407 15.625-4.144531 4.140625-9.769531 6.460937-15.628906 6.441406h-61.792969c-12.1875 0-22.066406-9.878906-22.066406-22.066406 0-12.191406 9.878906-22.070313 22.066406-22.070313h61.792969c12.191406 0 22.070313 9.878907 22.070313 22.070313zm0 0" fill="#35495e"/><path d="m494.261719 264.886719h-397.664063c-4.699218 0-9.207031 1.875-12.519531 5.207031s-5.164063 7.847656-5.136719 12.546875c.195313 30.515625 5.710938 93.351563 44.675782 132.316406 21.585937 20.386719 38.078124 45.570313 48.136718 73.507813 4.878906 14.21875 18.304688 23.71875 33.332032 23.59375h180.710937c15.03125.125 28.457031-9.375 33.332031-23.59375 10.054688-27.9375 26.535156-53.117188 48.109375-73.507813 38.957031-38.964843 44.484375-101.800781 44.6875-132.316406.027344-4.703125-1.824219-9.21875-5.140625-12.550781-3.316406-3.332032-7.824218-5.203125-12.523437-5.203125zm0 0" fill="#894b9d"/><path d="m317.824219 512.0625-87.835938-.003906c-15.011719.132812-28.417969-9.363282-33.277343-23.566406-10.09375-27.945313-26.601563-53.132813-48.199219-73.535157-38.929688-38.929687-44.492188-101.78125-44.667969-132.324219-.023438-4.699218 1.828125-9.214843 5.140625-12.542968 3.3125-3.332032 7.816406-5.203125 12.515625-5.203125h87.832031c-4.695312 0-9.199219 1.871093-12.515625 5.203125-3.3125 3.328125-5.160156 7.84375-5.136718 12.542968.175781 30.542969 5.738281 93.394532 44.667968 132.324219 21.59375 20.402344 38.101563 45.589844 48.195313 73.535157 4.859375 14.203124 18.269531 23.699218 33.28125 23.570312zm0 0" fill="#955ba5"/><g fill="#b49aca"><path d="m132.445312 309.027344h-17.65625c-4.875 0-8.828124-3.953125-8.828124-8.828125s3.953124-8.828125 8.828124-8.828125h17.65625c4.875 0 8.828126 3.953125 8.828126 8.828125s-3.953126 8.828125-8.828126 8.828125zm0 0"/><path d="m476.722656 309.027344h-308.96875c-4.875 0-8.824218-3.953125-8.824218-8.828125s3.949218-8.828125 8.824218-8.828125h308.96875c4.875 0 8.824219 3.953125 8.824219 8.828125s-3.949219 8.828125-8.824219 8.828125zm0 0"/></g></svg>