<svg height="512pt" viewBox="-9 0 512 512.01126" width="512pt" xmlns="http://www.w3.org/2000/svg"><path d="m494.351562 238.34375c-.089843-73.09375-59.320312-132.324219-132.414062-132.414062-18.238281-.023438-36.277344 3.765624-52.964844 11.125v-28.777344h-105.933594v97.191406c-.152343 22.167969-10.585937 43.007812-28.246093 56.40625-47.558594 38.550781-75.929688 95.9375-77.683594 157.132812-.011719 13.039063 1.617187 26.03125 4.855469 38.664063.40625 1.820313.90625 3.617187 1.5 5.382813l89.863281 68.945312h173.109375c30.960938-29.429688 48.480469-70.277344 48.464844-112.992188-.023438-12.652343-1.445313-25.265624-4.238282-37.605468 50.472657-20.003906 83.636719-68.769532 83.6875-123.058594zm-94.015624 89.246094c-13.328126-33.515625-35.066407-63.035156-63.117188-85.714844-17.660156-13.398438-28.09375-34.238281-28.246094-56.40625v-28.515625c29.851563-19.425781 67.949219-20.953125 99.257813-3.96875 31.3125 16.980469 50.8125 49.742187 50.808593 85.359375-.011718 38.796875-23.082031 73.875-58.703124 89.246094zm0 0" fill="#3b97d3"/><path d="m265.539062 476.691406h85.714844c18.371094-21.710937 28.417969-49.246094 28.339844-77.683594-1.800781-50.289062-25.148438-97.367187-64.089844-129.238281-26.261718-20.09375-41.71875-51.234375-41.84375-84.300781v-97.191406h-35.308594v97.191406c-.125 33.066406-15.582031 64.207031-41.84375 84.300781-38.941406 31.871094-62.289062 78.949219-64.089843 129.238281-.011719 11.375 1.5625 22.691407 4.679687 33.632813" fill="#2980ba"/><path d="m304.558594 88.277344h-110.691406c-5.359376-.003906-10.429688-2.445313-13.777344-6.632813l-18.539063-23.160156c-2.121093-2.652344-2.535156-6.285156-1.066406-9.34375 1.472656-3.058594 4.566406-5.003906 7.960937-5.003906h136.113282c12.1875 0 22.066406 9.882812 22.066406 22.070312s-9.878906 22.070313-22.066406 22.070313zm0 0" fill="#90bae1"/><path d="m300.144531 44.136719h-88.277343l-7.945313-19.921875c-2.175781-5.4375-1.511719-11.597656 1.765625-16.445313 3.277344-4.851562 8.746094-7.7617185 14.601562-7.769531h71.433594c5.855469.0078125 11.324219 2.917969 14.601563 7.769531 3.277343 4.847657 3.9375 11.007813 1.765625 16.445313zm0 0" fill="#805333"/><path d="m379.59375 399.007812c.078125 28.4375-9.96875 55.972657-28.339844 77.683594h-85.714844l-128.441406-44.050781c-3.117187-10.941406-4.691406-22.257813-4.679687-33.632813 1.128906-35.851562 13.378906-70.464843 35.046875-99.046874l.265625.175781h176.550781l.265625-.175781c21.667969 28.582031 33.914063 63.195312 35.046875 99.046874zm0 0" fill="#f3d55b"/><path d="m221.488281 432.464844c33.8125-40.695313 16.863281-97.015625 16.863281-97.015625-49.871093 8.140625-88.964843 47.234375-97.105468 97.101562l17.65625 35.3125zm0 0" fill="#24ae5f"/><path d="m171.085938 441.292969c15.917968-6.710938 33.152343-9.730469 50.402343-8.828125 21.785157 1.328125 42.828125 8.394531 61 20.480468-4.734375 8.527344-10.421875 16.492188-16.949219 23.746094-17.875 21.601563-44.183593 34.464844-72.210937 35.308594-10.4375-.0625-20.804687-1.761719-30.71875-5.03125h-.085937" fill="#4fba6f"/><path d="m194.210938 472.277344c.035156 1.480468-.113282 2.964844-.441407 4.414062-2.910156 17.210938-22.949219 31.160156-48.992187 34.515625-4.097656.535157-8.226563.800781-12.359375.792969-12.140625.121094-24.171875-2.316406-35.308594-7.148438v-65.148437c1.589844-.707031 3.175781-1.414063 4.855469-2.03125 9.777344-3.457031 20.082031-5.191406 30.453125-5.121094 1.589843 0 3.179687 0 4.679687.089844 3.285156.167969 6.554688.523437 9.800782 1.058594 27.1875 4.148437 47.3125 19.773437 47.3125 38.578125zm0 0" fill="#35495e"/><path d="m167.730469 463.449219c.03125 1.484375-.117188 2.964843-.441407 4.414062-2.914062 17.210938-22.953124 31.160157-48.992187 34.515625-4.097656.535156-8.226563.800782-12.359375.792969-3.003906 0-5.914062-.175781-8.828125-.351563v-63.117187c1.589844-.707031 3.175781-1.414063 4.855469-2.03125 9.777344-3.457031 20.082031-5.191406 30.453125-5.121094 1.589843 0 3.179687 0 4.679687.089844 3.285156.167969 6.554688.523437 9.800782 1.058594 11.828124 5.398437 19.800781 16.785156 20.832031 29.75zm0 0" fill="#3f5c6c"/><path d="m123.59375 472.277344c0 21.980468-27.632812 39.722656-61.796875 39.722656-14.183594.234375-28.195313-3.171875-40.691406-9.886719-11.960938-5.339843-20.054688-16.78125-21.10156275-29.835937 0-21.980469 27.63281275-39.726563 61.79296875-39.726563 4.757813-.011719 9.511719.34375 14.214844 1.058594 27.277343 4.152344 47.582031 19.863281 47.582031 38.667969zm0 0" fill="#4c8056"/><path d="m97.109375 463.449219c0 21.980469-27.628906 39.722656-61.792969 39.722656-4.757812.011719-9.507812-.34375-14.210937-1.058594-11.960938-5.339843-20.054688-16.78125-21.10156275-29.835937 0-21.980469 27.63281275-39.726563 61.79296875-39.726563 4.757813-.011719 9.511719.34375 14.214844 1.058594 11.960937 5.339844 20.050781 16.78125 21.097656 29.839844zm0 0" fill="#71c285"/><path d="m308.089844 24.1875-7.945313 19.949219h-45.109375v-44.136719h36.722656c5.839844.0234375 11.292969 2.933594 14.5625 7.777344 3.265626 4.839844 3.929688 10.984375 1.769532 16.410156zm0 0" fill="#59474e"/></svg>