<svg height="503.32203pt" viewBox="0 0 503.32203 503.32203" width="503.32203pt" xmlns="http://www.w3.org/2000/svg"><path d="m251.660156 0c-138.988281 0-251.660156 112.671875-251.660156 251.660156 0 138.988282 112.671875 251.660156 251.660156 251.660156 138.988282 0 251.660156-112.671874 251.660156-251.660156 0-138.988281-112.671874-251.660156-251.660156-251.660156zm0 468.609375c-84.722656.082031-161.722656-49.210937-197.121094-126.183594-35.398437-76.972656-22.703124-167.511719 32.5-231.78125l252.875 252.875 52.765626 52.761719c-39.175782 33.847656-89.246094 52.429688-141.019532 52.328125zm165.578125-76.886719-305.554687-305.550781c86.066406-72.933594 213.683594-67.671875 293.457031 12.097656 79.769531 79.769531 85.03125 207.386719 12.097656 293.453125zm0 0" fill="#c03a2b"/><path d="m347.117188 311.453125h52.070312c4.792969 0 8.675781 3.882813 8.675781 8.675781v17.355469c0 19.171875-15.539062 34.714844-34.710937 34.714844h-242.984375c-19.167969 0-34.710938-15.542969-34.710938-34.714844v-17.355469c0-4.792968 3.886719-8.675781 8.679688-8.675781h173.558593" fill="#f29c1f"/><path d="m277.695312 259.382812h-173.558593v-52.066406h286.371093v52.066406h-43.390624" fill="#24ae5f"/><path d="m182.238281 111.859375h138.847657c23.015624 0 45.085937 9.140625 61.359374 25.417969 16.277344 16.273437 25.417969 38.347656 25.417969 61.359375v8.679687c0 4.792969-3.882812 8.679688-8.675781 8.679688h-295.050781c-4.792969 0-8.679688-3.886719-8.679688-8.679688v-8.679687c0-47.925781 38.851563-86.777344 86.78125-86.777344zm0 0" fill="#f29c1f"/><g fill="#e4c05c"><path d="m164.882812 163.925781c-3.511718 0-6.675781-2.113281-8.015624-5.355469-1.34375-3.242187-.601563-6.976562 1.878906-9.457031l8.679687-8.679687c3.402344-3.285156 8.816407-3.238282 12.164063.109375 3.347656 3.34375 3.394531 8.757812.105468 12.164062l-8.679687 8.675781c-1.625 1.628907-3.832031 2.542969-6.132813 2.542969zm0 0"/><path d="m216.949219 163.925781c-3.507813 0-6.671875-2.113281-8.015625-5.355469-1.34375-3.242187-.601563-6.976562 1.878906-9.457031l8.679688-8.679687c3.40625-3.285156 8.816406-3.238282 12.164062.109375 3.347656 3.34375 3.394531 8.757812.105469 12.164062l-8.675781 8.675781c-1.628907 1.628907-3.835938 2.542969-6.136719 2.542969zm0 0"/><path d="m277.695312 163.925781c-3.507812 0-6.671874-2.113281-8.015624-5.355469-1.34375-3.242187-.601563-6.976562 1.878906-9.457031l8.679687-8.679687c3.40625-3.285156 8.816407-3.238282 12.164063.109375 3.347656 3.34375 3.394531 8.757812.105468 12.164062l-8.675781 8.675781c-1.628906 1.628907-3.835937 2.542969-6.136719 2.542969zm0 0"/><path d="m329.761719 163.925781c-3.507813 0-6.671875-2.113281-8.015625-5.355469-1.34375-3.242187-.601563-6.976562 1.882812-9.457031l8.675782-8.679687c3.40625-3.285156 8.816406-3.238282 12.164062.109375 3.347656 3.34375 3.394531 8.757812.105469 12.164062l-8.675781 8.675781c-1.628907 1.628907-3.835938 2.542969-6.136719 2.542969zm0 0"/></g><path d="m277.695312 250.707031h-169.222656c-16.738281.082031-30.289062 13.632813-30.371094 30.371094 0 16.777344 13.597657 30.375 30.371094 30.375h286.375c16.742188-.082031 30.292969-13.632813 30.371094-30.375 0-16.773437-13.597656-30.371094-30.371094-30.371094zm0 0" fill="#59474e"/><path d="m347.117188 250.707031v78.101563c0 9.585937-7.769532 17.355468-17.355469 17.355468-9.585938 0-17.355469-7.769531-17.355469-17.355468v-17.355469c0 9.585937-7.769531 17.355469-17.355469 17.355469-9.585937 0-17.355469-7.769532-17.355469-17.355469v-60.746094" fill="#f0c419"/></svg>