<svg height="503.32203pt" viewBox="0 0 503.32203 503.32203" width="503.32203pt" xmlns="http://www.w3.org/2000/svg"><path d="m251.660156 0c-138.988281 0-251.660156 112.671875-251.660156 251.660156 0 138.988282 112.671875 251.660156 251.660156 251.660156 138.988282 0 251.660156-112.671874 251.660156-251.660156 0-138.988281-112.671874-251.660156-251.660156-251.660156zm0 468.609375c-84.722656.082031-161.722656-49.210937-197.121094-126.183594-35.398437-76.972656-22.703124-167.511719 32.5-231.78125l252.875 252.875 52.765626 52.761719c-39.175782 33.847656-89.246094 52.429688-141.019532 52.328125zm165.578125-76.886719-305.554687-305.550781c86.066406-72.933594 213.683594-67.671875 293.457031 12.097656 79.769531 79.769531 85.03125 207.386719 12.097656 293.453125zm0 0" fill="#c03a2b"/><path d="m321.085938 120.535156v-17.355468c0-9.585938-7.773438-17.355469-17.355469-17.355469h-104.136719c-9.585938 0-17.355469 7.769531-17.355469 17.355469v17.355468l-34.710937 52.070313v199.59375c0 9.585937 7.769531 17.355469 17.355468 17.355469h173.558594c9.585938 0 17.355469-7.769532 17.355469-17.355469v-199.59375zm0 0" fill="#90bae1"/><path d="m355.796875 172.605469-34.710937-52.070313h-138.847657l-34.710937 52.070313zm0 0" fill="#4482c3"/><path d="m303.640625 275.089844c16.613281-11.765625 22.351563-33.773438 13.609375-52.152344-1.027344-2.703125-3.34375-4.707031-6.164062-5.335938-2.820313-.628906-5.765626.203126-7.84375 2.210938-6.917969 5.9375-15 10.371094-23.726563 13.015625h-55.710937c-8.726563-2.644531-16.804688-7.078125-23.726563-13.015625-2.074219-2.007812-5.023437-2.839844-7.84375-2.210938-2.820313.628907-5.136719 2.632813-6.160156 5.335938-8.746094 18.378906-3.003907 40.386719 13.605469 52.152344zm0 0" fill="#2c3e50"/><path d="m234.304688 233.351562c-4.792969 0-8.675782-3.886718-8.675782-8.679687v-17.355469c0-4.792968 3.882813-8.679687 8.675782-8.679687 4.792968 0 8.679687 3.886719 8.679687 8.679687v17.355469c0 4.792969-3.886719 8.679687-8.679687 8.679687zm0 0" fill="#e4c05c"/><path d="m269.015625 233.351562c-4.792969 0-8.675781-3.886718-8.675781-8.679687v-17.355469c0-4.792968 3.882812-8.679687 8.675781-8.679687s8.679687 3.886719 8.679687 8.679687v17.355469c0 4.792969-3.886718 8.679687-8.679687 8.679687zm0 0" fill="#e4c05c"/><path d="m209.832031 307.71875c-15.945312-21.507812-12.976562-51.605469 6.863281-69.589844 19.84375-17.980468 50.089844-17.980468 69.929688 0 19.839844 17.984375 22.808594 48.082032 6.863281 69.589844" fill="#fff"/><path d="m234.304688 268.0625c-2.296876-.035156-4.496094-.933594-6.160157-2.515625-.785156-.832031-1.402343-1.804687-1.824219-2.863281-.445312-1.042969-.679687-2.164063-.691406-3.300782.011719-.582031.070313-1.160156.171875-1.734374.09375-.542969.269531-1.070313.519531-1.5625.191407-.550782.453126-1.078126.78125-1.5625l1.042969-1.300782c.84375-.765625 1.8125-1.382812 2.863281-1.820312 2.113282-.871094 4.480469-.871094 6.59375 0 1.050782.4375 2.019532 1.054687 2.863282 1.820312.375.414063.722656.847656 1.042968 1.300782.328126.484374.589844 1.011718.78125 1.5625.25.492187.425782 1.019531.519532 1.5625.101562.574218.160156 1.152343.175781 1.734374-.015625 1.136719-.25 2.257813-.695313 3.300782-.417968 1.058594-1.039062 2.03125-1.824218 2.863281-1.664063 1.582031-3.863282 2.480469-6.160156 2.515625zm0 0" fill="#2c3e50"/><path d="m269.015625 268.0625c-2.296875-.035156-4.496094-.933594-6.160156-2.515625-.785157-.832031-1.402344-1.804687-1.820313-2.863281-.445312-1.042969-.683594-2.164063-.695312-3.300782.015625-.582031.070312-1.160156.171875-1.734374.09375-.542969.269531-1.070313.523437-1.5625.1875-.550782.449219-1.078126.777344-1.5625l1.042969-1.300782c.84375-.765625 1.8125-1.382812 2.863281-1.820312 2.113281-.871094 4.484375-.871094 6.597656 0 1.050782.4375 2.019532 1.054687 2.863282 1.820312.371093.414063.71875.847656 1.039062 1.300782.328125.484374.59375 1.011718.78125 1.5625.25.492187.425781 1.019531.519531 1.5625.101563.574218.160157 1.152343.175781 1.734374-.015624 1.136719-.25 2.257813-.695312 3.300782-.417969 1.058594-1.039062 2.03125-1.820312 2.863281-1.664063 1.582031-3.867188 2.480469-6.164063 2.515625zm0 0" fill="#2c3e50"/><path d="m295.050781 320.128906c0-19.167968-19.425781-34.710937-43.390625-34.710937-23.960937 0-43.390625 15.542969-43.390625 34.710937 0 19.171875 19.429688 34.714844 43.390625 34.714844 23.964844 0 43.390625-15.542969 43.390625-34.714844zm0 0" fill="#d75e72"/><g fill="#802d40"><path d="m234.304688 328.808594c-2.308594.023437-4.527344-.882813-6.160157-2.515625-1.632812-1.632813-2.539062-3.855469-2.515625-6.164063.015625-.582031.074219-1.160156.171875-1.734375.09375-.542969.269531-1.070312.519531-1.5625.171876-.53125.4375-1.03125.78125-1.476562.296876-.496094.648438-.960938 1.042969-1.386719 2.199219-2.203125 5.410157-3.0625 8.414063-2.253906 3.007812.804687 5.355468 3.152344 6.164062 6.160156.804688 3.007812-.054687 6.214844-2.257812 8.417969-.421875.394531-.890625.742187-1.386719 1.039062-.441406.34375-.941406.609375-1.476563.78125-.492187.25-1.015624.425781-1.5625.519531-.574218.097657-1.152343.15625-1.734374.175782zm0 0"/><path d="m269.015625 328.808594c-2.308594.023437-4.527344-.882813-6.160156-2.515625-1.632813-1.632813-2.539063-3.855469-2.515625-6.164063.011718-1.132812.25-2.253906.695312-3.296875.417969-1.0625 1.035156-2.035156 1.820313-2.863281l1.300781-1.042969c.484375-.328125 1.011719-.589843 1.5625-.78125.492188-.25 1.019531-.425781 1.5625-.519531 1.691406-.355469 3.449219-.171875 5.035156.519531 1.058594.421875 2.03125 1.039063 2.863282 1.824219.765624.84375 1.378906 1.8125 1.820312 2.863281.445312 1.042969.679688 2.164063.695312 3.296875-.035156 2.296875-.933593 4.5-2.515624 6.164063-.816407.800781-1.792969 1.421875-2.863282 1.820312-1.046875.445313-2.164062.679688-3.300781.695313zm0 0"/></g></svg>