<svg height="512pt" viewBox="-9 0 512 512" width="512pt" xmlns="http://www.w3.org/2000/svg"><path d="m388.414062 370.757812h70.621094c19.5 0 35.308594 15.808594 35.308594 35.3125v17.652344h-105.929688" fill="#f29c1f"/><path d="m123.585938 238.34375h-105.929688c-9.738281-.027344-17.6289062-7.914062-17.65625-17.652344v-17.65625c.0273438-9.738281 7.917969-17.625 17.65625-17.65625h79.445312zm0 0" fill="#f29c1f"/><path d="m52.964844 185.378906v17.65625c0 4.875-3.953125 8.828125-8.828125 8.828125s-8.828125-3.953125-8.828125-8.828125v-17.65625zm0 0" fill="#802f34"/><path d="m53.40625 141.242188c12.027344 26.289062 25.859375 51.714843 41.402344 76.09375 30.367187 53.230468 25.6875 113.167968 3.355468 168.253906-16.683593 40.960937-36.636718 81.742187-39.992187 126.410156h395.65625c-.945313-11.917969-2.925781-23.734375-5.917969-35.308594l-18.273437-52.96875c-5.207031-12.796875-10.679688-25.421875-15.800781-38.132812-2.027344-4.945313-3.792969-9.886719-5.472657-14.832032-17.390625-50.847656-18.800781-104.960937 8.828125-153.421874 15.542969-24.378907 29.375-49.804688 41.402344-76.09375zm0 0" fill="#bea182"/><path d="m88.277344 141.242188c9.84375 26.046874 21.289062 51.460937 34.277344 76.09375 25.140624 53.230468 21.265624 113.167968 2.769531 168.253906-13.804688 40.960937-30.320313 81.742187-33.101563 126.410156h327.554688c-.769532-11.871094-2.402344-23.671875-4.878906-35.308594l-15.125-52.96875c-4.316407-12.796875-8.824219-25.421875-13.082032-38.132812-1.683594-4.945313-3.140625-9.886719-4.535156-14.832032-14.398438-50.847656-15.5625-104.960937 7.308594-153.421874 12.980468-24.632813 24.421875-50.046876 34.257812-76.09375zm0 0" fill="#fdd7ad"/><path d="m453.828125 512h-395.65625c3.035156-28.5 10.417969-56.363281 21.894531-82.625 6.265625 3.265625 15.183594 7.679688 26.304688 12.445312 48.238281 21.65625 100.300781 33.507813 153.160156 34.871094h2.382812c49.554688-1.167968 98.4375-11.710937 144.066407-31.074218 10.679687-4.324219 19.773437-8.476563 27.011719-12.09375l14.917968 43.167968c2.992188 11.574219 4.972656 23.390625 5.917969 35.308594zm0 0" fill="#894b9d"/><path d="m432.992188 433.523438c-7.238282 3.617187-16.332032 7.769531-27.011719 12.09375-45.628907 19.363281-94.511719 29.90625-144.066407 31.074218h-2.382812c-52.859375-1.363281-104.921875-13.214844-153.160156-34.871094-11.121094-4.765624-20.039063-9.179687-26.304688-12.445312 3.53125-8.917969 7.328125-17.832031 10.945313-26.660156 4.503906 2.207031 9.621093 4.5 15.359375 6.972656 48.238281 21.65625 100.300781 33.511719 153.160156 34.871094h2.382812c49.554688-1.167969 98.4375-11.710938 144.066407-31.074219 6.003906-2.472656 11.476562-4.765625 16.417969-7.0625 2.472656 5.738281 4.855468 11.476563 7.238281 17.300781zm0 0" fill="#3d324c"/><path d="m419.75 512h-327.5c1.855469-23.878906 6.597656-47.441406 14.121094-70.179688 48.238281 21.65625 100.300781 33.507813 153.160156 34.871094h2.382812c49.554688-1.167968 98.4375-11.710937 144.066407-31.074218l8.917969 31.074218c2.46875 11.636719 4.089843 23.4375 4.851562 35.308594zm0 0" fill="#955ba5"/><path d="m273.65625 370.757812c0 9.75-7.90625 17.65625-17.65625 17.65625s-17.65625-7.90625-17.65625-17.65625" fill="#bea182"/><path d="m472.054688 141.242188h-432.109376c-5.394531 0-10.492187-2.464844-13.839843-6.695313-3.351563-4.226563-4.582031-9.753906-3.347657-15.003906l26.835938-106.214844c1.980469-7.839844 9.039062-13.33203125 17.125-13.328125h378.5625c8.085938-.00390625 15.144531 5.488281 17.125 13.328125l26.835938 106.214844c1.234374 5.25.003906 10.777343-3.347657 15.003906-3.347656 4.230469-8.445312 6.695313-13.839843 6.695313zm0 0" fill="#894b9d"/><path d="m494.34375 423.722656v17.65625c0 19.5-15.808594 35.3125-35.308594 35.3125h-158.898437c-9.738281-.03125-17.625-7.917968-17.652344-17.65625v-17.65625c.027344-9.738281 7.914063-17.625 17.652344-17.65625zm0 0" fill="#f3d55b"/><path d="m423.722656 423.722656v17.65625c0 4.875-3.949218 8.828125-8.824218 8.828125-4.878907 0-8.828126-3.953125-8.828126-8.828125v-17.65625zm0 0" fill="#e64c3c"/><path d="m467.863281 423.722656v17.65625c0 4.875-3.953125 8.828125-8.828125 8.828125s-8.828125-3.953125-8.828125-8.828125v-17.65625zm0 0" fill="#e64c3c"/><path d="m379.585938 423.722656v17.65625c0 4.875-3.953126 8.828125-8.828126 8.828125s-8.828124-3.953125-8.828124-8.828125v-17.65625zm0 0" fill="#e64c3c"/><path d="m335.449219 423.722656v17.65625c0 4.875-3.953125 8.828125-8.828125 8.828125s-8.828125-3.953125-8.828125-8.828125v-17.65625zm0 0" fill="#e64c3c"/><path d="m79.449219 88.277344-8.828125 52.964844h-30.632813c-5.402343.007812-10.511719-2.457032-13.867187-6.6875-3.355469-4.234376-4.589844-9.773438-3.347656-15.027344l7.859374-31.25zm0 0" fill="#cc66a1"/><path d="m176.550781 88.277344v52.964844h-52.964843l8.828124-52.964844zm0 0" fill="#cc66a1"/><path d="m229.515625 88.277344h52.96875v52.964844h-52.96875zm0 0" fill="#cc66a1"/><path d="m388.414062 141.242188h-52.964843v-52.964844h44.136719zm0 0" fill="#cc66a1"/><path d="m472.011719 141.242188h-30.632813l-8.828125-52.964844h48.816407l7.859374 31.25c1.242188 5.253906.007813 10.792968-3.347656 15.027344-3.355468 4.230468-8.464844 6.695312-13.867187 6.6875zm0 0" fill="#cc66a1"/><path d="m481.367188 88.277344h-450.734376l18.960938-74.957032c1.984375-7.835937 9.035156-13.320312 17.117188-13.320312h378.578124c8.082032 0 15.132813 5.484375 17.117188 13.320312zm0 0" fill="#955ba5"/><path d="m428.492188 198.003906c-3.707032 6.355469-7.59375 12.800782-11.300782 19.332032-9.003906 15.726562-15.300781 32.855468-18.625 50.667968l-304.640625 127.824219c1.414063-3.441406 2.824219-6.796875 4.238281-10.238281 7.367188-17.832032 12.609376-36.46875 15.625-55.527344l27.453126-11.5625 17.65625-7.328125 26.480468-11.121094 17.65625-7.417969 26.480469-11.121093 17.65625-7.414063 26.484375-11.125 17.652344-7.414062 26.484375-11.121094 17.65625-7.417969 26.480469-11.121093 17.65625-7.414063zm0 0" fill="#f0c419"/><g fill="#c03a2b"><path d="m158.898438 311.171875v15.449219c0 4.875-3.953126 8.828125-8.828126 8.828125s-8.828124-3.953125-8.828124-8.828125v-8.121094zm0 0"/><path d="m203.035156 292.632812v16.332032c0 4.875-3.953125 8.828125-8.828125 8.828125s-8.828125-3.953125-8.828125-8.828125v-8.914063zm0 0"/><path d="m247.171875 274.097656v17.210938c0 4.878906-3.953125 8.828125-8.828125 8.828125s-8.828125-3.949219-8.828125-8.828125v-9.796875zm0 0"/><path d="m291.308594 255.558594v18.097656c0 4.875-3.949219 8.828125-8.824219 8.828125-4.878906 0-8.828125-3.953125-8.828125-8.828125v-10.683594zm0 0"/><path d="m335.449219 237.019531v18.980469c0 4.875-3.953125 8.828125-8.828125 8.828125s-8.828125-3.953125-8.828125-8.828125v-11.5625zm0 0"/><path d="m379.585938 218.484375v19.859375c0 4.875-3.953126 8.828125-8.828126 8.828125s-8.828124-3.953125-8.828124-8.828125v-12.445312zm0 0"/></g></svg>