<svg height="503.32203pt" viewBox="0 0 503.32203 503.32203" width="503.32203pt" xmlns="http://www.w3.org/2000/svg"><path d="m251.660156 0c-138.988281 0-251.660156 112.671875-251.660156 251.660156 0 138.988282 112.671875 251.660156 251.660156 251.660156 138.988282 0 251.660156-112.671874 251.660156-251.660156 0-138.988281-112.671874-251.660156-251.660156-251.660156zm0 468.609375c-84.722656.082031-161.722656-49.210937-197.121094-126.183594-35.398437-76.972656-22.703124-167.511719 32.5-231.78125l252.875 252.875 52.765626 52.761719c-39.175782 33.847656-89.246094 52.429688-141.019532 52.328125zm165.578125-76.886719-305.554687-305.550781c86.066406-72.933594 213.683594-67.671875 293.457031 12.097656 79.769531 79.769531 85.03125 207.386719 12.097656 293.453125zm0 0" fill="#c03a2b"/><path d="m330.378906 215.996094c11.292969-16.144532 17.15625-35.460938 16.738282-55.160156-.519532-52.71875-43.683594-95.03125-96.402344-94.511719-52.71875.523437-95.035156 43.683593-94.511719 96.40625-.03125 18.914062 5.722656 37.382812 16.488281 52.933593 14.503906 20.960938 14.605469 48.691407.25 69.753907-11.292968 16.140625-17.15625 35.453125-16.738281 55.148437.519531 52.71875 43.679687 95.035156 96.398437 94.515625 52.722657-.519531 95.035157-43.679687 94.515626-96.398437.03125-18.914063-5.722657-37.382813-16.488282-52.933594-14.503906-20.960938-14.601562-48.691406-.25-69.753906zm0 0" fill="#e4c05c"/><g fill="#b19046"><path d="m337.753906 280.835938c-6.0625-8.789063-9.351562-19.199219-9.433594-29.878907 0-.085937.054688-.164062.054688-.25-.011719-.078125-.03125-.15625-.054688-.234375-.019531-10.542968 3.183594-20.835937 9.183594-29.503906 3.125-4.488281 5.886719-9.21875 8.261719-14.148438l.070313-.15625c6.890624-14.332031 10.300781-30.089843 9.960937-45.992187-1.375-41.128906-26.785156-77.617187-64.886719-93.171875-38.101562-15.554688-81.785156-7.273438-111.554687 21.144531-36.457031 34.574219-42.304688 90.550781-13.769531 131.90625 6.0625 8.789063 9.347656 19.199219 9.429687 29.878907 0 .085937-.050781.164062-.050781.25.011718.078124.03125.15625.050781.234374.023437 10.542969-3.179687 20.835938-9.179687 29.503907-3.125 4.488281-5.890626 9.21875-8.261719 14.148437l-.070313.15625c-6.898437 14.339844-10.320312 30.105469-9.976562 46.019532 1.488281 54.375 44.738281 98.355468 99.082031 100.757812 1.667969.078125 3.324219.113281 4.972656.121094h.15625c26.914063.105468 52.816407-10.246094 72.246094-28.871094 36.457031-34.570312 42.300781-90.546875 13.769531-131.90625zm-86.03125 143.324218h-1.449218c-8.359376-.988281-17.261719-11.601562-23.769532-28.566406 16.609375 3.523438 33.773438 3.523438 50.382813 0-2.980469 8.882812-7.902344 16.996094-14.402344 23.742188-2.875 2.875-6.707031 4.589843-10.761719 4.824218zm-.0625-43.285156c-10.472656-.050781-20.875-1.671875-30.867187-4.816406-2.476563-11.699219-3.761719-23.621094-3.835938-35.578125 0-2.394531.121094-4.730469.183594-7.097657 22.691406 5.464844 46.359375 5.464844 69.050781 0 .050782 1.734376.179688 3.511719.179688 5.300782.042968 12.550781-1.230469 25.074218-3.800782 37.359375-10 3.15625-20.421874 4.785156-30.910156 4.832031zm-82.363281-69.023438c9.410156 6.851563 19.71875 12.371094 30.636719 16.402344-.203125 4.09375-.367188 8.21875-.332032 12.390625.082032 9.214844.789063 18.414063 2.117188 27.535157-14.832031-8.152344-27.433594-19.828126-36.699219-33.992188.402344-7.605469 1.84375-15.121094 4.277344-22.335938zm-4.09375-144.921874c9.238281-14.042969 21.769531-25.621094 36.5-33.722657-1.417969 9.769531-2.121094 19.632813-2.109375 29.503907 0 3.523437.191406 6.941406.355469 10.414062-10.898438 4.023438-21.191407 9.527344-30.589844 16.359375-2.414063-7.28125-3.8125-14.859375-4.15625-22.519531zm86.457031-89.78125c.398438 0 .800782 0 1.191406.058593 8.398438.867188 17.355469 11.535157 23.933594 28.636719-16.613281-3.523438-33.777344-3.523438-50.386718 0 2.984374-8.882812 7.902343-16.992188 14.40625-23.742188 2.875-2.949218 6.746093-4.714843 10.855468-4.953124zm0 43.386718c10.472656.050782 20.878906 1.675782 30.867188 4.816406 2.480468 11.703126 3.765625 23.621094 3.835937 35.582032 0 2.394531-.121093 4.730468-.179687 7.097656-22.695313-5.46875-46.359375-5.46875-69.050782 0-.054687-1.734375-.183593-3.472656-.183593-5.300781-.039063-12.539063 1.234375-25.046875 3.800781-37.316407 10-3.171874 20.421875-4.816406 30.910156-4.878906zm82.363282 69.027344c-9.40625-6.851562-19.714844-12.371094-30.632813-16.402344.199219-4.097656.363281-8.21875.328125-12.390625-.078125-9.21875-.785156-18.417969-2.117188-27.535156 14.832032 8.152344 27.433594 19.824219 36.699219 33.988281-.402343 7.605469-1.84375 15.121094-4.277343 22.339844zm-109.976563 23.492188c-2.722656-9.003907-4.621094-18.234376-5.664063-27.582032 21.839844-5.585937 44.734376-5.585937 66.574219 0-1.058593 9.464844-2.996093 18.8125-5.785156 27.917969-2.8125 9.308594-4.472656 18.925781-4.949219 28.636719h-45.125c-.515625-9.824219-2.210937-19.554688-5.050781-28.972656zm5.050781 46.328124h45.125c.519532 9.828126 2.21875 19.554688 5.058594 28.976563 2.726562 9.003906 4.621094 18.234375 5.667969 27.578125-21.839844 5.589844-44.734375 5.589844-66.578125 0 1.058594-9.464844 2.992187-18.808594 5.78125-27.914062 2.808594-9.308594 4.472656-18.925782 4.945312-28.640626zm66.707032 23.789063c-2.320313-7.742187-3.738282-15.722656-4.226563-23.789063h20.054687c1.371094 11.238282 5.433594 21.976563 11.839844 31.3125 1.109375 1.605469 1.933594 3.339844 2.921875 4.996094-7.515625 5.914063-15.800781 10.777344-24.625 14.460938-1.238281-9.144532-3.222656-18.167969-5.9375-26.980469zm15.785156-41.144531h-20.011719c.457031-7.945313 1.847656-15.808594 4.148437-23.429688 2.785157-8.933594 4.816407-18.082031 6.074219-27.351562 8.898438 3.703125 17.242188 8.613281 24.804688 14.585937-1.042969 1.734375-2.136719 3.472657-3.316407 5.207031-6.382812 9.214844-10.398437 19.855469-11.699218 30.988282zm-110.035156-50.765625c1.234374 9.140625 3.21875 18.164062 5.933593 26.980469 2.332031 7.738281 3.757813 15.71875 4.253907 23.785156h-20.054688c-1.371094-11.234375-5.429688-21.976563-11.835938-31.308594-1.113281-1.605469-1.9375-3.339844-2.925781-5 7.515625-5.910156 15.800781-10.777344 24.628907-14.457031zm-9.824219 68.121093h20.011719c-.453126 7.949219-1.847657 15.8125-4.148438 23.433594-2.785156 8.929688-4.816406 18.082032-6.074219 27.351563-8.894531-3.703125-17.242187-8.613281-24.800781-14.585938 1.039062-1.738281 2.132812-3.472656 3.3125-5.207031 6.382812-9.214844 10.398438-19.859375 11.699219-30.992188zm111.640625 68.851563c10.902344-4.023437 21.195312-9.527344 30.589844-16.355469 2.417968 7.292969 3.816406 14.886719 4.160156 22.5625-9.242188 14.042969-21.769532 25.617188-36.5 33.722656 1.414062-9.773437 2.121094-19.632812 2.109375-29.507812 0-3.496094-.191407-6.949219-.359375-10.421875zm30.070312-193.414063c-10.632812-9.753906-22.9375-17.511718-36.324218-22.902343-2.597657-9.648438-6.414063-18.929688-11.359376-27.613281 22.101563 9.652343 39.320313 27.894531 47.683594 50.515624zm-142.117187-33.601562c7.644531-7.292969 16.558593-13.128906 26.300781-17.214844-4.945312 8.765625-8.753906 18.125-11.332031 27.855469-13.558594 5.441406-26.011719 13.316406-36.742188 23.230469 4.4375-12.871094 11.90625-24.488282 21.773438-33.871094zm-21.445313 265.375c10.636719 9.753906 22.941406 17.511719 36.328125 22.898438 2.59375 9.652343 6.410157 18.929687 11.359375 27.613281-22.105468-9.652344-39.324218-27.890625-47.6875-50.511719zm142.121094 33.597656c-7.644531 7.273438-16.550781 13.097656-26.277344 17.183594 4.9375-8.753906 8.734375-18.105469 11.308594-27.820312 13.558594-5.445313 26.007812-13.316407 36.742188-23.230469-4.441407 12.871093-11.90625 24.488281-21.773438 33.867187zm0 0"/><path d="m251.660156 189.960938c-4.792968 0-8.675781 3.886718-8.675781 8.675781v17.359375c0 4.792968 3.882813 8.675781 8.675781 8.675781 4.792969 0 8.679688-3.882813 8.679688-8.675781v-17.359375c0-4.789063-3.886719-8.675781-8.679688-8.675781zm0 0"/><path d="m251.660156 311.453125c4.792969 0 8.679688-3.886719 8.679688-8.679687v-17.355469c0-4.792969-3.886719-8.675781-8.679688-8.675781-4.792968 0-8.675781 3.882812-8.675781 8.675781v17.355469c0 4.792968 3.882813 8.679687 8.675781 8.679687zm0 0"/></g></svg>