<svg height="512pt" viewBox="0 0 512 512" width="512pt" xmlns="http://www.w3.org/2000/svg"><path d="m512 256c0 141.386719-114.613281 256-256 256s-256-114.613281-256-256 114.613281-256 256-256 256 114.613281 256 256zm0 0" fill="#df4d60"/><path d="m459.035156 256c.007813 8.859375-.609375 17.710938-1.855468 26.484375-.632813 5.851563-1.636719 11.660156-3 17.390625-3.753907 17.363281-9.839844 34.140625-18.097657 49.875-2.695312 5.273438-5.671875 10.402344-8.914062 15.359375-9.492188 14.972656-20.953125 28.601563-34.074219 40.519531-4.296875 4.035156-8.804688 7.835938-13.507812 11.386719-14.050782 10.859375-29.488282 19.796875-45.902344 26.570313-5.414063 2.316406-10.957032 4.320312-16.597656 6.003906-16.921876 5.40625-34.503907 8.496094-52.257813 9.179687-2.914063.175781-5.828125.265625-8.828125.265625s-5.914062-.089844-8.828125-.175781c-17.75-.738281-35.320313-3.824219-52.257813-9.183594-3.179687-.96875-6.355468-2.117187-9.445312-3.265625-2.382812-.882812-4.855469-1.851562-7.152344-2.824218-16.414062-6.773438-31.851562-15.710938-45.902344-26.570313-4.703124-3.550781-9.210937-7.351563-13.507812-11.386719-13.128906-11.9375-24.617188-25.5625-34.160156-40.519531-3.179688-5.03125-6.179688-10.152344-8.828125-15.359375-8.269531-15.734375-14.386719-32.511719-18.1875-49.875-1.234375-5.738281-2.292969-11.476562-3-17.390625-1.171875-8.78125-1.761719-17.628906-1.765625-26.484375-.007813-8.859375.609375-17.710938 1.855468-26.484375.632813-5.851563 1.636719-11.660156 3-17.390625 3.753907-17.363281 9.839844-34.140625 18.097657-49.875 2.695312-5.273438 5.671875-10.402344 8.914062-15.359375 22.378907-35.125 55.015625-62.519531 93.484375-78.476563 5.414063-2.316406 10.957032-4.320312 16.597656-6.003906 16.921876-5.40625 34.503907-8.496094 52.257813-9.179687 2.914063-.175781 5.828125-.265625 8.828125-.265625s5.914062.089844 8.828125.265625c17.753906.683593 35.335937 3.773437 52.257813 9.179687 5.628906 1.695313 11.167968 3.667969 16.597656 5.914063 38.449218 16.035156 71.070312 43.453125 93.484375 78.566406 3.175781 5.03125 6.179687 10.0625 8.914062 15.359375 8.246094 15.746094 14.363281 32.519531 18.1875 49.875 1.234375 5.738281 2.292969 11.476562 3.085938 17.390625 1.097656 8.789063 1.65625 17.632813 1.679687 26.484375zm0 0" fill="#b0d3f0"/><path d="m459.035156 256c-.019531 66.441406-32.535156 128.675781-87.070312 166.632812-54.53125 37.957032-124.183594 46.835938-186.496094 23.777344-57.984375-70.910156-61.324219-171.863281-8.152344-246.453125 53.171875-74.589843 149.691406-104.351562 235.636719-72.664062 29.84375 36.25 46.132813 81.753906 46.082031 128.707031zm0 0" fill="#90bae1"/><path d="m424.535156 138.902344c-7.019531.011718-13.757812-2.773438-18.722656-7.742188l-24.964844-24.972656c-10.335937-10.34375-10.335937-27.105469 0-37.445312l62.410156-62.421876c3.464844-3.34375 8.972657-3.296874 12.375.109376 3.40625 3.402343 3.453126 8.910156.109376 12.375l-62.410157 62.410156c-3.449219 3.445312-3.449219 9.035156 0 12.480468l24.964844 24.972657c3.445313 3.449219 9.035156 3.449219 12.480469 0l62.417968-62.410157c2.21875-2.292968 5.5-3.214843 8.585938-2.40625 3.085938.808594 5.496094 3.21875 6.304688 6.304688.808593 3.085938-.113282 6.367188-2.40625 8.585938l-62.421876 62.417968c-4.964843 4.960938-11.699218 7.746094-18.722656 7.742188zm0 0" fill="#2980ba"/><path d="m399.570312 121.253906c-3.566406 0-6.785156-2.148437-8.152343-5.449218-1.367188-3.296876-.609375-7.09375 1.914062-9.617188l74.902344-74.902344c2.214844-2.296875 5.496094-3.214844 8.582031-2.40625 3.085938.808594 5.496094 3.21875 6.304688 6.304688.808594 3.085937-.109375 6.367187-2.40625 8.582031l-74.902344 74.902344c-1.65625 1.65625-3.898438 2.585937-6.242188 2.585937zm0 0" fill="#2980ba"/><path d="m246.90625 290.074219-15.886719 15.890625c-4.464843 4.460937-10.96875 6.203125-17.066406 4.570312-6.09375-1.632812-10.855469-6.394531-12.488281-12.488281-1.632813-6.097656.109375-12.601563 4.570312-17.066406l15.890625-15.886719 165.164063-165.164062 24.980468 24.980468zm0 0" fill="#2980ba"/><g fill="#2c3e50"><path d="m264.828125 53.230469v26.21875c0 4.875-3.953125 8.828125-8.828125 8.828125s-8.828125-3.953125-8.828125-8.828125v-26.21875c2.914063-.175781 5.828125-.265625 8.828125-.265625s5.914062.089844 8.828125.265625zm0 0"/><path d="m264.828125 432.550781v26.21875c-2.914063.175781-5.828125.265625-8.828125.265625s-5.914062-.089844-8.828125-.175781v-26.308594c0-4.875 3.953125-8.828125 8.828125-8.828125s8.828125 3.953125 8.828125 8.828125zm0 0"/><path d="m198.621094 98.425781c-4.582032 1.65625-9.640625-.714843-11.300782-5.292969l-9.003906-24.71875c5.414063-2.316406 10.957032-4.320312 16.597656-6.003906l9.003907 24.628906c1.664062 4.609376-.699219 9.695313-5.296875 11.386719zm0 0"/><path d="m333.683594 443.585938c-5.414063 2.316406-10.957032 4.320312-16.597656 6.003906l-9.003907-24.628906c-1.664062-4.609376.699219-9.695313 5.296875-11.386719 4.582032-1.65625 9.640625.714843 11.300782 5.292969zm0 0"/><path d="m393.09375 405.628906c-4.296875 4.035156-8.804688 7.835938-13.507812 11.386719l-16.859376-20.128906c-2.300781-2.375-3.078124-5.835938-2.015624-8.964844 1.058593-3.132813 3.78125-5.410156 7.050781-5.898437 3.265625-.492188 6.535156.882812 8.46875 3.566406zm0 0"/><path d="m110.785156 172.136719c-2.464844 4.203125-7.84375 5.65625-12.09375 3.265625l-22.773437-13.152344c2.695312-5.273438 5.671875-10.402344 8.914062-15.359375l22.6875 13.152344c4.214844 2.460937 5.671875 7.847656 3.265625 12.09375zm0 0"/><path d="m436.082031 349.75c-2.695312 5.273438-5.671875 10.402344-8.914062 15.359375l-22.6875-13.152344c-2.746094-1.578125-4.4375-4.5-4.445313-7.664062-.003906-3.164063 1.675782-6.09375 4.414063-7.679688 2.738281-1.585937 6.113281-1.59375 8.859375-.015625zm0 0"/><path d="m90.835938 226.867188c-.753907 4.238281-4.4375 7.328124-8.738282 7.328124-.503906-.019531-1.007812-.078124-1.5-.175781l-25.777344-4.503906c.632813-5.851563 1.636719-11.660156 3-17.390625l25.863282 4.503906c4.773437.902344 7.945312 5.449219 7.152344 10.238282zm0 0"/><path d="m457.179688 282.484375c-.632813 5.851563-1.636719 11.660156-3 17.390625l-25.863282-4.503906c-3.109375-.550782-5.683594-2.71875-6.757812-5.683594-1.078125-2.96875-.488282-6.28125 1.542968-8.695312 2.03125-2.417969 5.195313-3.5625 8.300782-3.011719zm0 0"/><path d="m90.835938 285.132812c.792968 4.789063-2.378907 9.335938-7.152344 10.238282l-25.953125 4.503906c-1.234375-5.738281-2.292969-11.476562-3-17.390625l25.867187-4.503906c2.304688-.410157 4.679688.113281 6.601563 1.453125 1.917969 1.339844 3.226562 3.390625 3.636719 5.699218zm0 0"/><path d="m457.355469 229.515625-25.953125 4.503906c-.492188.097657-.996094.15625-1.5.175781-4.71875.222657-8.777344-3.316406-9.203125-8.023437s2.929687-8.914063 7.617187-9.542969l25.953125-4.503906c1.234375 5.738281 2.292969 11.476562 3.085938 17.390625zm0 0"/><path d="m107.519531 351.957031-22.773437 13.152344c-3.179688-5.03125-6.179688-10.152344-8.828125-15.359375l22.773437-13.152344c2.746094-1.578125 6.121094-1.570312 8.859375.015625 2.738281 1.585938 4.417969 4.515625 4.414063 7.679688-.007813 3.164062-1.699219 6.085937-4.445313 7.664062zm0 0"/><path d="m436.082031 162.25-22.773437 13.152344c-4.242188 2.441406-9.65625.976562-12.09375-3.265625-2.4375-4.242188-.976563-9.65625 3.265625-12.09375l22.6875-13.152344c3.175781 5.03125 6.179687 10.0625 8.914062 15.359375zm0 0"/><path d="m149.273438 396.886719-16.859376 20.128906c-4.703124-3.550781-9.210937-7.351563-13.507812-11.386719l16.863281-20.039062c1.933594-2.683594 5.203125-4.058594 8.46875-3.566406 3.269531.488281 5.992188 2.765624 7.050781 5.898437 1.0625 3.128906.285157 6.589844-2.015624 8.964844zm0 0"/><path d="m203.917969 424.960938-9.003907 24.714843c-3.179687-.96875-6.355468-2.117187-9.445312-3.265625-2.382812-.882812-4.855469-1.851562-7.152344-2.824218l9.003906-24.71875c1.089844-2.960938 3.675782-5.121094 6.789063-5.660157 3.109375-.542969 6.273437.621094 8.296875 3.042969 2.023438 2.425781 2.597656 5.746094 1.511719 8.710938zm0 0"/><path d="m333.683594 68.324219-9.003906 24.808593c-1.089844 2.960938-3.675782 5.121094-6.789063 5.660157-3.109375.542969-6.273437-.621094-8.296875-3.042969-2.023438-2.425781-2.597656-5.746094-1.511719-8.710938l9.003907-24.628906c5.628906 1.695313 11.167968 3.667969 16.597656 5.914063zm0 0"/></g><path d="m305.964844 305.964844c-6.941406 6.796875-18.042969 6.796875-24.984375 0l-177.609375-177.613282 24.980468-24.980468 161.722657 161.722656 15.890625 15.886719c6.796875 6.941406 6.796875 18.042969 0 24.984375zm0 0" fill="#2980ba"/><path d="m116.472656 54.050781c18.425782 17.25 19.410156 46.160157 2.207032 64.628907-18.46875 17.203124-47.378907 16.21875-64.628907-2.207032-18.449219-18.488281-33.746093-61.742187-16.523437-78.945312 17.222656-17.207032 60.457031-1.925782 78.945312 16.523437zm0 0" fill="#2fa8cc"/><path d="m291.308594 256c0 19.5-15.808594 35.308594-35.308594 35.308594s-35.308594-15.808594-35.308594-35.308594 15.808594-35.308594 35.308594-35.308594 35.308594 15.808594 35.308594 35.308594zm0 0" fill="#2fa8cc"/></svg>