<svg height="512pt" viewBox="-1 0 512 512" width="512pt" xmlns="http://www.w3.org/2000/svg"><path d="m360.875 0h123.585938c4.875 0 8.828124 3.953125 8.828124 8.828125v44.136719h-141.242187v-44.136719c0-4.875 3.953125-8.828125 8.828125-8.828125zm0 0" fill="#802f34"/><path d="m223.421875 512h-148.816406c-17.945313-.015625-33.027344-13.488281-35.054688-31.320312l-39.4960935-347.269532c-.2812495-2.5.5117185-5 2.1875005-6.875 1.675781-1.878906 4.074218-2.949218 6.589843-2.949218h280.363281c2.515626 0 4.910157 1.070312 6.585938 2.949218 1.675781 1.875 2.472656 4.375 2.1875 6.875l-39.492188 347.269532c-2.027343 17.832031-17.109374 31.304687-35.054687 31.320312zm0 0" fill="#90bae1"/><path d="m190.148438 512h-70.621094c-17.945313-.019531-33.023438-13.503906-35.042969-31.339844l-39.460937-347.273437c-.273438-2.492188.519531-4.980469 2.1875-6.847657 1.667968-1.871093 4.046874-2.941406 6.550781-2.953124h70.621093c-2.503906.011718-4.886718 1.082031-6.550781 2.953124-1.667969 1.867188-2.460937 4.355469-2.1875 6.847657l39.460938 347.273437c2.019531 17.835938 17.09375 31.320313 35.042969 31.339844zm0 0" fill="#b0d3f0"/><path d="m119.527344 512h-44.929688c-17.949218-.019531-33.027344-13.503906-35.046875-31.339844l-24.453125-215.125 5.914063-.707031h38.929687l24.542969 215.832031c2.019531 17.835938 17.097656 31.320313 35.042969 31.339844zm0 0" fill="#f29c1f"/><path d="m282.929688 265.535156-24.453126 215.125c-2.019531 17.835938-17.097656 31.320313-35.046874 31.339844h-33.28125c-17.949219-.019531-33.023438-13.503906-35.042969-31.339844l-24.542969-215.832031h146.449219zm0 0" fill="#f29c1f"/><path d="m190.148438 512h-70.621094c-17.945313-.019531-33.023438-13.503906-35.042969-31.339844l-24.542969-215.832031h70.621094l24.542969 215.832031c2.019531 17.835938 17.09375 31.320313 35.042969 31.339844zm0 0" fill="#f0c419"/><path d="m352.046875 88.277344h141.242187v406.066406c0 9.75-7.90625 17.65625-17.65625 17.65625h-105.929687c-9.75 0-17.65625-7.90625-17.65625-17.65625zm0 0" fill="#24ae5f"/><path d="m201.980469 423.722656c.042969 26.160156-18.988281 48.449219-44.832031 52.503906-25.84375 4.054688-50.785157-11.335937-58.753907-36.25-7.972656-24.914062 3.410157-51.921874 26.808594-63.617187 23.398437-11.699219 51.828125-4.59375 66.976563 16.734375 6.363281 8.945312 9.785156 19.652344 9.800781 30.628906zm0 0" fill="#d25627"/><path d="m192.179688 393.09375-73.796876 73.796875c-4.855468-3.441406-9.09375-7.679687-12.535156-12.535156l73.796875-73.796875c4.855469 3.441406 9.09375 7.679687 12.535157 12.535156zm0 0" fill="#c03a2b"/><g fill="#f9eab0"><path d="m113.703125 361.929688c-2.339844-.011719-4.585937-.929688-6.269531-2.558594-3.414063-3.480469-3.414063-9.054688 0-12.535156 2.539062-2.503907 6.335937-3.234376 9.625-1.855469 3.355468 1.296875 5.570312 4.523437 5.570312 8.121093 0 3.601563-2.214844 6.828126-5.570312 8.125-1.0625.449219-2.203125.691407-3.355469.703126zm0 0"/><path d="m184.324219 361.929688c-2.339844-.011719-4.585938-.929688-6.269531-2.558594-3.414063-3.480469-3.414063-9.054688 0-12.535156 2.539062-2.503907 6.335937-3.234376 9.625-1.855469 3.355468 1.296875 5.570312 4.523437 5.570312 8.121093 0 3.601563-2.214844 6.828126-5.570312 8.125-1.0625.449219-2.203126.691407-3.355469.703126zm0 0"/><path d="m131.359375 335.449219c-2.34375-.015625-4.585937-.933594-6.269531-2.5625-3.414063-3.480469-3.414063-9.050781 0-12.535157 2.539062-2.503906 6.335937-3.234374 9.621094-1.851562 3.359374 1.292969 5.574218 4.523438 5.574218 8.121094s-2.214844 6.828125-5.574218 8.121094c-1.058594.453124-2.199219.691406-3.351563.707031zm0 0"/><path d="m201.980469 308.964844c-2.34375-.011719-4.589844-.929688-6.269531-2.558594-3.414063-3.480469-3.414063-9.054688 0-12.535156 2.539062-2.503906 6.335937-3.238282 9.621093-1.855469 3.359375 1.296875 5.574219 4.523437 5.574219 8.121094 0 3.601562-2.214844 6.828125-5.574219 8.121093-1.058593.453126-2.199219.695313-3.351562.707032zm0 0"/><path d="m149.011719 308.964844c-2.339844-.011719-4.585938-.929688-6.265625-2.558594-3.414063-3.480469-3.414063-9.054688 0-12.535156 2.539062-2.503906 6.335937-3.238282 9.621094-1.855469 3.359374 1.296875 5.574218 4.523437 5.574218 8.121094 0 3.601562-2.214844 6.828125-5.574218 8.121093-1.0625.453126-2.199219.695313-3.355469.707032zm0 0"/><path d="m166.667969 335.449219c-2.339844-.015625-4.585938-.933594-6.265625-2.5625-3.414063-3.480469-3.414063-9.050781 0-12.535157 2.535156-2.503906 6.332031-3.234374 9.621094-1.851562 3.359374 1.292969 5.574218 4.523438 5.574218 8.121094s-2.214844 6.828125-5.574218 8.121094c-1.0625.453124-2.203126.691406-3.355469.707031zm0 0"/><path d="m96.046875 308.964844c-2.339844-.011719-4.585937-.929688-6.265625-2.558594-3.414062-3.480469-3.414062-9.054688 0-12.535156 2.539062-2.503906 6.332031-3.238282 9.621094-1.855469 3.359375 1.296875 5.574218 4.523437 5.574218 8.121094 0 3.601562-2.214843 6.828125-5.574218 8.121093-1.0625.453126-2.199219.695313-3.355469.707032zm0 0"/></g><path d="m60.738281 167.722656h-17.65625c-4.875 0-8.828125-3.949218-8.828125-8.824218 0-4.878907 3.953125-8.828126 8.828125-8.828126h17.65625c4.875 0 8.828125 3.949219 8.828125 8.828126 0 4.875-3.953125 8.824218-8.828125 8.824218zm0 0" fill="#fff"/><path d="m237.289062 167.722656h-141.242187c-4.875 0-8.828125-3.949218-8.828125-8.824218 0-4.878907 3.953125-8.828126 8.828125-8.828126h141.242187c4.875 0 8.828126 3.949219 8.828126 8.828126 0 4.875-3.953126 8.824218-8.828126 8.824218zm0 0" fill="#fff"/><path d="m493.289062 132.414062v211.863282c-52.964843 105.929687-141.242187 70.621094-141.242187 70.621094v-211.863282c8.527344 3.027344 17.449219 4.8125 26.484375 5.296875 5.875.496094 11.785156.46875 17.65625-.089843 29.746094-2.648438 68.589844-18.714844 97.101562-75.828126zm0 0" fill="#f0c419"/><path d="m387.359375 158.898438c-4.875 0-8.828125-3.953126-8.828125-8.828126v-17.65625c0-4.875 3.953125-8.828124 8.828125-8.828124s8.828125 3.953124 8.828125 8.828124v17.65625c0 4.875-3.953125 8.828126-8.828125 8.828126zm0 0" fill="#71c285"/><path d="m396.1875 185.378906v22.863282c-5.871094.558593-11.78125.585937-17.65625.089843v-22.953125c0-4.875 3.953125-8.828125 8.828125-8.828125s8.828125 3.953125 8.828125 8.828125zm0 0" fill="#71c285"/><path d="m396.1875 208.242188v162.515624c0 4.875-3.953125 8.828126-8.828125 8.828126s-8.828125-3.953126-8.828125-8.828126v-162.425781c5.875.496094 11.785156.46875 17.65625-.089843zm0 0" fill="#f3d55b"/><path d="m493.289062 88.277344v44.136718c-20.566406 41.222657-46.519531 61.085938-70.621093 69.824219v-113.960937zm0 0" fill="#1b8347"/><path d="m493.289062 132.414062v211.863282c-20.65625 41.222656-46.609374 61.085937-70.621093 69.914062v-211.953125c24.101562-8.738281 50.054687-28.601562 70.621093-69.824219zm0 0" fill="#b49313"/><path d="m493.289062 344.277344v150.066406c-.027343 9.738281-7.917968 17.628906-17.65625 17.65625h-52.964843v-97.808594c24.011719-8.828125 49.964843-28.691406 70.621093-69.914062zm0 0" fill="#1b8347"/><path d="m343.21875 44.136719h158.898438c4.875 0 8.828124 3.953125 8.828124 8.828125v35.3125c0 4.875-3.953124 8.824218-8.828124 8.824218h-158.898438c-4.875 0-8.824219-3.949218-8.824219-8.824218v-35.3125c0-4.875 3.949219-8.828125 8.824219-8.828125zm0 0" fill="#c03a2b"/><path d="m378.53125 44.136719h44.136719v52.964843h-44.136719zm0 0" fill="#e64c3c"/></svg>