<svg height="512pt" viewBox="0 0 512.04483 512" width="512pt" xmlns="http://www.w3.org/2000/svg"><path d="m79.492188 308.988281c-4.875 0-8.828126-3.953125-8.828126-8.828125 1.1875-25.4375 11.507813-49.59375 29.070313-68.035156 3.445313-3.449219 9.039063-3.449219 12.488281-.003906 3.449219 3.449218 3.449219 9.039062.003906 12.488281-14.199218 15.164063-22.652343 34.8125-23.90625 55.550781 0 4.875-3.953124 8.828125-8.828124 8.828125zm0 0" fill="#804537"/><path d="m87.613281 265.734375c-6.355469-43.875-45.019531-17.039063-45.019531-17.039063 3.332031 9.851563 9.03125 18.730469 16.597656 25.863282l29.128906 25.601562zm0 0" fill="#24ae5f"/><path d="m126.898438 301.660156c-10.300782-13.636718-25.199219-23.078125-41.933594-26.570312h-.085938c-.332031-.023438-.65625-.082032-.972656-.175782-4.367188-.816406-8.796875-1.230468-13.242188-1.238281-3.839843.027344-7.675781.320313-11.472656.882813-26.9375 4.421875-48.917968 23.96875-56.449218 50.207031-7.53125 26.234375.734374 54.464844 21.226562 72.5l99.664062 26.480469zm0 0" fill="#e57e25"/><path d="m379.632812 17.675781h52.964844v52.96875h-52.964844zm0 0" fill="#3d324c"/><path d="m375.21875.0234375h61.792969c7.3125 0 13.238281 5.9257815 13.238281 13.2421875 0 7.3125-5.925781 13.238281-13.238281 13.238281h-61.792969c-7.316406 0-13.242188-5.925781-13.242188-13.238281 0-7.316406 5.925782-13.2421875 13.242188-13.2421875zm0 0" fill="#894b9d"/><path d="m512.042969 247.195312v-88.277343c0-19.5-15.808594-35.308594-35.308594-35.308594h-141.242187c-19.5 0-35.308594 15.808594-35.308594 35.308594v88.277343c0 19.5 15.808594 35.308594 35.308594 35.308594h-17.652344c-9.722656.074219-17.585938 7.9375-17.65625 17.65625.027344 9.738282 7.914062 17.625 17.65625 17.65625-9.722656.070313-17.585938 7.933594-17.65625 17.652344.027344 9.742188 7.914062 17.628906 17.65625 17.65625h17.652344c-19.5 0-35.308594 15.808594-35.308594 35.3125v88.273438c0 19.503906 15.808594 35.3125 35.308594 35.3125h141.242187c19.5 0 35.308594-15.808594 35.308594-35.3125v-88.273438c0-19.503906-15.808594-35.3125-35.308594-35.3125h17.65625c9.71875-.070312 17.582031-7.933594 17.652344-17.65625-.027344-9.738281-7.914063-17.625-17.652344-17.652344 9.71875-.074218 17.582031-7.933594 17.652344-17.65625-.027344-9.738281-7.914063-17.625-17.652344-17.65625h-17.65625c19.5 0 35.308594-15.808594 35.308594-35.308594zm0 0" fill="#2980ba"/><path d="m512.042969 300.160156c-.070313 9.722656-7.933594 17.582032-17.652344 17.65625h-176.550781c-9.742188-.03125-17.628906-7.917968-17.65625-17.65625.070312-9.71875 7.933594-17.582031 17.65625-17.65625h176.550781c9.738281.03125 17.625 7.917969 17.652344 17.65625zm0 0" fill="#2fa8cc"/><path d="m512.042969 335.46875c-.070313 9.722656-7.933594 17.585938-17.652344 17.65625h-176.550781c-9.742188-.027344-17.628906-7.914062-17.65625-17.65625.070312-9.71875 7.933594-17.582031 17.65625-17.652344h176.550781c9.738281.027344 17.625 7.914063 17.652344 17.652344zm0 0" fill="#2fa8cc"/><path d="m361.976562 61.816406h88.273438c14.628906 0 26.484375 11.855469 26.484375 26.480469v35.3125h-141.242187v-35.3125c0-14.625 11.859374-26.480469 26.484374-26.480469zm0 0" fill="#894b9d"/><path d="m423.769531 61.816406c-14.625 0-26.484375 11.855469-26.484375 26.480469v35.3125h-35.308594v-35.3125c0-14.625 11.855469-26.480469 26.480469-26.480469zm0 0" fill="#955ba5"/><path d="m335.492188 176.574219c-4.875 0-8.828126-3.953125-8.828126-8.828125v-8.828125c0-4.875 3.953126-8.828125 8.828126-8.828125s8.828124 3.953125 8.828124 8.828125v8.828125c0 4.875-3.953124 8.828125-8.828124 8.828125zm0 0" fill="#b0d3f0"/><path d="m335.492188 256.023438c-4.875 0-8.828126-3.953126-8.828126-8.828126v-44.136718c0-4.878906 3.953126-8.828125 8.828126-8.828125s8.828124 3.949219 8.828124 8.828125v44.136718c0 4.875-3.953124 8.828126-8.828124 8.828126zm0 0" fill="#b0d3f0"/><path d="m327.636719 397.265625c5.035156-5.214844 7.851562-12.175781 7.855469-19.421875-.039063-10.660156-6.035157-20.40625-15.535157-25.246094.917969-3.277344 1.394531-6.664062 1.410157-10.066406 0-19.5-15.808594-35.308594-35.308594-35.308594-2.371094.011719-4.734375.25-7.0625.707032v-.707032c-.027344-18.386718-11.890625-34.660156-29.386719-40.3125-17.492187-5.648437-36.636719.609375-47.414063 15.507813l-34.425781 176.640625zm0 0" fill="#3d324c"/><path d="m99.003906 397.265625c-3.726562-8.953125-5.644531-18.554687-5.652344-28.25.195313-24.207031 11.980469-46.859375 31.691407-60.910156h.089843l103.636719 3.53125c17.171875 14.117187 27.171875 35.148437 27.273438 57.378906-.003907 9.695313-1.921875 19.296875-5.648438 28.25zm0 0" fill="#c03a2b"/><path d="m225.679688 337.855469c-1.886719 3.765625-4.605469 7.054687-7.945313 9.621093-.972656.707032-12.09375 6.796876-12.535156 5.648438 0 0-9.535157-26.480469-28.601563-26.480469-19.070312 0-28.601562 26.480469-28.601562 26.480469-.441406 1.148438-11.566406-4.941406-12.535156-5.648438-3.34375-2.566406-6.058594-5.855468-7.945313-9.621093-4.984375-11.578125-5.171875-24.65625-.53125-36.371094 2.960937-10.375 11.953125-17.894531 22.6875-18.980469 9.761719-.527344 19.371094 2.621094 26.925781 8.828125 7.554688-6.207031 17.160156-9.355469 26.921875-8.828125 10.738281 1.085938 19.726563 8.605469 22.6875 18.980469 4.644531 11.714844 4.453125 24.792969-.527343 36.371094zm0 0" fill="#24ae5f"/><path d="m176.597656 308.988281c-.59375.003907-1.1875-.054687-1.765625-.175781-4.769531-.957031-7.867187-5.585938-6.929687-10.355469.316406-1.660156 7.121094-39.167969-23.121094-61.855469-3.898438-2.925781-4.691406-8.457031-1.765625-12.359374 2.925781-3.898438 8.460937-4.691407 12.359375-1.765626 39.308594 29.484376 30.242188 77.390626 29.835938 79.449219-.835938 4.097657-4.433594 7.046875-8.613282 7.0625zm0 0" fill="#804537"/><path d="m367.609375 418.863281c-10.664063 42.066407-41.144531 76.304688-81.691406 91.765625-2.222657.921875-4.605469 1.398438-7.007813 1.394532h-186.953125c-2.421875.007812-4.824219-.46875-7.0625-1.40625-40.53125-15.464844-70.996093-49.699219-81.652343-91.753907-1.234376-5.242187.003906-10.765625 3.363281-14.976562 3.355469-4.214844 8.460937-6.65625 13.847656-6.621094h329.941406c5.386719-.035156 10.492188 2.40625 13.851563 6.621094 3.355468 4.210937 4.597656 9.734375 3.363281 14.976562zm0 0" fill="#ff5364"/><g fill="#fb7b76"><path d="m53.011719 441.402344h-8.828125c-4.875 0-8.828125-3.953125-8.828125-8.828125s3.953125-8.828125 8.828125-8.828125h8.828125c4.875 0 8.828125 3.953125 8.828125 8.828125s-3.953125 8.828125-8.828125 8.828125zm0 0"/><path d="m326.664062 441.402344h-238.34375c-4.875 0-8.828124-3.953125-8.828124-8.828125s3.953124-8.828125 8.828124-8.828125h238.34375c4.875 0 8.828126 3.953125 8.828126 8.828125s-3.953126 8.828125-8.828126 8.828125zm0 0"/></g></svg>