<svg height="512pt" viewBox="0 0 512.00099 512" width="512pt" xmlns="http://www.w3.org/2000/svg"><path d="m477.21875 300.136719c52.296875-92.496094 40.773438-207.886719-28.777344-288.21875-11.019531-12.589844-29.425781-15.589844-43.871094-7.152344l-1.503906.882813c-11.484375 6.8125-18.144531 19.519531-17.210937 32.839843.441406 7.238281.527343 14.566407.261719 21.980469-.085938 1.941406-.175782 3.882812-.261719 5.738281-2.210938 42.71875-15.441407 84.140625-38.402344 120.230469l-20.832031 184.320312zm0 0" fill="#f0c419"/><path d="m0 300.136719h512c0 117.007812-94.851562 211.863281-211.863281 211.863281h-88.273438c-117.007812 0-211.863281-94.855469-211.863281-211.863281zm0 0" fill="#894b9d"/><path d="m388.238281 290.601562c-3.515625.003907-6.695312-2.078124-8.097656-5.296874-1.40625-3.222657-.765625-6.96875 1.625-9.539063 71-76.429687 57.714844-180.835937 57.574219-181.851563-.578125-4.78125 2.785156-9.144531 7.558594-9.800781 4.773437-.660156 9.191406 2.632813 9.929687 7.390625.636719 4.601563 14.707031 113.585938-62.121094 196.308594-1.675781 1.789062-4.019531 2.800781-6.46875 2.789062zm0 0" fill="#f29c1f"/><path d="m477.132812 52.699219-.441406.265625-91.011718 16.59375c.085937-1.144532.085937-2.203125.175781-3.351563.085937-1.855469.175781-3.796875.261719-5.738281.265624-7.414062.179687-14.742188-.261719-21.980469-.933594-13.320312 5.726562-26.027343 17.210937-32.839843l1.503906-.882813c14.445313-8.4375 32.851563-5.4375 43.871094 7.152344 9.847656 11.367187 18.652344 23.597656 26.308594 36.542969.792969 1.414062 1.675781 2.828124 2.382812 4.238281zm0 0" fill="#f29c1f"/><path d="m388.414062 276.832031c0 7.824219-.765624 15.632813-2.296874 23.304688h-260.234376c-1.527343-7.671875-2.296874-15.480469-2.296874-23.304688.339843-41.550781 21.621093-80.125 56.585937-102.578125 7.539063-4.914062 16.125-7.996094 25.070313-9.003906 4.511718-.574219 9.082031-.574219 13.59375 0h74.328124c13.546876-1.640625 27.238282 1.546875 38.664063 9.003906 34.964844 22.453125 56.246094 61.027344 56.585937 102.578125zm0 0" fill="#c03a2b"/><path d="m353.105469 276.832031c0 7.824219-.769531 15.632813-2.296875 23.304688h-224.925782c-1.527343-7.671875-2.296874-15.480469-2.296874-23.304688.339843-41.550781 21.621093-80.125 56.585937-102.578125 7.539063-4.914062 16.125-7.996094 25.070313-9.003906h52.613281c4.511719-.574219 9.078125-.574219 13.59375 0 8.945312 1.007812 17.53125 4.089844 25.070312 9.003906 34.964844 22.453125 56.242188 61.027344 56.585938 102.578125zm0 0" fill="#e64c3c"/><path d="m256 158.894531c22.070312-19.90625 73.5625 0 73.5625 0-15.546875.910157-30.664062 5.445313-44.140625 13.242188 0 0 36.785156 26.535156 44.140625 53.082031-.3125-1.132812-7.664062-3.269531-8.960938-3.761719-3.210937-1.238281-6.492187-2.285156-9.824218-3.132812-6.570313-1.835938-13.484375-2.074219-20.164063-.699219-18.828125 4.527344-30.277343 25.132812-34.613281 40.773438-4.332031-15.640626-15.785156-36.246094-34.613281-40.773438-6.679688-1.375-13.59375-1.136719-20.160157.699219-3.335937.847656-6.617187 1.894531-9.828124 3.132812-1.296876.492188-8.648438 2.648438-8.957032 3.761719 7.351563-26.546875 44.136719-53.082031 44.136719-53.082031-13.476563-7.796875-28.59375-12.332031-44.136719-13.242188 0 0 51.488282-19.886719 73.558594 0zm0 0" fill="#24ae5f"/><path d="m158.898438 353.101562-28.691407-13.683593-82.800781-39.28125-29.839844-79.269531-6-15.980469c-8.761718-23.40625.03125-49.753907 21.097656-63.203125 5.855469-3.832032 12.433594-6.417969 19.332032-7.59375l14.386718-2.558594.972657-.175781 15.359375-2.648438c15.523437-2.761719 31.46875 1.539063 43.5 11.726563s18.898437 25.207031 18.734375 40.972656l-.351563 27.808594v.085937zm0 0" fill="#d25627"/><path d="m130.207031 339.417969-82.800781-39.28125-29.839844-79.269531-3.707031-9.976563-2.292969-6.003906c-1.3125-3.542969-2.261718-7.210938-2.828125-10.945313-2.992187-20.609375 6.371094-41.058594 23.925781-52.257812l7.238282-1.324219.96875-.179687 15.359375-2.648438c15.523437-2.757812 31.46875 1.539062 43.5 11.730469 12.035156 10.1875 18.902343 25.207031 18.734375 40.972656l-.351563 27.804687v.089844zm0 0" fill="#e57e25"/><g fill="#d25627"><path d="m53.582031 194.914062c.429688 2.296876-.085937 4.671876-1.433593 6.582032-1.34375 1.910156-3.40625 3.199218-5.714844 3.566406l-32.574219 5.828125-2.292969-6.003906c-1.3125-3.542969-2.261718-7.210938-2.828125-10.945313.164063-.097656.34375-.160156.53125-.175781l34.164063-6.003906c2.296875-.429688 4.671875.085937 6.582031 1.433593 1.910156 1.347657 3.199219 3.410157 3.566406 5.71875zm0 0"/><path d="m103.714844 256c-4.582032.003906-8.40625-3.492188-8.804688-8.058594-.402344-4.5625 2.757813-8.675781 7.269532-9.464844l24.894531-4.414062c3.105469-.550781 6.269531.59375 8.300781 3.011719 2.03125 2.414062 2.621094 5.726562 1.546875 8.691406-1.074219 2.96875-3.652344 5.136719-6.757813 5.6875l-24.894531 4.414063c-.511719.085937-1.03125.132812-1.554687.132812zm0 0"/><path d="m79.703125 199.105469c-4.578125-.003907-8.394531-3.503907-8.789063-8.066407-.394531-4.558593 2.761719-8.667968 7.273438-9.457031l17.390625-3.0625c4.800781-.84375 9.378906 2.367188 10.222656 7.167969.839844 4.800781-2.367187 9.378906-7.167969 10.222656l-17.417968 3.0625c-.5.085938-1.003906.128906-1.511719.132813zm0 0"/></g><path d="m19.757812 29.296875 47.605469 102.09375c-22.601562-3.472656-42.613281-16.519531-54.902343-35.804687-12.292969-19.28125-15.671876-42.929688-9.273438-64.882813.953125-3.609375 4.070312-6.230469 7.789062-6.542969 3.71875-.316406 7.234376 1.742188 8.78125 5.136719zm0 0" fill="#24ae5f"/><path d="m76.246094 19.339844-9.828125 112.191406c20.042969-10.992188 34.375-30.089844 39.328125-52.402344 4.957031-22.316406.050781-45.683594-13.453125-64.121094-2.128907-3.0625-5.949219-4.457031-9.550781-3.488281-3.601563.972657-6.199219 4.105469-6.496094 7.820313zm0 0" fill="#24ae5f"/><path d="m105.929688 406.066406h-35.308594c-4.875 0-8.828125-3.949218-8.828125-8.824218 0-4.878907 3.953125-8.828126 8.828125-8.828126h35.308594c4.878906 0 8.828124 3.949219 8.828124 8.828126 0 4.875-3.949218 8.824218-8.828124 8.824218zm0 0" fill="#955ba5"/><path d="m414.898438 406.066406h-273.65625c-4.875 0-8.828126-3.949218-8.828126-8.824218 0-4.878907 3.953126-8.828126 8.828126-8.828126h273.65625c4.875 0 8.828124 3.949219 8.828124 8.828126 0 4.875-3.953124 8.824218-8.828124 8.824218zm0 0" fill="#955ba5"/><path d="m512 300.136719c.027344 17.867187-2.226562 35.667969-6.707031 52.964843h-498.582031c-4.484376-17.296874-6.7382818-35.097656-6.710938-52.964843zm0 0" fill="#3d324c"/></svg>