<svg height="512pt" viewBox="-26 0 512 512" width="512pt" xmlns="http://www.w3.org/2000/svg"><path d="m344.988281 93.867188h59.5625c29.695313 0 52.222657 30.71875 47.019531 64.171874l-46.765624 300.371094c-2.429688 24.550782-22.382813 43.671875-47.015626 45.054688h-254.636718c-24.632813-1.382813-44.585938-20.503906-47.019532-45.054688l-46.761718-300.371094c-5.203125-33.453124 17.324218-64.171874 47.019531-64.171874zm0 0" fill="#2fa8cc"/><path d="m357.789062 512h-254.636718c-27.460938 0-50.78125-21.992188-55.464844-52.285156l-46.765625-300.363282c-3.253906-19.503906 2.183594-39.457031 14.882813-54.613281 9.980468-12.167969 24.847656-19.277343 40.585937-19.40625h348.160156c15.722657.121094 30.582031 7.214844 40.566407 19.363281 12.699218 15.15625 18.136718 35.109376 14.882812 54.613282l-46.761719 300.375c-4.667969 30.324218-27.992187 52.316406-55.449219 52.316406zm-301.398437-409.601562c-10.730469.15625-20.84375 5.066406-27.605469 13.398437-9.390625 11.433594-13.394531 26.363281-10.984375 40.960937l46.765625 300.371094c1.785156 20.390625 18.164063 36.4375 38.585938 37.804688h254.636718c20.425782-1.367188 36.808594-17.421875 38.585938-37.820313l46.761719-300.371093c2.410156-14.601563-1.589844-29.527344-10.980469-40.960938-6.765625-8.328125-16.875-13.230469-27.605469-13.382812zm0 0" fill="#3f5c6c"/><path d="m349.9375 128c.105469 62.28125-47.574219 114.230469-109.636719 119.457031-62.058593 5.222657-117.753906-38.027343-128.058593-99.449219-10.304688-61.425781 28.226562-120.480468 88.59375-135.796874 60.367187-15.316407 122.390624 18.226562 142.617187 77.132812 4.332031 12.425781 6.523437 25.496094 6.484375 38.65625zm0 0" fill="#b0d3f0"/><path d="m349.9375 128c-.007812 41.363281-21.414062 79.78125-56.582031 101.554688-35.171875 21.773437-79.105469 23.804687-116.132813 5.367187-4.332031-12.425781-6.527344-25.496094-6.484375-38.65625.007813-41.363281 21.410157-79.78125 56.582031-101.554687 35.171876-21.773438 79.101563-23.804688 116.132813-5.367188 4.332031 12.425781 6.523437 25.496094 6.484375 38.65625zm0 0" fill="#90bae1"/><g fill="#2c3e50"><path d="m230.46875 59.734375c-4.710938 0-8.53125-3.820313-8.53125-8.535156v-8.53125c0-4.714844 3.820312-8.535157 8.53125-8.535157 4.714844 0 8.535156 3.820313 8.535156 8.535157v8.53125c0 4.714843-3.820312 8.535156-8.535156 8.535156zm0 0"/><path d="m192.070312 70.023438c-3.050781.003906-5.871093-1.621094-7.398437-4.265626l-4.265625-7.390624c-2.320312-4.078126-.910156-9.261719 3.152344-11.605469 4.058594-2.347657 9.253906-.972657 11.625 3.074219l4.269531 7.386718c2.351563 4.078125.957031 9.289063-3.117187 11.648438-1.292969.757812-2.765626 1.15625-4.265626 1.152344zm0 0"/><path d="m163.953125 98.132812c-1.5.003907-2.972656-.390624-4.265625-1.144531l-7.390625-4.265625c-4.046875-2.371094-5.421875-7.566406-3.074219-11.628906 2.34375-4.0625 7.53125-5.46875 11.605469-3.148438l7.390625 4.265626c3.34375 1.929687 4.976562 5.867187 3.976562 9.597656-1 3.730468-4.378906 6.324218-8.242187 6.324218zm0 0"/><path d="m304.359375 179.199219c-1.496094.003906-2.96875-.390625-4.265625-1.144531l-7.390625-4.265626c-4.046875-2.371093-5.417969-7.566406-3.074219-11.628906 2.347656-4.0625 7.53125-5.46875 11.609375-3.148437l7.390625 4.265625c3.34375 1.929687 4.972656 5.867187 3.972656 9.597656s-4.378906 6.324219-8.242187 6.324219zm0 0"/><path d="m153.671875 136.535156h-8.535156c-4.710938 0-8.53125-3.824218-8.53125-8.535156s3.820312-8.535156 8.53125-8.535156h8.535156c4.710937 0 8.53125 3.824218 8.53125 8.535156s-3.820313 8.535156-8.53125 8.535156zm0 0"/><path d="m315.804688 136.535156h-8.535157c-4.710937 0-8.53125-3.824218-8.53125-8.535156s3.820313-8.535156 8.53125-8.535156h8.535157c4.710937 0 8.53125 3.824218 8.53125 8.535156s-3.820313 8.535156-8.53125 8.535156zm0 0"/><path d="m156.582031 179.199219c-3.863281 0-7.246093-2.59375-8.242187-6.324219-1-3.730469.628906-7.667969 3.972656-9.597656l7.390625-4.265625c4.078125-2.320313 9.261719-.914063 11.609375 3.148437 2.34375 4.0625.972656 9.257813-3.074219 11.628906l-7.390625 4.265626c-1.296875.75-2.769531 1.144531-4.265625 1.144531zm0 0"/><path d="m297.03125 98.132812c-3.863281 0-7.242188-2.59375-8.242188-6.324218-1-3.730469.628907-7.667969 3.976563-9.597656l7.386719-4.265626c2.644531-1.550781 5.910156-1.566406 8.566406-.039062 2.65625 1.523438 4.289062 4.355469 4.285156 7.417969-.007812 3.0625-1.65625 5.886719-4.316406 7.398437l-7.390625 4.265625c-1.296875.753907-2.769531 1.148438-4.265625 1.144531zm0 0"/><path d="m268.871094 70.023438c-1.5.003906-2.972656-.390626-4.265625-1.152344-4.078125-2.355469-5.476563-7.566406-3.125-11.648438l4.265625-7.386718c1.515625-2.664063 4.339844-4.308594 7.402344-4.316407 3.058593-.007812 5.890624 1.628907 7.417968 4.28125 1.523438 2.65625 1.507813 5.925781-.039062 8.566407l-4.265625 7.390624c-1.527344 2.640626-4.34375 4.265626-7.390625 4.265626zm0 0"/></g><path d="m230.46875 204.800781c-4.710938 0-8.53125-3.820312-8.53125-8.535156v-110.933594c0-4.710937 3.820312-8.53125 8.53125-8.53125 4.714844 0 8.535156 3.820313 8.535156 8.53125v110.933594c0 4.714844-3.820312 8.535156-8.535156 8.535156zm0 0" fill="#e64c3c"/><path d="m256.070312 204.800781h-51.199218c-4.714844 0-8.535156-3.820312-8.535156-8.535156 0-4.710937 3.820312-8.53125 8.535156-8.53125h51.199218c4.714844 0 8.535157 3.820313 8.535157 8.53125 0 4.714844-3.820313 8.535156-8.535157 8.535156zm0 0" fill="#2c3e50"/><path d="m119.894531 179.199219s-68.265625 34.132812-42.664062 85.335937c25.597656 51.199219 59.730469 85.332032 51.199219 136.53125-8.535157 51.199219-8.535157 68.265625 25.597656 68.265625 34.136718 0 76.800781 0 51.203125-76.796875-14.898438-48.660156-18.054688-100.15625-9.21875-150.273437" fill="#2980ba"/><path d="m264.929688 242.261719c8.835937 50.117187 5.675781 101.613281-9.21875 150.273437-25.597657 76.796875 17.066406 76.796875 51.199218 76.796875 34.136719 0 34.136719-17.066406 25.601563-68.265625-8.53125-51.199218 25.601562-85.332031 51.199219-136.53125 25.601562-51.203125-42.664063-85.335937-42.664063-85.335937" fill="#2980ba"/><path d="m230.46875 256c-70.691406 0-128-57.308594-128-128s57.308594-128 128-128c70.695312 0 128 57.308594 128 128-.078125 70.660156-57.339844 127.921875-128 128zm0-238.933594c-61.265625 0-110.933594 49.667969-110.933594 110.933594s49.667969 110.933594 110.933594 110.933594c61.269531 0 110.933594-49.667969 110.933594-110.933594-.070313-61.238281-49.695313-110.863281-110.933594-110.933594zm0 0" fill="#3f5c6c"/></svg>