<svg height="503.32203pt" viewBox="0 0 503.32203 503.32203" width="503.32203pt" xmlns="http://www.w3.org/2000/svg"><path d="m251.660156 0c-138.988281 0-251.660156 112.671875-251.660156 251.660156 0 138.988282 112.671875 251.660156 251.660156 251.660156 138.988282 0 251.660156-112.671874 251.660156-251.660156 0-138.988281-112.671874-251.660156-251.660156-251.660156zm0 468.609375c-84.722656.082031-161.722656-49.210937-197.121094-126.183594-35.398437-76.972656-22.703124-167.511719 32.5-231.78125l252.875 252.875 52.765626 52.761719c-39.175782 33.847656-89.246094 52.429688-141.019532 52.328125zm165.578125-76.886719-305.554687-305.550781c86.066406-72.933594 213.683594-67.671875 293.457031 12.097656 79.769531 79.769531 85.03125 207.386719 12.097656 293.453125zm0 0" fill="#c03a2b"/><path d="m251.660156 432.945312c-38.339844 0-69.421875-31.082031-69.421875-69.425781v-199.59375h138.847657v199.59375c0 38.34375-31.082032 69.425781-69.425782 69.425781zm0 0" fill="#b0d3f0"/><path d="m329.761719 163.925781h-156.203125c-9.585938 0-17.355469-7.769531-17.355469-17.355469v-43.390624c0-4.792969 3.886719-8.675782 8.679687-8.675782h173.558594c4.792969 0 8.675782 3.882813 8.675782 8.675782v43.390624c0 9.585938-7.769532 17.355469-17.355469 17.355469zm0 0" fill="#3b97d3"/><path d="m321.085938 163.925781v60.746094h-25.339844c-11.675782 0-23 3.980469-32.109375 11.28125-3.636719 2.925781-7.667969 5.320313-11.976563 7.117187v-79.144531zm0 0" fill="#90bae1"/><path d="m347.117188 103.179688v43.390624c-.027344 9.574219-7.78125 17.328126-17.355469 17.355469h-78.101563v-69.421875h86.78125c4.792969 0 8.675782 3.882813 8.675782 8.675782zm0 0" fill="#2980ba"/><path d="m321.085938 224.671875v138.847656c0 38.34375-31.082032 69.425781-69.425782 69.425781-38.339844 0-69.421875-31.082031-69.421875-69.425781v-138.847656l20.824219 13.886719c18.605469 12.414062 43.105469 11.359375 60.574219-2.605469 9.109375-7.300781 20.433593-11.28125 32.109375-11.28125zm0 0" fill="#955ba5"/><path d="m321.085938 224.671875v138.847656c0 38.34375-31.082032 69.425781-69.425782 69.425781v-189.875c4.308594-1.796874 8.339844-4.191406 11.976563-7.117187 9.109375-7.300781 20.433593-11.28125 32.109375-11.28125zm0 0" fill="#894b9d"/><g fill="#b49aca"><path d="m277.695312 294.097656c-1.132812-.015625-2.253906-.25-3.296874-.695312-3.304688-1.25-5.464844-4.449219-5.382813-7.984375.015625-1.132813.25-2.253907.695313-3.296875.789062-2.179688 2.507812-3.898438 4.6875-4.6875 3.234374-1.308594 6.9375-.59375 9.457031 1.824218.765625.84375 1.382812 1.8125 1.824219 2.863282.445312 1.042968.679687 2.164062.691406 3.296875-.03125 2.296875-.929688 4.496093-2.515625 6.160156-.433594.347656-.867188.695313-1.386719 1.042969-.445312.34375-.945312.605468-1.476562.78125-.519532.261718-1.078126.4375-1.65625.519531-.542969.101563-1.089844.160156-1.640626.175781zm0 0"/><path d="m251.660156 320.085938c-1.132812-.015626-2.253906-.25-3.296875-.695313-1.058593-.421875-2.03125-1.039063-2.863281-1.820313-1.601562-1.652343-2.503906-3.859374-2.515625-6.160156.011719-1.136718.246094-2.261718.691406-3.308594 1.101563-2.679687 3.46875-4.632812 6.3125-5.207031 2.839844-.574219 5.777344.308594 7.835938 2.351563.765625.84375 1.378906 1.808594 1.820312 2.855468.445313 1.046876.683594 2.171876.695313 3.308594-.035156 2.296875-.933594 4.496094-2.515625 6.160156-.4375.347657-.871094.695313-1.390625 1.03125-.441406.347657-.941406.613282-1.476563.789063-.523437.257813-1.082031.433594-1.65625.523437-.539062.101563-1.089843.160157-1.640625.171876zm0 0"/><path d="m251.660156 389.554688c-1.132812-.019532-2.253906-.253907-3.296875-.695313-1.058593-.421875-2.03125-1.039063-2.863281-1.820313-1.601562-1.652343-2.503906-3.863281-2.515625-6.164062.011719-1.136719.246094-2.257812.691406-3.304688 1.101563-2.679687 3.46875-4.636718 6.3125-5.207031 2.839844-.574219 5.777344.308594 7.835938 2.351563.765625.839844 1.378906 1.804687 1.820312 2.855468.445313 1.046876.683594 2.167969.695313 3.304688-.035156 2.296875-.933594 4.5-2.515625 6.164062-.4375.34375-.871094.691407-1.390625 1.03125-.441406.34375-.941406.613282-1.476563.789063-.523437.257813-1.082031.433594-1.65625.519531-.539062.101563-1.089843.160156-1.640625.175782zm0 0"/><path d="m277.695312 354.84375c-1.132812-.019531-2.253906-.253906-3.296874-.695312-1.0625-.421876-2.03125-1.042969-2.863282-1.824219-1.605468-1.652344-2.503906-3.859375-2.519531-6.160157.015625-1.136718.25-2.261718.695313-3.304687 1.101562-2.683594 3.46875-4.636719 6.308593-5.210937 2.84375-.570313 5.78125.3125 7.835938 2.355468.765625.839844 1.382812 1.804688 1.824219 2.855469.445312 1.042969.679687 2.167969.691406 3.304687-.03125 2.296876-.929688 4.496094-2.515625 6.160157-.433594.347656-.867188.695312-1.386719 1.035156-.445312.34375-.941406.609375-1.476562.789063-.523438.253906-1.082032.429687-1.65625.519531-.542969.101562-1.089844.160156-1.640626.175781zm0 0"/></g></svg>