<svg height="503pt" viewBox="0 0 503.4 503" width="503pt" xmlns="http://www.w3.org/2000/svg"><path d="m251.699219.199219c-139 0-251.699219 112.601562-251.699219 251.601562s112.699219 251.699219 251.699219 251.699219 251.699219-112.699219 251.699219-251.699219-112.699219-251.601562-251.699219-251.601562zm0 468.601562c-84.699219.097657-161.699219-49.199219-197.097657-126.199219-35.402343-77-22.703124-167.5 32.5-231.800781l305.699219 305.699219c-39.300781 33.800781-89.300781 52.398438-141.101562 52.300781zm165.601562-76.902343-305.601562-305.597657c86.101562-72.902343 213.699219-67.699219 293.5 12.097657 79.800781 79.800781 85 207.402343 12.101562 293.5zm0 0" fill="#c03a2b"/><path d="m171.101562 294.5c16.898438-57.101562 45.898438-147.800781 71.597657-173.398438 37.5-38.601562 99.199219-39.5 137.800781-2 16.898438 16.898438 26.699219 39.5 27.5 63.398438-8-4-17.601562-3.101562-24.800781 2.199219s-10.800781 14.199219-9.5 23c-12.5-4.300781-26.398438-.398438-34.898438 9.800781s-9.800781 24.601562-3.199219 36.101562c-6.5-.203124-12.800781 2.296876-17.402343 6.898438-8.199219 8.199219-9.398438 21.199219-2.699219 30.699219-35.800781 14.402343-78.398438 27.800781-110.5 37.199219" fill="#f29c1f"/><path d="m148.199219 317.5 22.902343-22.898438c9.398438-1.5 18.898438 1.597657 25.597657 8.296876 6.699219 6.703124 9.800781 16.300781 8.300781 25.601562l-24.101562 24.101562c6.402343 9 7 20.898438 1.5 30.5-2.699219 6.199219-7.796876 11-14.097657 13.398438s-13.300781 2.101562-19.402343-.699219c-11.699219-7.902343-15.097657-23.699219-7.699219-35.800781 1-1.800781 2.101562-3.601562 3.5-5.199219l.101562-.101562-.101562.101562c-1.199219.898438-2.5 1.699219-3.800781 2.398438-12.097657 7.5-27.898438 4.101562-35.796876-7.597657-2.800781-6.101562-3.101562-13.101562-.703124-19.402343 2.402343-6.300781 7.203124-11.398438 13.300781-14.097657 9.5-5.703124 21.5-5.101562 30.5 1.398438zm0 0" fill="#e4c05c"/></svg>