<svg height="512pt" viewBox="0 0 512.21706 512" width="512pt" xmlns="http://www.w3.org/2000/svg"><path d="m194.148438 463.558594c1.972656 11.8125-1.28125 23.898437-8.910157 33.128906-7.632812 9.230469-18.894531 14.695312-30.867187 14.980469-11.804688 1.96875-23.882813-1.277344-33.109375-8.894531-9.230469-7.621094-14.699219-18.867188-15-30.832032-2.761719-29.128906 12.171875-80.957031 36.441406-83.261718 24.265625-2.300782 48.683594 45.746093 51.445313 74.878906zm0 0" fill="#d25627"/><path d="m160.65625 484.433594c-1.144531.101562-2.300781-.027344-3.398438-.378906-1.117187-.324219-2.160156-.859376-3.078124-1.570313-.875-.765625-1.59375-1.691406-2.121094-2.730469-.550782-1.011718-.898438-2.125-1.023438-3.273437-.296875-3.140625 1.101563-6.203125 3.675782-8.03125 2.570312-1.828125 5.921874-2.148438 8.789062-.835938 2.871094 1.3125 4.820312 4.058594 5.121094 7.199219.089844 1.148438-.039063 2.308594-.390625 3.40625-.957031 3.457031-3.992188 5.9375-7.574219 6.179688zm0 0" fill="#f18d46"/><path d="m512.214844 8.9375v88.273438c.023437 2.964843-.273438 5.925781-.882813 8.828124-4.195312 20.554688-22.277343 35.316407-43.253906 35.3125h-194.207031c-20.976563.003907-39.058594-14.757812-43.253906-35.3125-.609376-2.902343-.90625-5.863281-.882813-8.828124v-88.273438c0-4.875 3.949219-8.828125 8.828125-8.828125h264.824219c4.878906 0 8.828125 3.953125 8.828125 8.828125zm0 0" fill="#556080"/><path d="m512.214844 8.9375v88.273438c0 24.378906-19.761719 44.140624-44.136719 44.140624h-98.074219v-141.242187h133.382813c4.878906 0 8.828125 3.953125 8.828125 8.828125zm0 0" fill="#2c3e50"/><path d="m512.214844 185.488281v308.964844c-.027344 9.738281-7.914063 17.625-17.652344 17.65625h-247.175781c-9.738281-.03125-17.625-7.917969-17.652344-17.65625v-308.964844c0-24.378906 19.761719-44.136719 44.136719-44.136719h194.207031c24.375 0 44.136719 19.757813 44.136719 44.136719zm0 0" fill="#95a5a5"/><path d="m512.214844 185.488281v308.964844c-.027344 9.738281-7.914063 17.625-17.652344 17.65625h-123.585938v-370.757813h97.101563c24.375 0 44.136719 19.757813 44.136719 44.136719zm0 0" fill="#547580"/><path d="m273.871094 97.210938c0 4.875-3.953125 8.828124-8.828125 8.828124h-34.425781c-.609376-2.902343-.90625-5.863281-.882813-8.828124v-8.828126h35.308594c4.875 0 8.828125 3.953126 8.828125 8.828126zm0 0" fill="#d1d4d1"/><path d="m512.21875 88.382812-.003906 8.828126c.023437 2.964843-.273438 5.925781-.882813 8.828124h-210.976562c-4.875 0-8.828125-3.953124-8.828125-8.828124s3.953125-8.828126 8.828125-8.828126zm0 0" fill="#d1d4d1"/><g fill="#84b5cb"><path d="m265.042969 70.730469c-4.875 0-8.828125-3.953125-8.828125-8.828125v-26.484375c0-4.875 3.953125-8.828125 8.828125-8.828125s8.828125 3.953125 8.828125 8.828125v26.484375c0 4.875-3.953125 8.828125-8.828125 8.828125zm0 0"/><path d="m300.355469 70.730469c-4.875 0-8.828125-3.953125-8.828125-8.828125v-26.484375c0-4.875 3.953125-8.828125 8.828125-8.828125s8.824219 3.953125 8.824219 8.828125v26.484375c0 4.875-3.949219 8.828125-8.824219 8.828125zm0 0"/><path d="m335.664062 70.730469c-4.875 0-8.828124-3.953125-8.828124-8.828125v-26.484375c0-4.875 3.953124-8.828125 8.828124-8.828125s8.828126 3.953125 8.828126 8.828125v26.484375c0 4.875-3.953126 8.828125-8.828126 8.828125zm0 0"/><path d="m370.976562 70.730469c-4.878906 0-8.828124-3.953125-8.828124-8.828125v-26.484375c0-4.875 3.949218-8.828125 8.828124-8.828125 4.875 0 8.824219 3.953125 8.824219 8.828125v26.484375c0 4.875-3.949219 8.828125-8.824219 8.828125zm0 0"/><path d="m406.285156 70.730469c-4.875 0-8.828125-3.953125-8.828125-8.828125v-26.484375c0-4.875 3.953125-8.828125 8.828125-8.828125s8.828125 3.953125 8.828125 8.828125v26.484375c0 4.875-3.953125 8.828125-8.828125 8.828125zm0 0"/><path d="m441.59375 70.730469c-4.875 0-8.824219-3.953125-8.824219-8.828125v-26.484375c0-4.875 3.949219-8.828125 8.824219-8.828125s8.828125 3.953125 8.828125 8.828125v26.484375c0 4.875-3.953125 8.828125-8.828125 8.828125zm0 0"/><path d="m476.90625 70.730469c-4.875 0-8.828125-3.953125-8.828125-8.828125v-26.484375c0-4.875 3.953125-8.828125 8.828125-8.828125s8.828125 3.953125 8.828125 8.828125v26.484375c0 4.875-3.953125 8.828125-8.828125 8.828125zm0 0"/></g><path d="m229.734375 238.453125h282.480469v176.550781h-282.480469zm0 0" fill="#2c3e50"/><path d="m229.734375 238.453125h141.242187v176.550781h-141.242187zm0 0" fill="#556080"/><path d="m414.496094 374.046875c-7.390625 2.210937-15.0625 3.339844-22.777344 3.351563-50.933594 0-99.308594-49.257813-99.308594-49.257813s48.375-42.28125 99.308594-42.28125c6.261719 0 12.5.652344 18.625 1.941406-7.414062 16.859375-17.917969 52.523438 4.152344 86.246094zm0 0" fill="#67b9cc"/><path d="m476.90625 328.140625c-12.132812 16.300781-27.714844 29.714844-45.640625 39.285156-21.714844-29.839843-10.0625-62.148437-3.972656-74.683593 19.0625 7.789062 36.046875 19.910156 49.613281 35.398437zm0 0" fill="#67b9cc"/><path d="m323.570312 353.125c-26.835937 37.605469-58.527343 24.273438-58.527343 24.273438 17.125-10.476563 27.480469-29.183594 27.277343-49.257813.074219-.375.101563-.761719.089844-1.148437.53125-20.480469-9.898437-39.691407-27.367187-50.402344 0 0 34.171875-14.40625 61.511719 28.804687zm0 0" fill="#67b9cc"/><path d="m64.976562 506.484375c-10.308593 6.097656-22.753906 7.421875-34.113281 3.632813-11.359375-3.789063-20.515625-12.316407-25.105469-23.378907-6.097656-10.304687-7.425781-22.75-3.636718-34.109375 3.785156-11.363281 12.316406-20.519531 23.378906-25.105468 26.164062-13.082032 79.898438-17.851563 90.796875 3.945312 10.902344 21.796875-25.15625 61.933594-51.320313 75.015625zm0 0" fill="#e57e25"/><path d="m33.390625 482.792969c-.507813-1.035157-.808594-2.160157-.882813-3.3125-.273437-2.34375.507813-4.6875 2.136719-6.398438.734375-.875 1.632813-1.597656 2.648438-2.128906 2.101562-1.019531 4.511719-1.203125 6.742187-.511719 1.09375.390625 2.101563.988282 2.96875 1.765625 2.257813 1.902344 3.40625 4.8125 3.050782 7.742188-.359376 2.933593-2.167969 5.484375-4.816407 6.789062-1.039062.511719-2.167969.8125-3.320312.882813-3.578125.371094-7-1.5625-8.527344-4.820313zm0 0" fill="#fac176"/></svg>