<svg height="503.32203pt" viewBox="0 0 503.32203 503.32203" width="503.32203pt" xmlns="http://www.w3.org/2000/svg"><path d="m251.660156 0c-138.988281 0-251.660156 112.671875-251.660156 251.660156 0 138.988282 112.671875 251.660156 251.660156 251.660156 138.988282 0 251.660156-112.671874 251.660156-251.660156 0-138.988281-112.671874-251.660156-251.660156-251.660156zm0 468.609375c-84.722656.082031-161.722656-49.210937-197.121094-126.183594-35.398437-76.972656-22.703124-167.511719 32.5-231.78125l252.875 252.875 52.765626 52.761719c-39.175782 33.847656-89.246094 52.429688-141.019532 52.328125zm165.578125-76.886719-305.554687-305.550781c86.066406-72.933594 213.683594-67.671875 293.457031 12.097656 79.769531 79.769531 85.03125 207.386719 12.097656 293.453125zm0 0" fill="#c03a2b"/><path d="m303.730469 129.214844-78.101563 34.710937v104.136719l78.101563 34.710938 78.101562-34.710938v-104.136719zm0 0" fill="#ecf0f1"/><path d="m381.832031 163.925781-78.101562 34.710938-78.101563-34.710938 78.101563-34.710937zm0 0" fill="#95a5a5"/><path d="m381.832031 163.925781v104.136719l-78.101562 34.710938v-104.136719zm0 0" fill="#bdc3c7"/><path d="m190.914062 190.566406-78.101562 34.714844v104.132812l78.101562 34.714844 78.101563-34.714844v-104.132812zm0 0" fill="#ecf0f1"/><path d="m269.015625 225.28125-78.101563 34.710938-78.101562-34.710938 78.101562-34.714844zm0 0" fill="#95a5a5"/><path d="m269.015625 225.28125v104.132812l-78.101563 34.714844v-104.136718zm0 0" fill="#bdc3c7"/></svg>