<svg height="512pt" viewBox="0 0 512 512.02222" width="512pt" xmlns="http://www.w3.org/2000/svg"><g fill="#8697cb"><path d="m227.230469 412.425781c-37.429688 51.253907-80.058594 50.191407-98.867188 46.546875-1.691406-.355468-3.019531-1.664062-3.398437-3.347656s.257812-3.4375 1.632812-4.480469c26.824219-19.625 42.695313-50.855469 42.722656-84.09375.074219-.703125.105469-1.410156.089844-2.117187.613282-33.980469-15.332031-66.132813-42.75-86.210938-1.382812-1.046875-2.023437-2.800781-1.640625-4.488281.378907-1.6875 1.710938-3 3.40625-3.351563 19.675781-3.839843 65.523438-4.820312 104.101563 54.324219zm0 0"/><path d="m302 448.175781c16.289062 13.949219 20.300781 37.53125 9.542969 56.082031-.703125 1.160157-.832031 2.582032-.351563 3.847657.484375 1.269531 1.519532 2.246093 2.816406 2.648437 11.472657 3.480469 41.488282 4.246094 79.183594-59.574218v-.089844zm0 0"/><path d="m308.886719 295.8125c-.292969-41.296875-5.800781-60.636719-9.445313-68.953125-.546875-1.328125-.410156-2.839844.367188-4.050781.773437-1.210938 2.089844-1.96875 3.523437-2.03125 22.652344-.953125 92.074219 2.101562 94.359375 75.125zm0 0"/></g><path d="m491 149.980469c-5.03125 17.390625-26.042969 26.660156-46.699219 20.570312-14.429687-3.644531-25.707031-14.890625-29.394531-29.308593h-48.816406c.265625-.175782.527344-.265626.792968-.441407-22.066406-14.566406-22.066406-54.289062 0-68.855469l-2.382812-1.324218h50.40625c1.589844-13.769532 15.449219-27.011719 31.691406-31.78125 20.832032-6.089844 41.664063 3.089844 46.695313 20.480468 5.035156 17.390626-7.679688 38.84375-28.421875 44.933594-2.820313.855469-5.71875 1.417969-8.652344 1.675782 2.113281.355468 4.207031.828124 6.265625 1.414062 20.835937 6.089844 33.546875 25.246094 28.515625 42.636719zm0 0" fill="#e4c05c"/><path d="m366.882812 140.800781c-.265624.175781-.527343.265625-.792968.441407-70.621094 39.457031-184.144532 97.101562-232.785156 97.101562-52.609376.035156-100.3125-30.902344-121.742188-78.949219-21.425781-48.046875-12.570312-104.207031 22.609375-143.328125 4.199219 13.347656 16.550781 22.449219 30.542969 22.511719 10.414062.039063 20.183594-5.042969 26.128906-13.597656 7.054688 15 22.09375 24.613281 38.664062 24.71875 19.566407-.171875 36.582032-13.457031 41.492188-32.398438 5.933594 6.554688 14.375 10.28125 23.214844 10.242188 15.914062-.191407 29.375-11.824219 31.867187-27.542969 46.875 20.566406 99.046875 48.550781 138.417969 70.621094l2.382812 1.324218c-22.066406 14.566407-22.066406 54.289063 0 68.855469zm0 0" fill="#f29c1f"/><path d="m131.371094 204.800781c-25.855469.164063-51.0625-8.089843-71.8125-23.515625-2.550782-1.855468-3.917969-4.929687-3.589844-8.066406.332031-3.136719 2.3125-5.859375 5.191406-7.144531 2.882813-1.28125 6.230469-.929688 8.78125.925781 57.132813 41.488281 125.351563 10.664062 184.496094-24.945312 4.125-2.089844 9.160156-.640626 11.546875 3.316406 2.386719 3.957031 1.316406 9.085937-2.453125 11.761718-41.5 24.980469-87.28125 47.667969-132.160156 47.667969zm0 0" fill="#fac176"/><path d="m410.96875 439.410156c.796875 1.101563 1.042969 2.507813.667969 3.8125-.378907 1.304688-1.332031 2.363282-2.59375 2.871094-17.613281 6.691406-36.292969 10.148438-55.136719 10.203125-83.410156 0-163.117188-69.339844-180.851562-85.777344-.925782-.875-1.429688-2.105469-1.382813-3.382812.050781-1.273438.648437-2.464844 1.640625-3.261719 18.253906-14.480469 97.578125-73.449219 180.59375-73.449219 15.671875.027344 31.269531 2.105469 46.398438 6.179688 1.222656.347656 2.234374 1.203125 2.78125 2.347656.542968 1.148437.570312 2.472656.070312 3.640625-11.988281 26.921875-28.859375 83.550781 7.8125 136.816406zm0 0" fill="#556080"/><path d="m512.007812 367.050781c-21.09375 27.613281-47.597656 50.636719-77.894531 67.65625-1.976562 1.050781-4.421875.519531-5.789062-1.253906-37.304688-49.664063-19.210938-102.941406-8.238281-125.898437 1.027343-2.152344 3.550781-3.128907 5.757812-2.226563 32.859375 14.078125 62.261719 35.140625 86.164062 61.722656zm0 0" fill="#556080"/><path d="m238.355469 370.757812c-3.546875-.019531-6.734375-2.160156-8.097657-5.433593-1.363281-3.269531-.636718-7.042969 1.847657-9.574219 1.550781-1.605469 38.75-37.957031 112.179687-37.957031 4.875 0 8.828125 3.953125 8.828125 8.828125s-3.953125 8.828125-8.828125 8.828125c-65.703125 0-99.382812 32.421875-99.753906 32.75-1.640625 1.628906-3.863281 2.550781-6.175781 2.558593zm0 0" fill="#8697cb"/><path d="m432.5625 361.929688c-2.34375-.011719-4.589844-.929688-6.269531-2.558594-.378907-.417969-.734375-.863282-1.058594-1.324219-.335937-.492187-.601563-1.027344-.796875-1.589844-.253906-.5-.433594-1.035156-.527344-1.589843-.101562-.582032-.160156-1.171876-.175781-1.765626.011719-1.152343.253906-2.292968.703125-3.351562.429688-1.082031 1.058594-2.070312 1.855469-2.914062 2.085937-2.066407 5.066406-2.960938 7.945312-2.382813.585938.082031 1.15625.261719 1.6875.527344.539063.179687 1.046875.449219 1.5.796875.519531.351562.96875.707031 1.410157 1.058594.800781.84375 1.429687 1.832031 1.855468 2.914062.449219 1.0625.6875 2.199219.695313 3.351562-.011719.59375-.074219 1.183594-.183594 1.765626-.089844.554687-.265625 1.09375-.519531 1.589843-.199219.5625-.464844 1.097657-.796875 1.589844l-1.058594 1.324219c-.433594.398437-.90625.753906-1.414063 1.058594-.449218.347656-.957031.617187-1.5.796874-.527343.265626-1.097656.445313-1.683593.527344-.550781.101563-1.109375.164063-1.667969.175782zm0 0" fill="#84b5cb"/></svg>