<svg height="506pt" viewBox="-1 0 506 506.1646" width="506pt" xmlns="http://www.w3.org/2000/svg"><path d="m338.519531 0h86.78125c9.585938 0 17.355469 7.769531 17.355469 17.355469 0 9.585937-7.769531 17.355469-17.355469 17.355469h-86.78125c-9.585937 0-17.355469-7.769532-17.355469-17.355469 0-9.585938 7.769532-17.355469 17.355469-17.355469zm0 0" fill="#285680"/><path d="m338.519531 34.710938v14.214843c0 35.355469-14.046875 69.261719-39.050781 94.261719-25 24.996094-39.050781 58.902344-39.050781 94.257812v231.164063c0 19.171875 15.542969 34.710937 34.714843 34.710937h173.558594c19.167969 0 34.710938-15.539062 34.710938-34.710937v-231.164063c0-35.355468-14.046875-69.261718-39.050782-94.257812-25.003906-25-39.050781-58.90625-39.050781-94.261719v-14.214843zm0 0" fill="#90bae1"/><path d="m354.019531 34.710938v14.214843c.605469 33.148438-8.089843 65.800781-25.097656 94.261719-17.015625 28.453125-25.714844 61.109375-25.113281 94.257812v231.164063c0 19.171875 9.988281 34.710937 22.3125 34.710937h111.578125c12.324219 0 22.3125-15.539062 22.3125-34.710937v-231.164063c.609375-33.148437-8.085938-65.800781-25.097657-94.257812-17.011718-28.457031-25.710937-61.113281-25.113281-94.261719v-14.214843zm0 0" fill="#b0d3f0"/><path d="m260.417969 419.492188v31.761718h242.984375v-225.625h-229.011719" fill="#285680"/><path d="m468.691406 381.832031c-4.792968 0-8.679687-3.886719-8.679687-8.679687v-112.8125c0-4.792969 3.886719-8.679688 8.679687-8.679688 4.792969 0 8.675782 3.886719 8.675782 8.679688v112.8125c0 4.792968-3.882813 8.679687-8.675782 8.679687zm0 0" fill="#4482c3"/><path d="m468.691406 425.21875c-4.792968 0-8.679687-3.882812-8.679687-8.675781v-8.679688c0-4.792969 3.886719-8.675781 8.679687-8.675781 4.792969 0 8.675782 3.882812 8.675782 8.675781v8.679688c0 4.792969-3.882813 8.675781-8.675782 8.675781zm0 0" fill="#4482c3"/><path d="m301.976562 378.296875-2.855468 2.839844-119.929688 118.964843c-8.273437 8.0625-21.464844 8.0625-29.738281 0l-120.058594-119.140624c-37.523437-37.21875-39.917969-100.316407-1.980469-137.109376 37.484376-36.160156 96.964844-35.839843 134.050782.726563l2.863281 2.839844 2.855469-2.839844c37.375-36.847656 97.417968-36.847656 134.792968 0 17.835938 17.679687 27.867188 41.75 27.867188 66.859375 0 25.113281-10.03125 49.183594-27.867188 66.859375zm0 0" fill="#ff5364"/><path d="m301.988281 378.273438-2.867187 2.863281-119.929688 118.972656c-8.277344 8.074219-21.484375 8.074219-29.761718 0l-6.164063-6.074219c3.742187-.871094 7.164063-2.761718 9.894531-5.464844l119.929688-118.976562 2.863281-2.777344c20.515625-20.148437 30.644531-48.601562 27.480469-77.183594-3.167969-28.582031-19.28125-54.128906-43.707032-69.300781 15.945313 4.320313 30.503907 12.691407 42.261719 24.300781 17.824219 17.664063 27.855469 41.722657 27.855469 66.820313s-10.03125 49.152344-27.855469 66.820313zm0 0" fill="#df4d60"/><path d="m34.792969 303.730469c-.710938 0-1.421875-.085938-2.109375-.261719-2.234375-.558594-4.15625-1.980469-5.339844-3.953125-1.183594-1.976563-1.539062-4.339844-.976562-6.574219 6.710937-24.136718 25.574218-42.996094 49.714843-49.699218 4.597657-1.042969 9.1875 1.773437 10.339844 6.34375 1.148437 4.574218-1.5625 9.226562-6.105469 10.484374-17.957031 5.105469-31.992187 19.136719-37.105468 37.089844-.96875 3.859375-4.4375 6.570313-8.417969 6.570313zm0 0" fill="#fb7b76"/></svg>