<svg height="448pt" viewBox="0 -11 448 448" width="448pt" xmlns="http://www.w3.org/2000/svg"><path d="m393.554688 267.460938h-221.90625c-2.207032 0-4-1.792969-4-4v-82c0-2.210938 1.792968-4 4-4h136c48.09375 0 87.6875 37.804687 89.90625 85.847656.042968 1.085937-.359376 2.144531-1.117188 2.925781-.753906.785156-1.796875 1.226563-2.882812 1.226563zm0 0" fill="#e48e66"/><path d="m9 297.460938h430v50h-430zm0 0" fill="#f8ec7d"/><path d="m294.113281 267.460938h-123.300781c-2.207031 0-4-1.792969-4-4v-82c0-2.210938 1.792969-4 4-4h73.488281c27.507813 0 49.8125 40.289062 49.8125 90zm0 0" fill="#d18162"/><path d="m9 297.460938h238v50h-238zm0 0" fill="#e2d574"/><path d="m93.699219 0c23.582031 0 44.042969 16.28125 49.339843 39.257812 5.300782 22.980469-5.960937 46.574219-27.160156 56.902344-21.199218 10.328125-46.722656 4.65625-61.554687-13.679687-14.828125-18.335938-15.039063-44.480469-.503907-63.050781 9.597657-12.265626 24.304688-19.429688 39.878907-19.429688zm0 0" fill="#f8ec7d"/><path d="m121.980469 199.179688c13.480469 13.492187 15.554687 34.625 4.953125 50.480468-10.597656 15.855469-30.921875 22.011719-48.539063 14.710938-17.617187-7.300782-27.625-26.03125-23.90625-44.734375 3.722657-18.707031 20.140625-32.175781 39.210938-32.175781 10.613281-.015626 20.792969 4.203124 28.28125 11.71875zm0 0" fill="#e48e66"/><path d="m9 288.460938h430v18h-430zm0 0" fill="#ccba60"/><path d="m9 338.460938h430v18h-430zm0 0" fill="#ccba60"/><g fill="#b56c55"><path d="m9 426.730469c-4.96875 0-9-4.03125-9-9v-290c0-4.972657 4.03125-9 9-9s9 4.027343 9 9v290c0 4.96875-4.03125 9-9 9zm0 0"/><path d="m439 426.730469c-4.96875 0-9-4.03125-9-9v-170c0-4.972657 4.03125-9 9-9s9 4.027343 9 9v170c0 4.96875-4.03125 9-9 9zm0 0"/><path d="m100.953125 64.066406c-1.152344 0-2.28125-.332031-3.25-.953125l-9.460937-6.058593c-1.730469-1.113282-2.78125-3.027344-2.78125-5.085938v-18.839844c0-3.335937 2.703124-6.039062 6.039062-6.039062s6.039062 2.703125 6.039062 6.039062v15.535156l6.679688 4.277344c2.257812 1.445313 3.292969 4.210938 2.539062 6.785156-.757812 2.574219-3.121093 4.34375-5.804687 4.339844zm0 0"/></g></svg>